<svg width="54" height="54" viewBox="0 0 54 54" fill="none" xmlns="http://www.w3.org/2000/svg">
<circle cx="27" cy="27" r="25.5" stroke="black" stroke-width="3"/>
<g clip-path="url(#clip0_1324_12947)">
<path fill-rule="evenodd" clip-rule="evenodd" d="M38.0392 14.0934C38.1649 14.2695 38.2547 14.4686 38.3034 14.6794C38.3522 14.8902 38.3589 15.1085 38.3233 15.3219C38.2876 15.5353 38.2103 15.7396 38.0957 15.9231C37.9811 16.1066 37.8315 16.2657 37.6554 16.3914L34.1944 18.864C33.6621 19.2437 33.2572 19.7757 33.0331 20.39C32.8091 21.0043 32.7763 21.672 32.9391 22.3053L38.4461 16.7983C38.5981 16.6409 38.7798 16.5154 38.9808 16.4291C39.1818 16.3428 39.398 16.2973 39.6167 16.2954C39.8354 16.2935 40.0523 16.3352 40.2548 16.418C40.4572 16.5009 40.6412 16.6232 40.7958 16.7779C40.9505 16.9325 41.0728 17.1165 41.1557 17.3189C41.2385 17.5214 41.2802 17.7383 41.2783 17.957C41.2764 18.1757 41.2309 18.3919 41.1446 18.5929C41.0583 18.7939 40.9328 18.9756 40.7754 19.1276L35.2684 24.6346C35.9017 24.7974 36.5694 24.7646 37.1837 24.5405C37.798 24.3165 38.33 23.9116 38.7097 23.3793L41.1823 19.9183C41.4409 19.5752 41.8232 19.3467 42.2478 19.2815C42.6724 19.2163 43.1057 19.3195 43.4553 19.5692C43.8049 19.8189 44.0431 20.1952 44.1192 20.618C44.1952 21.0408 44.1031 21.4766 43.8625 21.8325L41.3915 25.2952C40.4431 26.6225 39.0326 27.5471 37.4372 27.8872C35.8417 28.2274 34.1767 27.9586 32.7694 27.1336L28.9855 30.9175L35.8335 37.7654C36.1335 38.0761 36.2996 38.4922 36.2958 38.9241C36.2921 39.356 36.1188 39.7692 35.8134 40.0746C35.508 40.3801 35.0948 40.5533 34.6629 40.5571C34.2309 40.5608 33.8148 40.3948 33.5041 40.0947L26.6562 33.2468L19.8083 40.0947C19.6563 40.252 19.4746 40.3775 19.2736 40.4639C19.0726 40.5502 18.8565 40.5956 18.6377 40.5975C18.419 40.5994 18.2021 40.5578 17.9996 40.4749C17.7972 40.3921 17.6133 40.2698 17.4586 40.1151C17.3039 39.9604 17.1816 39.7765 17.0988 39.5741C17.0159 39.3716 16.9743 39.1547 16.9762 38.936C16.9781 38.7172 17.0235 38.5011 17.1098 38.3001C17.1962 38.0991 17.3217 37.9173 17.479 37.7654L24.3269 30.9175L21.6747 28.2653C20.912 28.6771 19.9994 28.9901 19.0291 29.1038C18.0438 29.2279 17.0431 29.1214 16.106 28.7926C15.1689 28.4639 14.321 27.9219 13.6292 27.2094C12.0988 25.6773 11.2241 23.7516 11.0067 21.9017C10.7925 20.0814 11.2044 18.131 12.5387 16.7983C13.8714 15.4639 15.8201 15.0521 17.6404 15.2663C19.4904 15.4854 21.4177 16.3601 22.9481 17.8905C23.6606 18.5823 24.2026 19.4302 24.5314 20.3673C24.8601 21.3044 24.9667 22.3051 24.8425 23.2904C24.7312 24.2167 24.4462 25.1137 24.0024 25.9343L26.6562 28.5865L30.4401 24.8043C29.6156 23.3971 29.347 21.7325 29.6872 20.1374C30.0273 18.5424 30.9517 17.1322 32.2785 16.1838L35.7412 13.7112C36.0966 13.4572 36.5384 13.3547 36.9694 13.4264C37.4003 13.4981 37.7852 13.738 38.0392 14.0934ZM14.2783 21.5162C14.41 22.6364 14.9553 23.8768 15.9585 24.8784C16.8184 25.7383 17.7689 25.9327 18.6453 25.8305C19.6007 25.7185 20.3849 25.2573 20.6913 24.9525C20.9977 24.6461 21.4573 23.862 21.5693 22.9065C21.6731 22.0285 21.4787 21.078 20.6188 20.2198C19.6139 19.2165 18.3751 18.6713 17.255 18.5395C16.1051 18.4044 15.2798 18.7141 14.8663 19.1276C14.4545 19.5411 14.1432 20.3647 14.2783 21.5162Z" fill="black"/>
</g>
<defs>
<clipPath id="clip0_1324_12947">
<rect width="39.5357" height="39.5357" fill="white" transform="translate(7.71289 8.67859)"/>
</clipPath>
</defs>
</svg>
