<svg xmlns="http://www.w3.org/2000/svg" xmlns:xlink="http://www.w3.org/1999/xlink"><defs><style>
    .sprite-symbol-usage {display: none;}
    .sprite-symbol-usage:target {display: inline;}
  </style><symbol viewBox="0 0 22 16" fill="none" id="arrow-link">
<path fill-rule="evenodd" clip-rule="evenodd" d="M15.3431 0.929124L21.7071 7.29308C22.0976 7.68361 22.0976 8.31677 21.7071 8.7073L15.3431 15.0713C14.9526 15.4618 14.3195 15.4618 13.9289 15.0713C13.5384 14.6807 13.5384 14.0476 13.9289 13.657L18.5858 9.00019H0V7.00019H18.5858L13.9289 2.34334C13.5384 1.95281 13.5384 1.31965 13.9289 0.929124C14.3195 0.538599 14.9526 0.538599 15.3431 0.929124Z" fill="currentColor" />
</symbol><symbol fill="none" viewBox="0 0 24 24" id="arrow-slider">
    <path d="m 11.980469,3.9902344 a 1.0001,1.0001 0 0 0 -0.6875,0.3027344 L 4.4101562,11.175781 a 1.0001,1.0001 0 0 0 -0.3339843,0.410157 1.0001,1.0001 0 0 0 -0.050781,0.136718 1.0001,1.0001 0 0 0 -0.015625,0.486328 1.0001,1.0001 0 0 0 0,0.0039 1.0001,1.0001 0 0 0 0.025391,0.09375 1.0001,1.0001 0 0 0 0.017578,0.05273 1.0001,1.0001 0 0 0 0.015625,0.04102 1.0001,1.0001 0 0 0 0.00195,0.002 1.0001,1.0001 0 0 0 0.042969,0.08789 1.0001,1.0001 0 0 0 0.00195,0.002 1.0001,1.0001 0 0 0 0.2910156,0.328124 l 6.886719,6.886719 a 1.0001,1.0001 0 1 0 1.414062,-1.414062 L 7.4140625,13 H 19 a 1.0001,1.0001 0 1 0 0,-2 H 7.4140625 L 12.707031,5.7070312 A 1.0001,1.0001 0 0 0 11.980469,3.9902344 Z" fill="currentColor" />
</symbol><symbol viewBox="0 0 18 18" fill="none" id="calendar">
<path d="M5.25 0.9375C5.56066 0.9375 5.8125 1.18934 5.8125 1.5V4.5C5.8125 4.81066 5.56066 5.0625 5.25 5.0625C4.93934 5.0625 4.6875 4.81066 4.6875 4.5V3.5625H3.75C3.50136 3.5625 3.2629 3.66127 3.08709 3.83709C2.91127 4.0129 2.8125 4.25136 2.8125 4.5V6.9375H15.1875V4.5C15.1875 4.25136 15.0887 4.0129 14.9129 3.83709C14.7371 3.66127 14.4986 3.5625 14.25 3.5625H13.875C13.5643 3.5625 13.3125 3.31066 13.3125 3C13.3125 2.68934 13.5643 2.4375 13.875 2.4375H14.25C14.797 2.4375 15.3216 2.6548 15.7084 3.04159C16.0952 3.42839 16.3125 3.95299 16.3125 4.5V14.25C16.3125 14.797 16.0952 15.3216 15.7084 15.7084C15.3216 16.0952 14.797 16.3125 14.25 16.3125H3.75C3.20299 16.3125 2.67839 16.0952 2.29159 15.7084C1.9048 15.3216 1.6875 14.797 1.6875 14.25V4.5C1.6875 3.95299 1.9048 3.42839 2.29159 3.04159C2.67839 2.6548 3.20299 2.4375 3.75 2.4375H4.6875V1.5C4.6875 1.18934 4.93934 0.9375 5.25 0.9375ZM15.1875 8.0625H2.8125V14.25C2.8125 14.4986 2.91127 14.7371 3.08709 14.9129C3.2629 15.0887 3.50136 15.1875 3.75 15.1875H14.25C14.4986 15.1875 14.7371 15.0887 14.9129 14.9129C15.0887 14.7371 15.1875 14.4986 15.1875 14.25V8.0625ZM11.25 0.9375C11.5607 0.9375 11.8125 1.18934 11.8125 1.5V4.5C11.8125 4.81066 11.5607 5.0625 11.25 5.0625C10.9393 5.0625 10.6875 4.81066 10.6875 4.5V3.5625H7.875C7.56434 3.5625 7.3125 3.31066 7.3125 3C7.3125 2.68934 7.56434 2.4375 7.875 2.4375H10.6875V1.5C10.6875 1.18934 10.9393 0.9375 11.25 0.9375Z" fill="currentColor" />
</symbol><symbol viewBox="0 0 44 44" fill="none" id="chat">
<path d="M5.50044 18.8572C5.50079 16.2752 6.34906 13.7647 7.91488 11.7116C9.48069 9.65857 11.6774 8.17651 14.1674 7.49325C16.6574 6.80998 19.3028 6.96332 21.6972 7.9297C24.0916 8.89608 26.1023 10.622 27.4205 12.8423C28.7386 15.0625 29.2911 17.6542 28.9931 20.2189C28.6951 22.7837 27.5632 25.1797 25.7711 27.0386C23.9791 28.8975 21.6262 30.1164 19.074 30.5081C16.5219 30.8998 13.9117 30.4426 11.6447 29.2066C11.3782 29.061 11.0658 29.0238 10.7726 29.1029L5.66544 30.4701L7.03572 25.3598C7.11397 25.0675 7.07683 24.7564 6.93201 24.4908C5.98964 22.7628 5.49733 20.8254 5.50044 18.8572ZM17.2862 4.71436C14.8741 4.7139 12.5021 5.33034 10.3954 6.50507C8.28883 7.67981 6.51765 9.3738 5.25028 11.426C3.98292 13.4783 3.26147 15.8205 3.15453 18.2302C3.04759 20.6398 3.55871 23.0368 4.6393 25.1932L3.21244 30.5188C3.12364 30.8516 3.12391 31.2019 3.21324 31.5346C3.30257 31.8672 3.4778 32.1706 3.72137 32.4141C3.96493 32.6577 4.26826 32.8329 4.60093 32.9223C4.9336 33.0116 5.28391 33.0119 5.61672 32.9231L10.9392 31.4994C12.8467 32.456 14.946 32.9686 17.0797 32.9987C19.2135 33.0288 21.3264 32.5756 23.2602 31.6732C25.1939 30.7707 26.8984 29.4424 28.2459 27.7876C29.5934 26.1329 30.549 24.1947 31.041 22.1182C31.533 20.0417 31.5488 17.8808 31.0871 15.7974C30.6254 13.714 29.6983 11.762 28.3751 10.0878C27.0519 8.41357 25.367 7.06049 23.4466 6.12991C21.5262 5.19934 19.4201 4.7154 17.2862 4.71436ZM26.7147 39.2858C24.7151 39.2881 22.7379 38.8654 20.9141 38.0456C19.0902 37.2258 17.4615 36.0277 16.1359 34.5306C17.2413 34.6111 18.3521 34.5753 19.45 34.4238C21.5218 36.0504 24.0807 36.9326 26.7147 36.9286C28.686 36.9316 30.6263 36.4376 32.3562 35.4924C32.6226 35.3467 32.9351 35.3096 33.2283 35.3886L38.3354 36.7558L36.9652 31.6455C36.8869 31.3533 36.924 31.0421 37.0689 30.7765C38.011 29.0484 38.5033 27.1111 38.5004 25.1429C38.5013 23.0505 37.945 20.9955 36.8886 19.1893C35.8322 17.3831 34.3139 15.8908 32.4897 14.8658C32.2083 13.7928 31.8132 12.7529 31.3112 11.7638C33.2183 12.4195 34.9633 13.4754 36.4291 14.8607C37.8948 16.2459 39.0475 17.9285 39.8099 19.7956C40.5722 21.6627 40.9266 23.6712 40.8493 25.6865C40.772 27.7018 40.2647 29.6773 39.3616 31.4805L40.7884 36.8045C40.8774 37.1375 40.8771 37.488 40.7877 37.8208C40.6983 38.1537 40.523 38.4571 40.2792 38.7008C40.0354 38.9444 39.7318 39.1196 39.3989 39.2087C39.066 39.2979 38.7155 39.2979 38.3826 39.2088L33.0617 37.7851C31.0926 38.7749 28.9187 39.2889 26.7147 39.2858Z" fill="currentColor" />
</symbol><symbol viewBox="0 0 34 34" id="delivery">
    <path id="delivery_path838" d="m 17.271484,2.0488281 c -1.734579,0 -2.61659,0.840672 -2.990234,1.3554688 h -0.02539 l -0.08008,0.1621094 0.105469,0.7031246 0.08008,0.054688 c 0.266877,0.189663 0.774,1.626859 0.560547,2.466797 -0.213534,0.785746 -0.825713,1.192226 -1.679687,1.707031 -0.400276,0.243848 -0.722118,0.459269 -1.015626,0.703125 -0.05334,-0.108378 -0.106181,-0.216085 -0.132812,-0.351562 -0.186822,-0.677368 0.240281,-1.788107 0.400391,-1.896485 l 0.107421,-0.054687 0.105469,-0.705078 -0.05273,-0.107422 c -0.02672,-0.0542 -0.721234,-1.21875 -2.5625,-1.21875 h -0.05274 c -1.8679773,0 -2.5358118,1.219 -2.5624995,1.246093 v 0.080079 l 0.1347656,0.705078 0.080078,0.054687 c 0.1601101,0.108378 0.6138439,1.246217 0.4003907,1.896485 -0.1601181,0.59609 -0.6681454,0.921739 -1.3085938,1.3281241 l -0.080078,0.02734 c -0.747194,0.433549 -1.4409268,0.974684 -2.0546875,1.625 -0.1067428,0.108386 -0.2923358,0.297637 -0.3457031,0.378906 -0.1067427,0.135503 -0.2148669,0.270748 -0.2949219,0.40625 -0.7205034,1.056662 -0.987579,2.410922 -0.8007813,3.765626 H 1.5273438 c -0.4002833,0 -0.80150661,0.163123 -1.06835942,0.488281 -0.29353812,0.352274 -0.45441972,0.813085 -0.42773438,1.300781 0.02668528,0.975393 0.7222404,1.761719 1.5761719,1.761719 h 1.0664062 c 1.4676945,2.248826 3.6560545,4.063822 5.3105469,4.416015 0.00395,6.69e-4 0.00777,-5.7e-4 0.011719,0 -0.00113,0.03661 -0.011719,0.07055 -0.011719,0.107422 0,1.923749 1.54867,3.496094 3.443359,3.496094 1.681156,0 3.068452,-1.219767 3.388672,-2.818359 h 4.857422 c 0.32022,1.598592 1.707516,2.818359 3.388672,2.818359 1.89469,0 3.441406,-1.572345 3.441406,-3.496094 -5.93e-4,-0.04286 -0.01158,-0.0825 -0.01367,-0.125 1.635957,-0.422363 3.738143,-2.186209 5.164063,-4.371094 h 0.800781 c 0.853894,0 1.547507,-0.786326 1.574219,-1.761718 -0.02671,-0.487696 -0.18688,-0.948589 -0.480469,-1.300782 C 33.25532,16.54421 32.882697,16.380859 32.482422,16.38086 h -1.095703 c 0.213534,-1.327668 -0.08028,-2.681847 -0.800781,-3.765626 -0.05334,-0.08127 -0.106814,-0.135526 -0.160157,-0.216796 -0.05334,-0.05415 -0.10486,-0.135528 -0.158203,-0.216797 -0.05334,-0.05415 -0.107445,-0.135219 -0.1875,-0.189453 -0.05334,-0.05415 -0.134157,-0.135219 -0.1875,-0.189454 -0.64044,-0.650234 -1.334192,-1.191455 -2.054687,-1.625 -0.720495,-0.4334781 -1.173794,-0.7320351 -1.333985,-1.3281241 -0.186742,-0.677368 0.240281,-1.788107 0.400391,-1.896485 l 0.107422,-0.054687 0.105469,-0.705078 -0.05273,-0.107422 c -0.02671,-0.0542 -0.721235,-1.21875 -2.5625,-1.21875 h -0.08008 c -1.681156,0 -2.480492,1.029338 -2.560547,1.246093 l 0.02539,0.080079 0.134765,0.705078 0.08008,0.054687 c 0.16011,0.108378 0.613844,1.246217 0.400391,1.896485 -0.02671,0.108385 -0.08143,0.21584 -0.134765,0.324218 -0.186822,-0.135478 -0.346382,-0.243184 -0.533204,-0.351562 -0.106686,-0.08128 -0.213545,-0.135512 -0.320312,-0.216797 l -0.160156,-0.107422 c -0.85389,-0.54189 -1.468187,-0.921285 -1.681641,-1.707031 -0.240165,-0.867031 0.294278,-2.304234 0.507813,-2.466797 l 0.107421,-0.054688 0.105469,-0.7578121 -0.105469,-0.082031 C 20.126999,3.1858393 19.272252,2.0488281 17.324219,2.0488281 Z m 0,1.1914063 c 0.773839,0 1.414202,0.2163847 1.894532,0.5957031 -0.48033,0.8399384 -0.801321,2.3043824 -0.507813,3.3339844 0.32022,1.246357 1.174737,1.761583 2.162109,2.384766 l 0.02734,0.02539 c 0.853974,0.5147971 1.600507,1.0843671 2.267578,1.7617191 l 0.1875,0.216797 c 0.05334,0.05415 0.07875,0.08061 0.105469,0.134766 0.02663,0.02712 0.05273,0.05469 0.05273,0.05469 0.106767,0.135421 0.188235,0.24363 0.294921,0.40625 0.800632,1.192164 1.012925,2.817853 0.585938,4.253906 H 10.251953 c -0.16011,-0.46066 -0.240234,-1.002765 -0.240234,-1.517578 0,-1.002509 0.29382,-1.977708 0.800781,-2.736328 0.08005,-0.135503 0.213626,-0.270829 0.320312,-0.40625 0.05342,-0.05423 0.107445,-0.135301 0.1875,-0.189453 l 0.1875,-0.216797 c 0.667152,-0.677352 1.413604,-1.274014 2.267579,-1.7617191 0.880605,-0.568989 1.787914,-1.136706 2.134765,-2.410156 0.266877,-1.029602 -0.02616,-2.521138 -0.533203,-3.3339844 0.480331,-0.3793184 1.120612,-0.5957031 1.894531,-0.5957031 z m -7.232422,2.8730465 c 0.560386,0 1.013788,0.135301 1.414063,0.40625 -0.373563,0.704468 -0.613213,1.869549 -0.373047,2.763672 0.05334,0.243848 0.160811,0.460484 0.267578,0.623047 -0.186822,0.1625711 -0.373806,0.3516681 -0.560547,0.5683601 -0.106767,0.108385 -0.294336,0.325434 -0.427734,0.460937 -0.133398,0.162538 -0.266361,0.325742 -0.3730469,0.488281 -0.9340294,1.408936 -1.2537908,3.250281 -0.8535156,4.984375 H 4.2480469 C 4.1679919,16.083046 4.1425781,15.812248 4.1425781,15.56836 c 0,-0.785738 0.2383968,-1.570161 0.6386719,-2.19336 0.026688,-0.05415 0.080742,-0.10991 0.1074219,-0.164062 0.053375,-0.05423 0.080734,-0.107957 0.1074219,-0.16211 L 5.2890625,12.72461 C 5.8227681,12.182681 6.4624343,11.693537 7.15625,11.28711 l 0.027344,-0.02539 C 8.0108397,10.773946 8.7051704,10.312545 9.0253906,9.2558599 9.2655557,8.4159209 8.9986442,7.1966479 8.625,6.4921879 c 0.2401651,-0.189663 0.6935672,-0.406 1.414062,-0.378907 z m 14.4375,0.027344 c 0.533674,0 1.013156,0.135302 1.386719,0.40625 -0.346851,0.650267 -0.585868,1.814852 -0.345703,2.708985 0.293508,1.0566851 0.986479,1.4910471 1.78711,2.0058591 l 0.05273,0.05273 c 0.693783,0.433544 1.308755,0.922687 1.86914,1.4375 l 0.292969,0.324219 c 0.05342,0.05423 0.07939,0.107876 0.132813,0.162109 0.05334,0.05415 0.08143,0.107957 0.134765,0.16211 0.560385,0.867006 0.747369,1.978186 0.560547,3.007812 h -4.964844 c 0.4537,-1.706977 0.159879,-3.548403 -0.800781,-4.984375 -0.106686,-0.162539 -0.239648,-0.325743 -0.373047,-0.488281 -0.05342,-0.08127 -0.132835,-0.162872 -0.21289,-0.244141 -0.08006,-0.08127 -0.134789,-0.16287 -0.214844,-0.24414 -0.16011,-0.189655 -0.345772,-0.351353 -0.585938,-0.5410161 0.106768,-0.216756 0.212283,-0.433384 0.265626,-0.623047 0.240165,-0.867031 -0.02487,-2.059204 -0.398438,-2.763672 0.213453,-0.162563 0.666855,-0.378906 1.414062,-0.378906 z m -8.673828,3.027344 c -0.106726,0 -0.212913,0.047746 -0.292968,0.142578 l -2.5625,3.0078131 c -0.133398,0.08127 -0.160157,0.216367 -0.160157,0.378906 0,0.108385 0.028,0.243711 0.134766,0.40625 0.08005,0.108386 0.186833,0.134765 0.320313,0.134765 0.133397,0 0.240257,-0.08053 0.320312,-0.134765 l 2.560547,-3.035156 c 0.16011,-0.2167561 0.132764,-0.5681581 -0.02734,-0.7578131 -0.08006,-0.094832 -0.186242,-0.142578 -0.292969,-0.142578 z m 3.015625,0.00586 c -0.133398,0 -0.266969,0.08108 -0.320312,0.189453 -0.160111,0.216764 -0.160111,0.515666 0,0.7324221 l 2.535156,2.980469 c 0.106686,0.135503 0.266889,0.134766 0.320313,0.134766 0.106686,0 0.213545,-0.05349 0.320312,-0.134766 0.08005,-0.108386 0.134766,-0.243404 0.134766,-0.378906 0,-0.135503 -0.05471,-0.27052 -0.134766,-0.378906 L 19.138672,9.3105469 c -0.08006,-0.108378 -0.186915,-0.136719 -0.320313,-0.136719 z m -1.521484,0.353516 c -0.240166,0 -0.453125,0.242974 -0.453125,0.5410161 v 4.28125 c 0,0.298041 0.212959,0.541015 0.453125,0.541015 0.240165,0 0.453125,-0.242974 0.453125,-0.541015 v -4.28125 c 0,-0.2980411 -0.21296,-0.5410161 -0.453125,-0.5410161 z M 1.5273438,17.736328 H 32.507812 c 0.213535,0 0.347657,0.189787 0.347657,0.433594 0,0.270925 -0.186306,0.433594 -0.373047,0.433594 H 1.5273438 c -0.2134855,0 -0.375,-0.189705 -0.375,-0.433594 0,-0.243807 0.1615144,-0.433594 0.375,-0.433594 z m 2.6152343,2.195313 H 30.160156 c -1.241228,1.582018 -2.846824,2.814472 -3.992187,3.076172 -0.555503,-1.203439 -1.747643,-2.046875 -3.132813,-2.046875 -1.681156,0 -3.068452,1.219767 -3.388672,2.818359 h -4.830078 c -0.32022,-1.598592 -1.707516,-2.818359 -3.388672,-2.818359 -1.407205,0 -2.6218134,0.867351 -3.1542965,2.101562 C 8.2393941,23.047924 8.209617,23.026505 8.171875,23.019531 7.0244087,22.80284 5.4234668,21.557268 4.1425781,19.931641 Z m 7.2851559,2.384765 c 1.174114,0 2.107422,0.946508 2.107422,2.138672 0,1.192164 -0.933308,2.140625 -2.107422,2.140625 -1.174194,0 -2.1093746,-0.948461 -2.1093746,-2.140625 0,-1.192164 0.9351806,-2.138672 2.1093746,-2.138672 z m 11.607422,0 c 1.174194,0 2.107422,0.946508 2.107422,2.138672 0,1.192164 -0.933228,2.140625 -2.107422,2.140625 -1.174114,0 -2.107422,-0.948461 -2.107422,-2.140625 0,-1.192164 0.933308,-2.138672 2.107422,-2.138672 z" fill="currentColor" />
</symbol><symbol viewBox="0 0 21 21" fill="none" id="eye">
<path d="M10.5 7.87899C10.9597 7.87899 11.4149 7.96953 11.8395 8.14544C12.2642 8.32136 12.6501 8.5792 12.9752 8.90424C13.3002 9.22929 13.5581 9.61517 13.734 10.0399C13.9099 10.4646 14.0004 10.9197 14.0004 11.3794C14.0004 11.8391 13.9099 12.2943 13.734 12.719C13.5581 13.1437 13.3002 13.5296 12.9752 13.8546C12.6501 14.1797 12.2642 14.4375 11.8395 14.6134C11.4149 14.7893 10.9597 14.8799 10.5 14.8799C9.57162 14.8799 8.68126 14.5111 8.02481 13.8546C7.36835 13.1981 6.99955 12.3078 6.99955 11.3794C6.99955 10.4511 7.36835 9.5607 8.02481 8.90424C8.68126 8.24778 9.57162 7.87899 10.5 7.87899ZM10.5 9.19149C9.91971 9.19149 9.3632 9.422 8.95288 9.83232C8.54257 10.2426 8.31205 10.7991 8.31205 11.3794C8.31205 11.9597 8.54257 12.5162 8.95288 12.9265C9.3632 13.3368 9.91971 13.5674 10.5 13.5674C11.0803 13.5674 11.6368 13.3368 12.0471 12.9265C12.4574 12.5162 12.6879 11.9597 12.6879 11.3794C12.6879 10.7991 12.4574 10.2426 12.0471 9.83232C11.6368 9.422 11.0803 9.19149 10.5 9.19149ZM10.5 4.81299C14.5372 4.81299 18.0206 7.56924 18.9879 11.4319C19.0111 11.5163 19.0171 11.6044 19.0057 11.6911C18.9943 11.7778 18.9656 11.8614 18.9215 11.9369C18.8773 12.0123 18.8185 12.0782 18.7485 12.1307C18.6785 12.1831 18.5988 12.221 18.5139 12.2422C18.429 12.2634 18.3408 12.2674 18.2544 12.254C18.168 12.2405 18.0851 12.21 18.0106 12.1641C17.9362 12.1182 17.8717 12.0579 17.8209 11.9867C17.7701 11.9155 17.734 11.8349 17.7148 11.7495C17.3087 10.1434 16.3782 8.71871 15.0709 7.70115C13.7635 6.68359 12.154 6.13138 10.4973 6.13198C8.8406 6.13258 7.23148 6.68597 5.92485 7.70448C4.61823 8.72298 3.68882 10.1484 3.28386 11.7548C3.24057 11.9225 3.1327 12.0664 2.98379 12.1549C2.83488 12.2434 2.65701 12.2695 2.48897 12.2274C2.32092 12.1853 2.17634 12.0784 2.08675 11.9302C1.99717 11.7819 1.96984 11.6042 2.01074 11.4359C2.48546 9.54384 3.57859 7.8646 5.11659 6.66474C6.65459 5.46487 8.54932 4.81313 10.5 4.81299Z" fill="currentColor" />
</symbol><symbol fill="none" viewBox="0 0 24 24" id="footer-arrow">
  <path fill="currentColor" d="m 12,12.75025 3.5002,-3.5002 0.9998,0.9999 -4.5,4.5 -4.5,-4.5 1.00055,-0.9999 3.50015,3.5002 z" />
</symbol><symbol fill="none" viewBox="0 0 24 24" id="heart">
  <path d="m 12,4.46001 c -2.312,-2.07 -4.901,-2.36 -7,-1.401 -2.214,1.015 -3.75,3.367 -3.75,6.079 0,2.66499 1.11,4.69899 2.567,6.33899 1.166,1.313 2.593,2.412 3.854,3.382 0.286,0.22 0.563,0.434 0.826,0.642 0.513,0.404 1.063,0.834 1.62,1.16 0.557,0.325 1.193,0.59 1.883,0.59 0.69,0 1.326,-0.265 1.883,-0.59 0.558,-0.326 1.107,-0.756 1.62,-1.16 0.2739,-0.2158 0.5492,-0.4298 0.826,-0.642 1.26,-0.97 2.688,-2.07 3.854,-3.382 1.457,-1.64 2.567,-3.674 2.567,-6.33899 0,-2.712 -1.535,-5.064 -3.75,-6.077 -2.099,-0.96 -4.688,-0.67 -7,1.399 z" fill="currentColor" />
</symbol><symbol viewBox="0 0 24 24" fill="none" id="heart-outline">
<path fill-rule="evenodd" clip-rule="evenodd" d="M5.624 4.42401C3.965 5.18201 2.75 6.98601 2.75 9.13701C2.75 11.334 3.65 13.028 4.938 14.48C6.001 15.676 7.287 16.668 8.541 17.634C8.839 17.864 9.135 18.093 9.426 18.322C9.952 18.737 10.421 19.1 10.874 19.365C11.326 19.629 11.69 19.75 12 19.75C12.31 19.75 12.674 19.63 13.126 19.365C13.579 19.1 14.048 18.737 14.574 18.322C14.864 18.092 15.161 17.864 15.459 17.634C16.713 16.668 17.999 15.676 19.062 14.48C20.351 13.028 21.25 11.334 21.25 9.13701C21.25 6.98701 20.035 5.18201 18.376 4.42401C16.764 3.68701 14.598 3.88201 12.54 6.02101C12.47 6.09359 12.3862 6.15133 12.2934 6.19077C12.2006 6.2302 12.1008 6.25053 12 6.25053C11.8992 6.25053 11.7994 6.2302 11.7066 6.19077C11.6138 6.15133 11.53 6.09359 11.46 6.02101C9.402 3.88201 7.236 3.68701 5.624 4.42401ZM12 4.46001C9.688 2.39001 7.099 2.10001 5 3.05901C2.786 4.07401 1.25 6.42601 1.25 9.13801C1.25 11.803 2.36 13.837 3.817 15.477C4.983 16.79 6.41 17.889 7.671 18.859C7.957 19.079 8.234 19.293 8.497 19.501C9.01 19.905 9.56 20.335 10.117 20.661C10.674 20.986 11.31 21.251 12 21.251C12.69 21.251 13.326 20.986 13.883 20.661C14.441 20.335 14.99 19.905 15.503 19.501C15.7769 19.2852 16.0522 19.0712 16.329 18.859C17.589 17.889 19.017 16.789 20.183 15.477C21.64 13.837 22.75 11.803 22.75 9.13801C22.75 6.42601 21.215 4.07401 19 3.06101C16.901 2.10101 14.312 2.39101 12 4.46001Z" fill="currentColor" />
</symbol><symbol viewBox="0 0 31 31" fill="none" id="instagram">
  <path d="M16.5296 3.03867C17.4555 3.03512 18.3813 3.04442 19.3069 3.06658L19.553 3.07546C19.8372 3.08561 20.1176 3.0983 20.4564 3.11353C21.8063 3.17696 22.7275 3.39011 23.5357 3.7035C24.373 4.02576 25.0785 4.46221 25.7839 5.16763C26.4289 5.80151 26.9281 6.56827 27.2467 7.41459C27.5601 8.22278 27.7733 9.14516 27.8367 10.4951C27.8519 10.8326 27.8646 11.1143 27.8748 11.3985L27.8824 11.6446C27.9049 12.5698 27.9147 13.4952 27.9116 14.4206L27.9128 15.3671V17.0292C27.916 17.955 27.9062 18.8809 27.8837 19.8065L27.8761 20.0526C27.8659 20.3368 27.8532 20.6172 27.838 20.956C27.7745 22.3059 27.5589 23.227 27.2467 24.0352C26.9291 24.8824 26.4298 25.6498 25.7839 26.2834C25.1495 26.9284 24.3823 27.4275 23.5357 27.7463C22.7275 28.0597 21.8063 28.2728 20.4564 28.3363C20.1176 28.3515 19.8372 28.3642 19.553 28.3743L19.3069 28.382C18.3813 28.4045 17.4555 28.4142 16.5296 28.4111L15.5831 28.4124H13.9223C12.9965 28.4155 12.0706 28.4058 11.145 28.3832L10.8989 28.3756C10.5977 28.3647 10.2966 28.352 9.99555 28.3375C8.6456 28.2741 7.72449 28.0584 6.91503 27.7463C6.06837 27.4283 5.30148 26.929 4.66807 26.2834C4.02234 25.6494 3.52268 24.8822 3.20394 24.0352C2.89055 23.227 2.6774 22.3059 2.61397 20.956C2.59984 20.6549 2.58715 20.3538 2.5759 20.0526L2.56956 19.8065C2.54617 18.8809 2.5356 17.955 2.53784 17.0292V14.4206C2.5343 13.4952 2.54361 12.5698 2.56575 11.6446L2.57464 11.3985C2.58479 11.1143 2.59747 10.8326 2.6127 10.4951C2.67614 9.14389 2.88929 8.22405 3.20267 7.41459C3.5216 6.56785 4.02223 5.8013 4.66934 5.1689C5.30231 4.52279 6.06872 4.02268 6.91503 3.7035C7.72449 3.39011 8.64434 3.17696 9.99555 3.11353L10.8989 3.07546L11.145 3.06912C12.0702 3.04574 12.9956 3.03517 13.9211 3.0374L16.5296 3.03867ZM15.2253 9.38242C14.3848 9.37053 13.5503 9.52582 12.7703 9.83926C11.9903 10.1527 11.2803 10.618 10.6818 11.2082C10.0832 11.7984 9.60782 12.5017 9.28339 13.2772C8.95895 14.0527 8.79188 14.8849 8.79188 15.7255C8.79188 16.5662 8.95895 17.3984 9.28339 18.1739C9.60782 18.9494 10.0832 19.6527 10.6818 20.2429C11.2803 20.833 11.9903 21.2984 12.7703 21.6118C13.5503 21.9253 14.3848 22.0805 15.2253 22.0687C16.9078 22.0687 18.5214 21.4003 19.7111 20.2106C20.9007 19.0209 21.5691 17.4074 21.5691 15.7249C21.5691 14.0424 20.9007 12.4289 19.7111 11.2392C18.5214 10.0495 16.9078 9.38242 15.2253 9.38242ZM15.2253 11.9199C15.7309 11.9106 16.2333 12.0021 16.7032 12.1892C17.173 12.3762 17.6009 12.655 17.9618 13.0092C18.3226 13.3634 18.6093 13.786 18.805 14.2523C19.0008 14.7186 19.1016 15.2192 19.1017 15.7249C19.1018 16.2306 19.0011 16.7312 18.8055 17.1976C18.61 17.6639 18.3234 18.0866 17.9627 18.441C17.6019 18.7953 17.1741 19.0742 16.7044 19.2614C16.2346 19.4486 15.7322 19.5403 15.2266 19.5312C14.2171 19.5312 13.249 19.1301 12.5352 18.4163C11.8214 17.7025 11.4204 16.7344 11.4204 15.7249C11.4204 14.7154 11.8214 13.7473 12.5352 13.0335C13.249 12.3197 14.2171 11.9187 15.2266 11.9187L15.2253 11.9199ZM21.8863 7.4793C21.477 7.49568 21.0899 7.6698 20.8061 7.96519C20.5223 8.26058 20.3638 8.65433 20.3638 9.06396C20.3638 9.4736 20.5223 9.86735 20.8061 10.1627C21.0899 10.4581 21.477 10.6323 21.8863 10.6486C22.3069 10.6486 22.7103 10.4815 23.0077 10.1841C23.3051 9.8867 23.4722 9.48331 23.4722 9.0627C23.4722 8.64208 23.3051 8.23869 23.0077 7.94127C22.7103 7.64385 22.3069 7.47676 21.8863 7.47676V7.4793Z" fill="currentColor" />
</symbol><symbol fill="none" viewBox="0 0 214 58" id="logo">
  <path d="M 85.847656 -0.013671875 C 85.251594 -0.042747903 84.641672 0.11611776 84.263672 0.23242188 C 83.507672 0.46503087 81.297306 1.3957994 81.878906 2.8496094 C 82.518506 4.3034094 84.436788 3.8953512 85.367188 3.4882812 C 86.297588 3.1393712 87.985303 2.1523939 87.345703 0.87304688 C 87.025853 0.23337288 86.443719 0.015404153 85.847656 -0.013671875 z M 192.84766 -0.013671875 C 192.25153 -0.042747903 191.63972 0.11611776 191.26172 0.23242188 C 190.50572 0.46503087 188.23891 1.3957994 188.87891 2.8496094 C 189.45991 4.3034094 191.37819 3.8953512 192.36719 3.4882812 C 193.29819 3.1393712 194.98375 2.1523939 194.34375 0.87304688 C 194.02425 0.23337288 193.44378 0.015404153 192.84766 -0.013671875 z M 47.976562 2.09375 C 47.918363 2.09375 47.859375 2.1523437 47.859375 2.1523438 C 47.917475 2.1523438 47.918363 2.1519 47.976562 2.09375 z M 29.037109 8.4941406 C 24.747241 8.5503709 20.439922 11.084816 17.677734 15.119141 L 17.677734 15.177734 C 16.107534 11.630434 13.492159 9.1297163 9.8867188 8.7226562 C 6.0486787 8.2574362 1.7443819 10.816334 0.23242188 15.177734 C -0.93062113 18.434234 4.6531106 18.084978 5.5253906 15.642578 C 5.6416906 15.293678 5.6408806 15.293897 5.9316406 14.654297 C 6.6876206 13.025997 8.0843075 13.026494 8.8984375 13.433594 C 10.701168 14.305794 11.921734 16.281994 12.677734 18.433594 C 13.259234 20.061894 13.608703 21.864775 13.783203 23.609375 C 13.725003 23.783775 13.665622 23.899819 13.607422 24.074219 C 13.142222 25.644319 12.328263 28.087037 12.851562 29.773438 C 13.491262 32.041438 16.573722 31.226881 17.794922 30.238281 C 18.783422 29.424181 19.249428 28.204194 19.423828 26.808594 C 19.598328 25.529194 19.597263 24.190522 19.539062 22.794922 C 20.236863 20.468822 21.226459 18.376525 22.505859 16.515625 C 22.854759 15.992325 24.830644 13.200956 27.214844 12.910156 C 29.599044 12.619356 31.460125 14.247334 32.390625 15.177734 C 34.774825 17.503834 36.171203 21.632603 36.345703 25.470703 C 36.403903 26.866303 38.497412 26.807313 39.195312 26.632812 C 40.358312 26.342012 41.520634 25.6456 41.927734 24.25 C 41.753334 24.8315 42.625216 22.330612 42.916016 21.632812 C 43.962716 19.306712 47.220453 13.665091 51.814453 13.025391 C 53.733453 12.734591 56.174434 14.480184 57.802734 17.271484 C 59.547234 20.237284 60.478903 25.470241 63.095703 28.494141 C 67.631603 33.378941 75.481284 32.623791 79.958984 28.087891 C 80.889484 27.157491 81.70405 26.051772 82.34375 24.888672 C 82.46005 25.179472 82.634094 25.471019 82.808594 25.761719 C 87.111894 33.030719 96.650044 32.740128 102.46484 28.611328 C 104.20984 27.390128 105.77841 25.703763 106.94141 23.726562 C 107.58141 22.214562 106.12767 21.284269 105.13867 21.167969 C 104.09267 21.051669 102.98783 21.458944 102.17383 22.214844 C 101.99883 22.389344 100.25417 24.307744 99.730469 24.714844 C 97.753269 26.343044 95.718716 26.923828 93.916016 26.923828 C 91.473616 26.923828 89.088959 25.179794 87.693359 22.621094 C 86.588459 20.702094 86.182212 18.201 86.007812 15.875 L 86.007812 15.527344 L 86.007812 15.351562 L 86.007812 14.595703 C 86.007812 14.130503 86.008306 13.723406 86.066406 13.316406 C 86.066406 12.909306 86.123541 12.444209 86.181641 12.037109 C 86.414241 10.467009 84.612041 10.117681 83.681641 10.175781 C 82.402241 10.292081 80.948016 11.107634 80.541016 12.677734 C 80.017616 14.945634 79.551809 17.271162 78.912109 19.539062 C 78.214309 21.865163 75.888384 26.576347 73.271484 27.623047 C 70.654684 28.669747 68.212144 26.225678 67.339844 24.830078 C 66.874644 24.074078 65.827909 21.865375 65.537109 21.109375 C 64.025109 17.329575 62.97965 12.967691 59.78125 10.525391 C 54.37315 6.3965406 46.870278 9.1872 42.392578 13.78125 C 41.578478 14.59535 40.8228 15.527025 40.125 16.515625 C 39.1946 14.480325 37.916197 12.61875 36.404297 11.28125 C 34.179947 9.3186275 31.61103 8.4604025 29.037109 8.4941406 z M 135.97852 8.4941406 C 131.68877 8.5503709 127.38164 11.084816 124.61914 15.119141 L 124.61914 15.177734 C 123.04914 11.630434 120.43312 9.1297163 116.82812 8.7226562 C 112.99013 8.2574362 108.68583 10.816334 107.17383 15.177734 C 106.01083 18.434234 111.5948 18.084978 112.4668 15.642578 C 112.5828 15.293678 112.58205 15.293897 112.87305 14.654297 C 113.62905 13.025997 115.02584 13.026494 115.83984 13.433594 C 117.64284 14.305794 118.86314 16.281994 119.61914 18.433594 C 120.20014 20.061894 120.54961 21.864775 120.72461 23.609375 C 120.66661 23.783775 120.60683 23.899819 120.54883 24.074219 C 120.08383 25.644319 119.26997 28.087038 119.79297 29.773438 C 120.43297 32.041438 123.51533 31.226881 124.73633 30.238281 C 125.72533 29.424181 126.19023 28.204194 126.36523 26.808594 C 126.53923 25.529194 126.53847 24.190522 126.48047 22.794922 C 127.17847 20.468822 128.16727 18.376525 129.44727 16.515625 C 129.79627 15.992325 131.77225 13.200956 134.15625 12.910156 C 136.54025 12.619356 138.40203 14.247334 139.33203 15.177734 C 141.71703 17.503834 143.11211 21.632603 143.28711 25.470703 C 143.34511 26.866303 145.43872 26.807313 146.13672 26.632812 C 147.29972 26.342012 148.46214 25.6456 148.86914 24.25 C 148.69514 24.8315 149.56642 22.330613 149.85742 21.632812 C 150.90442 19.306712 154.16186 13.665091 158.75586 13.025391 C 160.67486 12.734591 163.11614 14.480184 164.74414 17.271484 C 166.48914 20.237284 167.42011 25.470241 170.03711 28.494141 C 174.57311 33.378941 182.42239 32.623791 186.90039 28.087891 C 187.83039 27.157491 188.64616 26.051772 189.28516 24.888672 C 189.40116 25.179472 189.576 25.471019 189.75 25.761719 C 194.054 33.030719 203.59125 32.740128 209.40625 28.611328 C 211.15025 27.390128 212.72077 25.703763 213.88477 23.726562 C 214.58177 22.214562 213.06867 21.284269 212.13867 21.167969 C 211.09167 21.051669 209.98783 21.458944 209.17383 22.214844 C 208.99983 22.389344 207.25347 24.307744 206.73047 24.714844 C 204.75347 26.343044 202.71802 26.923828 200.91602 26.923828 C 198.47302 26.923828 196.08936 25.179794 194.69336 22.621094 C 193.58836 20.702094 193.18181 18.201 193.00781 15.875 L 193.00781 15.527344 L 193.00781 15.351562 L 193.00781 14.595703 C 193.00781 14.130503 193.00645 13.723406 193.06445 13.316406 C 193.06445 12.909306 193.12364 12.444209 193.18164 12.037109 C 193.41464 10.467009 191.61164 10.117681 190.68164 10.175781 C 189.40164 10.292081 187.94802 11.107634 187.54102 12.677734 C 187.01702 14.945634 186.55211 17.271162 185.91211 19.539062 C 185.21511 21.865163 182.88789 26.576347 180.21289 27.623047 C 177.53789 28.669747 175.15325 26.225678 174.28125 24.830078 C 173.81625 24.074078 172.76952 21.865375 172.47852 21.109375 C 170.96652 17.329575 169.92166 12.967691 166.72266 10.525391 C 161.31466 6.3965406 153.81294 9.1872 149.33594 13.78125 C 148.52094 14.59535 147.76441 15.527025 147.06641 16.515625 C 146.13541 14.480325 144.8577 12.61875 143.3457 11.28125 C 141.1212 9.3186275 138.55236 8.4604025 135.97852 8.4941406 z M 149.04492 47.859375 C 147.24292 47.859375 146.66016 48.848262 146.66016 50.476562 L 146.66016 53.441406 C 146.66016 55.069706 147.24292 56.058594 149.04492 56.058594 C 150.84792 56.058594 151.42969 55.069706 151.42969 53.441406 L 151.42969 50.476562 C 151.42969 48.790162 150.84792 47.859375 149.04492 47.859375 z M 175.44531 47.859375 C 173.64231 47.859375 173.0625 48.848262 173.0625 50.476562 L 173.0625 53.441406 C 173.0625 55.069706 173.64231 56.058594 175.44531 56.058594 C 177.24731 56.058594 177.83008 55.069706 177.83008 53.441406 L 177.83008 50.476562 C 177.83008 48.790162 177.24731 47.859375 175.44531 47.859375 z M 75.888672 47.917969 C 74.551172 47.917969 73.677734 48.673153 73.677734 50.126953 L 73.677734 50.591797 L 75.306641 50.591797 L 75.306641 50.185547 C 75.306641 49.662147 75.423472 49.253906 75.888672 49.253906 C 76.353872 49.253906 76.527344 49.545847 76.527344 50.185547 C 76.527344 50.999647 76.353656 51.40625 75.597656 51.40625 L 75.191406 51.40625 L 75.191406 52.453125 L 75.65625 52.453125 C 76.41225 52.453125 76.585938 52.859728 76.585938 53.673828 C 76.585938 54.371628 76.5277 54.720703 76.0625 54.720703 C 75.5972 54.720703 75.480469 54.371234 75.480469 53.615234 L 75.480469 53.326172 L 73.853516 53.326172 L 73.853516 53.615234 C 73.853516 55.069134 74.377066 56.058594 75.947266 56.058594 C 77.517366 56.058594 78.097656 55.069134 78.097656 53.615234 C 78.097656 52.510434 77.632775 52.0451 77.109375 51.8125 C 77.690875 51.6962 78.097656 50.998759 78.097656 50.068359 C 78.097656 48.672659 77.226172 47.917969 75.888672 47.917969 z M 30.820312 47.976562 C 29.017512 47.976562 28.435547 48.963597 28.435547 50.591797 L 28.435547 53.441406 C 28.435547 55.011506 29.075713 56.117188 30.820312 56.117188 C 32.564813 56.117187 33.087891 55.128516 33.087891 53.791016 L 33.087891 53.09375 L 31.402344 53.09375 L 31.402344 53.90625 C 31.402344 54.42965 31.343612 54.896484 30.820312 54.896484 C 30.296912 54.896484 30.238281 54.42965 30.238281 53.90625 L 30.238281 50.185547 C 30.238281 49.720347 30.238712 49.197266 30.820312 49.197266 C 31.401812 49.197266 31.402344 49.661753 31.402344 50.126953 L 31.402344 50.941406 L 33.087891 50.941406 L 33.087891 50.244141 C 33.087891 48.906641 32.623013 47.976562 30.820312 47.976562 z M 70.65625 47.976562 L 70.074219 51.232422 L 69.841797 53.382812 L 69.550781 51.291016 L 68.853516 48.033203 L 67.224609 48.033203 L 69.027344 55.128906 C 69.259944 56.117506 68.679119 56.407809 67.574219 56.349609 L 67.515625 57.455078 C 69.667225 57.513178 70.24915 57.164028 70.65625 55.361328 L 72.283203 47.976562 L 70.65625 47.976562 z M 96.125 47.976562 C 94.3222 47.976562 93.740234 48.963597 93.740234 50.591797 L 93.740234 53.441406 C 93.740234 55.011506 94.3804 56.117188 96.125 56.117188 C 97.8695 56.117187 98.392578 55.128516 98.392578 53.791016 L 98.392578 53.09375 L 96.707031 53.09375 L 96.707031 53.90625 C 96.707031 54.42965 96.6483 54.896484 96.125 54.896484 C 95.6016 54.896484 95.542969 54.42965 95.542969 53.90625 L 95.542969 50.185547 C 95.542969 49.720347 95.5434 49.197266 96.125 49.197266 C 96.7065 49.197266 96.707031 49.661753 96.707031 50.126953 L 96.707031 50.941406 L 98.392578 50.941406 L 98.392578 50.244141 C 98.392578 48.906641 97.9277 47.976562 96.125 47.976562 z M 137.29688 47.976562 C 135.49487 47.976562 134.91211 48.963597 134.91211 50.591797 L 134.91211 53.441406 C 134.91211 55.011506 135.49428 56.117188 137.23828 56.117188 C 138.98328 56.117187 139.50781 55.128516 139.50781 53.791016 L 139.50781 53.09375 L 137.82031 53.09375 L 137.82031 53.90625 C 137.82031 54.42965 137.76228 54.896484 137.23828 54.896484 C 136.71528 54.896484 136.6582 54.42965 136.6582 53.90625 L 136.6582 50.185547 C 136.6582 49.720347 136.65728 49.197266 137.23828 49.197266 C 137.82028 49.197266 137.82031 49.661753 137.82031 50.126953 L 137.82031 50.941406 L 139.56445 50.941406 L 139.56445 50.244141 C 139.56445 48.906641 139.09987 47.976562 137.29688 47.976562 z M 35.007812 48.033203 L 35.007812 55.943359 L 38.554688 55.943359 L 38.554688 54.779297 L 36.751953 54.779297 L 36.751953 52.394531 L 38.148438 52.394531 L 38.148438 51.173828 L 36.751953 51.173828 L 36.751953 49.197266 L 38.554688 49.197266 L 38.554688 48.033203 L 35.007812 48.033203 z M 39.951172 48.033203 L 39.951172 49.3125 L 41.113281 49.3125 L 41.171875 55.943359 L 42.916016 55.943359 L 42.916016 49.3125 L 44.080078 49.3125 L 44.080078 48.033203 L 39.951172 48.033203 z M 45.707031 48.033203 L 45.707031 55.943359 L 47.685547 55.943359 C 49.081147 55.943359 50.185547 55.592828 50.185547 53.673828 C 50.185547 52.103628 49.313175 51.40625 47.859375 51.40625 L 47.453125 51.40625 L 47.453125 48.033203 L 45.707031 48.033203 z M 55.59375 48.033203 L 55.59375 55.943359 L 57.337891 55.943359 L 57.337891 49.3125 L 59.257812 49.3125 L 59.257812 48.033203 L 55.59375 48.033203 z M 61.119141 48.033203 L 61.119141 56 L 62.863281 56 L 62.863281 52.626953 L 63.560547 52.626953 C 64.839847 52.626953 65.828125 52.162075 65.828125 50.359375 C 65.828125 48.847375 65.132028 48.033203 63.736328 48.033203 L 61.119141 48.033203 z M 80.193359 48.033203 L 80.308594 55.943359 L 81.355469 55.943359 L 83.390625 51.347656 L 83.390625 55.943359 L 84.787109 55.943359 L 84.787109 48.033203 L 83.623047 48.033203 L 81.587891 52.570312 L 81.587891 48.033203 L 80.193359 48.033203 z M 86.9375 48.033203 L 86.9375 55.943359 L 88.681641 55.943359 L 88.681641 52.453125 L 89.902344 52.453125 L 89.902344 55.943359 L 91.648438 55.943359 L 91.648438 48.033203 L 89.902344 48.033203 L 89.902344 51.232422 L 88.681641 51.232422 L 88.681641 48.033203 L 86.9375 48.033203 z M 100.3125 48.033203 L 100.3125 55.943359 L 102.05664 55.943359 L 102.05664 52.511719 L 102.23242 52.511719 L 103.39453 55.943359 L 105.19727 55.943359 L 103.68555 51.755859 L 105.13867 48.033203 L 103.39453 48.033203 L 102.23242 51.173828 L 102.05664 51.173828 L 102.05664 48.033203 L 100.3125 48.033203 z M 106.88477 48.033203 L 107 55.943359 L 108.04688 55.943359 L 110.08203 51.347656 L 110.08203 55.943359 L 111.47852 55.943359 L 111.47852 48.033203 L 110.31445 48.033203 L 108.2793 52.570312 L 108.2793 48.033203 L 106.88477 48.033203 z M 113.16406 48.033203 L 114.61719 51.697266 L 112.99023 55.943359 L 114.44336 55.943359 L 115.31641 53.558594 L 116.30469 55.943359 L 117.93359 55.943359 L 116.42188 52.162109 L 117.81641 48.033203 L 116.36328 48.033203 L 115.66406 50.185547 L 114.79297 48.033203 L 113.16406 48.033203 z M 123.16797 48.033203 L 123.16797 56 L 124.91016 56 L 124.91016 52.626953 L 125.60938 52.626953 C 126.88837 52.626953 127.87695 52.162075 127.87695 50.359375 C 127.87695 48.847375 127.1792 48.033203 125.7832 48.033203 L 123.16797 48.033203 z M 129.62109 48.033203 L 129.67969 55.943359 L 133.22656 55.943359 L 133.22656 54.779297 L 131.42383 54.779297 L 131.42383 52.394531 L 132.81836 52.394531 L 132.81836 51.173828 L 131.42383 51.173828 L 131.42383 49.197266 L 133.16797 49.197266 L 133.16797 48.033203 L 129.62109 48.033203 z M 141.01953 48.033203 L 141.01953 49.3125 L 142.18359 49.3125 L 142.24023 55.943359 L 143.98438 55.943359 L 143.98438 49.3125 L 145.14844 49.3125 L 145.14844 48.033203 L 141.01953 48.033203 z M 153.52148 48.033203 L 153.52148 56 L 155.26758 56 L 155.26758 52.626953 L 156.02344 52.626953 C 157.30244 52.626953 158.29102 52.162075 158.29102 50.359375 C 158.29102 48.847375 157.59327 48.033203 156.19727 48.033203 L 153.52148 48.033203 z M 161.02344 48.033203 L 159.45312 55.943359 L 161.08008 55.943359 L 161.37109 54.255859 L 162.53516 54.255859 L 162.82617 55.943359 L 164.45312 55.943359 L 163 48.033203 L 161.02344 48.033203 z M 166.25781 48.033203 L 166.25781 55.943359 L 168.00195 55.943359 L 168.00195 52.453125 L 169.22461 52.453125 L 169.22461 55.943359 L 170.96875 55.943359 L 170.96875 48.033203 L 169.22461 48.033203 L 169.22461 51.232422 L 168.00195 51.232422 L 168.00195 48.033203 L 166.25781 48.033203 z M 179.86523 48.033203 L 179.80664 55.943359 L 182.24805 55.943359 C 183.76005 55.943359 184.63281 55.245488 184.63281 53.617188 C 184.63281 52.454188 184.16828 51.813566 183.23828 51.697266 C 183.93528 51.580966 184.40039 51.057353 184.40039 50.126953 C 184.40039 48.324253 183.23839 48.033203 181.90039 48.033203 L 179.86523 48.033203 z M 149.10352 49.197266 C 149.62652 49.197266 149.68359 49.661653 149.68359 50.126953 L 149.68359 53.90625 C 149.68359 54.37145 149.62652 54.837891 149.10352 54.837891 C 148.57952 54.837891 148.52148 54.37145 148.52148 53.90625 L 148.52148 50.126953 C 148.52148 49.661653 148.57952 49.197266 149.10352 49.197266 z M 175.44531 49.197266 C 175.96831 49.197266 176.02734 49.661653 176.02734 50.126953 L 176.02734 53.90625 C 176.02734 54.37145 175.96831 54.837891 175.44531 54.837891 C 174.92131 54.837891 174.86328 54.37145 174.86328 53.90625 L 174.86328 50.126953 C 174.86328 49.661653 174.92131 49.197266 175.44531 49.197266 z M 181.66797 49.197266 L 181.95703 49.197266 C 182.59703 49.197266 182.94727 49.487253 182.94727 50.126953 C 182.94727 50.766553 182.77103 51.173828 181.95703 51.173828 L 181.66797 51.173828 L 181.66797 49.197266 z M 62.863281 49.255859 L 63.445312 49.255859 C 64.143112 49.255859 64.201172 49.719281 64.201172 50.300781 C 64.201172 50.998681 64.085013 51.347656 63.445312 51.347656 L 62.863281 51.347656 L 62.863281 49.255859 z M 124.85352 49.255859 L 125.43359 49.255859 C 126.13159 49.255859 126.18945 49.719281 126.18945 50.300781 C 126.18945 50.998681 126.07359 51.347656 125.43359 51.347656 L 124.85352 51.347656 L 124.85352 49.255859 z M 155.26758 49.255859 L 155.84961 49.255859 C 156.54661 49.255859 156.60547 49.719281 156.60547 50.300781 C 156.60547 50.998681 156.48861 51.347656 155.84961 51.347656 L 155.26758 51.347656 L 155.26758 49.255859 z M 162.01172 50.126953 L 162.41992 53.208984 L 161.60547 53.208984 L 162.01172 50.126953 z M 181.66797 52.337891 L 182.01562 52.337891 C 182.77162 52.337891 183.0625 52.686394 183.0625 53.558594 C 183.0625 54.314594 182.77163 54.720703 182.01562 54.720703 L 181.66797 54.720703 L 181.66797 52.337891 z M 47.453125 52.570312 L 47.685547 52.570312 C 48.383347 52.570312 48.556641 53.035688 48.556641 53.617188 C 48.556641 54.431288 48.325247 54.779297 47.685547 54.779297 L 47.453125 54.779297 L 47.453125 52.570312 z " fill="currentColor" />
</symbol><symbol viewBox="0 0 43 25" id="mastercard">
  <path d="m 12.404131,7.44e-6 c -0.169336,0.0115747 -0.338625,0.0224927 -0.508062,0.03291 C 10.60363,0.1118184 9.3531248,0.38279147 8.1458994,0.8421164 6.3377892,1.5302394 4.768992,2.5701069 3.442867,3.9588875 2.1051526,5.3598198 1.1455376,6.9779321 0.56648518,8.8121454 0.10335056,10.279466 -0.07830551,11.781712 0.03074671,13.313072 c 0.21005363,2.949629 1.33580519,5.520199 3.38048989,7.691262 1.6057269,1.704717 3.5566501,2.870852 5.8298626,3.513627 0.9852168,0.278718 1.9916168,0.433344 3.0167428,0.466548 0.05496,0.0017 0.110996,0.0099 0.166058,0.01549 h 0.608884 c 0.165996,-0.0108 0.33208,-0.01997 0.498177,-0.03097 2.660489,-0.176825 5.01827,-1.1122 7.10496,-2.729594 0.02247,-0.01735 0.04288,-0.03712 0.06919,-0.06002 -1.695587,-1.633848 -2.894376,-3.555925 -3.590041,-5.790225 0.03665,-0.0025 0.06198,-0.0058 0.08698,-0.0058 0.294541,-1.98e-4 0.588927,0.0023 0.883672,-0.002 0.06913,-8.92e-4 0.09579,0.02403 0.116637,0.08518 0.491812,1.440272 1.220866,2.753063 2.206214,3.924035 0.324805,0.385763 0.687753,0.739104 1.033915,1.107324 0.01316,0.01388 0.03074,0.02578 0.04349,0.03678 0.188264,-0.181682 0.381826,-0.354716 0.559461,-0.542048 1.251042,-1.318754 2.176789,-2.829476 2.761722,-4.539644 0.01,-0.02934 0.045,-0.07123 0.06919,-0.07163 0.333408,-0.0048 0.665703,-0.0039 1.01217,-0.0039 -0.700117,2.251844 -1.922324,4.176456 -3.643417,5.825071 0.363875,0.255624 0.709424,0.513883 1.071477,0.749187 1.213794,0.789072 2.530969,1.352234 3.945881,1.690026 0.845264,0.201802 1.702081,0.31951 2.57194,0.344586 0.04525,0.0013 0.09116,0.0084 0.136407,0.01355 h 0.589115 c 0.179254,-0.0115 0.358459,-0.02151 0.537714,-0.03291 2.134465,-0.135592 4.109724,-0.757677 5.920799,-1.873935 2.021912,-1.2462 3.568701,-2.921374 4.643727,-5.013936 0.598293,-1.16423 0.992062,-2.393624 1.192067,-3.682049 0.157595,-1.014761 0.187647,-2.033968 0.08896,-3.056758 C 42.718589,9.0105691 41.902471,6.9010735 40.472071,5.0313665 38.72952,2.7534551 36.450037,1.2269685 33.655738,0.45300398 32.69782,0.18774952 31.719472,0.04558875 30.724003,0.0154945 30.682193,0.0141445 30.641263,0.0054093 30.599459,7.4e-6 h -0.628652 c -0.17298,0.010996 -0.347146,0.0222998 -0.519924,0.03291 -1.642246,0.10147202 -3.203525,0.50249621 -4.68524,1.2041191 -0.87897,0.4161138 -1.696075,0.929394 -2.455303,1.5312831 -0.01519,0.011954 -0.02877,0.024263 -0.04942,0.04259 1.706519,1.6351264 2.929664,3.5594581 3.629579,5.8115197 -0.346465,0 -0.68084,0.00153 -1.014147,-0.00388 -0.0251,-3.865e-4 -0.05993,-0.048905 -0.07117,-0.081307 C 24.564691,7.8390949 24.265468,7.1659245 23.903719,6.520057 23.269291,5.3874647 22.471179,4.3787391 21.52156,3.484593 21.51466,3.478033 21.50724,3.473518 21.49388,3.463299 21.47526,3.478157 21.45426,3.491044 21.43655,3.507824 19.957567,4.9149313 18.882912,6.574005 18.220142,8.48885 c -0.03381,0.097809 -0.07616,0.1345343 -0.183851,0.1316401 -0.300817,-0.0083 -0.602351,-0.00388 -0.923209,-0.00388 C 17.81077,6.378836 19.008458,4.4549291 20.711029,2.8167103 20.57388,2.7121516 20.442719,2.610199 20.30972,2.5127767 18.986511,1.5441638 17.533122,0.83715769 15.936828,0.41815166 15.035795,0.18164117 14.119784,0.04558231 13.186968,0.01548806 13.141818,0.01413759 13.097478,0.00540288 13.05254,1e-6 Z M 41.826254,9.5671395 c 0.0092,0 0.01823,0.00447 0.03757,0.00968 -0.371062,1.9491985 -0.740616,3.8971385 -1.112993,5.8541085 h -0.17199 c -0.373289,0 -0.745634,-0.0021 -1.118922,0.002 -0.07096,7.93e-4 -0.104307,-0.02323 -0.128498,-0.08518 -0.03715,-0.09515 -0.08186,-0.186458 -0.11466,-0.259409 -0.22956,0.09208 -0.445162,0.192861 -0.670167,0.265216 -0.661554,0.212607 -1.123392,-0.03822 -1.476741,-0.501393 -0.333207,-0.436909 -0.469527,-0.941007 -0.430963,-1.479015 0.05011,-0.697587 0.297968,-1.334231 0.717614,-1.8991 0.344643,-0.46377 0.82833,-0.672516 1.405571,-0.685302 0.150509,-0.0035 0.302199,-0.0033 0.452709,0 0.274501,0.0059 0.509836,0.103512 0.699821,0.300061 0.07844,0.08108 0.15427,0.165427 0.231297,0.247793 0.01104,-0.0075 0.0207,-0.0157 0.03163,-0.02323 0.06883,-0.352659 0.137377,-0.70607 0.205597,-1.058927 0.04048,-0.208147 0.0797,-0.4161694 0.124544,-0.6233541 0.0055,-0.025661 0.04617,-0.06176 0.07117,-0.061948 0.415698,-0.00367 0.831621,-0.00251 1.24742,-0.00193 z m -13.618826,0.017423 c 0.384725,-0.0191 0.765079,0.037652 1.126829,0.1781011 0.302335,0.1174737 0.543108,0.3137434 0.776919,0.5807654 -0.04048,0.02775 -0.0844,0.05023 -0.118613,0.08324 -0.228547,0.221032 -0.455909,0.44447 -0.682028,0.66788 -0.0327,0.03221 -0.05574,0.04746 -0.106753,0.0213 -1.056604,-0.539792 -2.112317,0.06815 -2.415765,1.026018 -0.108201,0.341954 -0.139478,0.691032 -0.06326,1.045376 0.12146,0.56467 0.56319,0.929314 1.150553,0.95439 0.264683,0.0112 0.5219,-0.02578 0.774942,-0.09873 0.03067,-0.0088 0.06134,-0.01629 0.100818,-0.0271 0.125712,0.375753 0.249393,0.746067 0.37561,1.122811 -0.222272,0.107642 -0.451468,0.180351 -0.689936,0.220692 -0.440799,0.07444 -0.883773,0.113677 -1.326496,0.02517 -0.923909,-0.184854 -1.629338,-0.877881 -1.769321,-1.796499 -0.173689,-1.140344 0.08572,-2.18388 0.881696,-3.054823 0.524101,-0.573492 1.189236,-0.9088466 1.984801,-0.9485826 z m -11.588557,0.046461 c 0.429362,0 0.846395,1.883e-4 1.277073,0 -0.08624,0.4060435 -0.17061,0.8060435 -0.258973,1.2215425 h 0.685983 c -0.05303,0.233619 -0.102524,0.45146 -0.15222,0.669815 -0.01984,0.08752 -0.04301,0.174868 -0.0593,0.26328 -0.01022,0.05511 -0.03684,0.07068 -0.09291,0.06969 -0.18958,-0.0031 -0.379226,0 -0.579232,0 -0.04028,0.204082 -0.07984,0.403382 -0.118612,0.603995 -0.08391,0.435422 -0.167711,0.871002 -0.24909,1.306721 -0.07177,0.383386 0.09173,0.56425 0.488294,0.542047 0.07095,-0.004 0.142415,-0.01078 0.223388,-0.01742 -0.02237,0.256416 -0.06068,0.501935 -0.06128,0.74725 -4.05e-4,0.174248 -0.08656,0.242707 -0.231297,0.290383 -0.314784,0.103775 -0.63577,0.161465 -0.964724,0.09485 -0.581999,-0.11785 -0.904786,-0.560774 -0.826342,-1.157658 0.05091,-0.387548 0.136478,-0.771643 0.213504,-1.155722 0.223994,-1.118142 0.449979,-2.235412 0.676099,-3.352949 0.0081,-0.040311 0.01943,-0.079921 0.02966,-0.1258324 z M 6.1690048,9.8536502 c 0.6256324,0.00308 1.250643,0.00193 1.876073,0.00193 H 8.1636916 C 7.8070636,11.719504 7.4532044,13.57332 7.0981453,15.428992 H 5.7657182 c 0.2471821,-1.287334 0.4931584,-2.570127 0.7393587,-3.852407 -0.00374,-0.0014 -0.00813,-0.0025 -0.011861,-0.0039 -0.015325,0.03013 -0.031511,0.05832 -0.045469,0.08905 -0.5576348,1.224989 -1.1151994,2.45026 -1.6704759,3.676241 -0.032622,0.07176 -0.071855,0.09585 -0.1522209,0.09486 -0.3662639,-0.0049 -0.7325612,-0.002 -1.1090378,-0.002 -0.1127862,-1.31588 -0.2256577,-2.625518 -0.3380491,-3.935649 -0.00787,-1.98e-4 -0.015868,1.98e-4 -0.023723,0 -0.2562308,1.309536 -0.512194,2.618971 -0.769012,3.931778 H 1.1042006 c 0.3664561,-1.85815 0.7311151,-3.711619 1.0971766,-5.5675987 h 2.0559705 c 0.080953,1.1119067 0.1602277,2.2212447 0.2411811,3.3316547 0.00629,0.0016 0.013484,0.0041 0.019769,0.0058 0.015527,-0.03281 0.032313,-0.06572 0.047445,-0.09873 0.4841616,-1.049849 0.9682527,-2.098445 1.4490639,-3.149682 0.034191,-0.074645 0.075805,-0.095244 0.1541977,-0.094858 z m 8.5757692,0.9118008 c 0.226308,0.0074 0.452966,0.03589 0.676098,0.0968 0.07551,0.02042 0.148691,0.046 0.22339,0.06969 0.01498,0.0049 0.02959,0.01263 0.05338,0.02323 -0.09798,0.310534 -0.19531,0.618439 -0.292579,0.927288 -0.410132,-0.08217 -0.815538,-0.09882 -1.221723,-0.06195 -0.137351,0.01229 -0.256118,0.06578 -0.310371,0.199396 -0.05436,0.134304 -0.0049,0.255447 0.08896,0.354267 0.0499,0.05243 0.115423,0.09209 0.179898,0.127768 0.281788,0.156109 0.567769,0.307458 0.850064,0.462676 0.385536,0.212011 0.536004,0.549171 0.512017,0.96794 -0.0332,0.581422 -0.27442,1.041809 -0.834251,1.293171 -0.164578,0.07394 -0.343454,0.134604 -0.5219,0.156806 -0.725625,0.09069 -1.45031,0.07661 -2.164699,-0.09873 -0.01549,-0.0039 -0.02985,-0.008 -0.05931,-0.01743 0.05831,-0.310435 0.116631,-0.62118 0.175944,-0.936967 0.151724,0.02894 0.297833,0.07298 0.444801,0.08131 0.342418,0.01953 0.684961,0.02151 1.027985,0.02904 0.0751,0.0015 0.150061,-0.0071 0.225366,-0.0097 0.180571,-0.0059 0.311299,-0.100465 0.351887,-0.253601 0.04443,-0.167607 -0.01966,-0.341988 -0.17199,-0.423958 -0.318125,-0.171274 -0.631059,-0.355586 -0.962747,-0.497521 -0.388067,-0.165923 -0.575944,-0.450107 -0.581207,-0.845982 -0.0032,-0.221626 0.02994,-0.448328 0.085,-0.664007 0.07784,-0.304389 0.292107,-0.517875 0.565393,-0.673687 0.303449,-0.173059 0.636301,-0.252554 0.98054,-0.280703 0.22703,-0.01863 0.453743,-0.03264 0.680051,-0.02517 z m -4.212763,0.02129 c 0.258812,0.01546 0.511486,0.07126 0.749244,0.178102 0.550317,0.247496 0.785171,0.696388 0.778896,1.264131 -0.0033,0.302505 -0.05965,0.606957 -0.116636,0.905993 -0.140692,0.738324 -0.297079,1.474041 -0.446778,2.210779 -0.0055,0.02775 -0.01481,0.05317 -0.02372,0.08518 -0.386041,0 -0.767749,0.0011 -1.150552,-0.002 -0.0249,-1.99e-4 -0.05665,-0.0256 -0.07315,-0.0484 -0.04535,-0.06235 -0.08542,-0.129937 -0.118615,-0.181974 -0.1657944,0.06284 -0.3194574,0.145248 -0.4843394,0.180038 -0.3298662,0.06918 -0.6660934,0.111154 -1.0022857,0.0271 -0.7264345,-0.181762 -1.0944537,-0.795738 -0.9073945,-1.513842 0.2010169,-0.771627 0.7329615,-1.195815 1.498486,-1.372541 0.4245851,-0.09823 0.8560306,-0.102775 1.2889366,-0.08711 0.05192,0.0017 0.103013,0 0.173966,0 0.0043,-0.105758 0.02128,-0.208292 0.01187,-0.307806 -0.01569,-0.164931 -0.118905,-0.277853 -0.300488,-0.29619 -0.259318,-0.02607 -0.5233314,-0.0453 -0.7828514,-0.02904 -0.4208906,0.02597 -0.8395755,0.08386 -1.2592819,0.127768 -0.012774,0.0014 -0.025892,0.0016 -0.05733,0.0039 0.022986,-0.118049 0.044012,-0.224683 0.065238,-0.331036 0.039495,-0.201803 0.078356,-0.403184 0.1225676,-0.603995 0.00609,-0.02825 0.043071,-0.06618 0.071168,-0.07163 0.6486188,-0.122608 1.3030193,-0.176996 1.9630557,-0.137448 z m 21.652929,0 c 0.379968,0.02379 0.746187,0.111173 1.053684,0.34846 0.403755,0.311624 0.532168,0.747365 0.486316,1.221542 -0.04201,0.436413 -0.137146,0.86896 -0.219435,1.300913 -0.107695,0.56477 -0.224281,1.126346 -0.338048,1.690025 -0.005,0.02508 -0.01274,0.04964 -0.02175,0.08324 -0.387257,0 -0.766529,0.0017 -1.146598,-0.002 -0.02783,-1.99e-4 -0.06481,-0.02778 -0.08304,-0.05227 -0.04636,-0.06175 -0.08468,-0.12883 -0.132453,-0.203267 -0.293124,0.224302 -0.640409,0.24555 -0.98647,0.271023 -0.419443,0.03092 -0.793525,-0.08257 -1.097176,-0.37169 -0.350718,-0.333926 -0.407914,-0.746179 -0.290604,-1.192504 0.200612,-0.763202 0.732004,-1.182263 1.488602,-1.358989 0.434119,-0.101298 0.873888,-0.10709 1.316613,-0.08905 0.148687,0.006 0.149917,0.006 0.168034,-0.137448 0.03766,-0.299235 -0.105989,-0.463513 -0.421077,-0.489779 -0.436449,-0.03647 -0.869971,-0.0059 -1.302775,0.04646 -0.220045,0.02666 -0.439404,0.05451 -0.678074,0.08325 0.02946,-0.149271 0.0559,-0.286979 0.08304,-0.423959 0.03381,-0.170184 0.06342,-0.340142 0.102798,-0.509137 0.0071,-0.03073 0.04526,-0.07179 0.07512,-0.07744 0.641918,-0.122113 1.290135,-0.178086 1.943288,-0.137448 z m -11.869276,0.0039 c 0.335028,-0.01061 0.666929,0.01765 0.986471,0.127768 0.546774,0.188323 0.850162,0.574951 0.942978,1.12862 0.07379,0.442161 0.0102,0.876425 -0.07908,1.320271 H 19.39245 c -0.16306,0.474177 0.107717,0.92861 0.614815,0.979557 0.369037,0.03697 0.74477,0.02435 1.116944,0.01355 0.286849,-0.0083 0.572499,-0.04779 0.863904,-0.07357 0,0.01695 0.0046,0.04089 0,0.06388 -0.05344,0.261174 -0.113015,0.522065 -0.162106,0.784032 -0.01417,0.07493 -0.05005,0.113991 -0.12059,0.127768 -0.243022,0.04738 -0.484023,0.109794 -0.729475,0.137448 -0.423188,0.04748 -0.84983,0.06075 -1.27312,-0.0039 -0.858422,-0.131231 -1.42746,-0.634622 -1.611169,-1.47127 -0.211645,-0.963618 0.05471,-1.816614 0.727496,-2.536007 0.394748,-0.422338 0.923825,-0.580247 1.496511,-0.598187 z m 16.663245,0.01162 c -0.03806,0.132124 -0.0736,0.25345 -0.108729,0.375562 -0.07298,0.253146 -0.147517,0.506963 -0.217458,0.760802 -0.01457,0.05283 -0.03593,0.0749 -0.09291,0.07162 -0.43169,-0.02528 -0.717226,0.190578 -0.919256,0.542047 -0.197069,0.342847 -0.299481,0.714115 -0.367702,1.099582 -0.100605,0.56923 -0.211597,1.137472 -0.318279,1.705512 -0.0041,0.022 -0.01228,0.04268 -0.01977,0.06776 -0.425618,0 -0.849755,-1.98e-4 -1.288937,0 0.293226,-1.542264 0.584516,-3.078095 0.877742,-4.620953 0.36094,1e-6 0.714377,-0.0015 1.067523,0.002 0.02004,1.98e-4 0.05045,0.03285 0.05733,0.05614 0.03695,0.124887 0.06895,0.252132 0.104775,0.389112 0.337964,-0.342946 0.756231,-0.440601 1.225675,-0.449125 z M 23.1703,10.852591 c 0.304562,0.0045 0.608762,0.0033 0.913324,0 0.06721,-6.94e-4 0.09912,0.0161 0.112683,0.08518 0.02257,0.115571 0.05693,0.22924 0.09094,0.360074 0.33857,-0.337097 0.74825,-0.43955 1.203929,-0.443316 -0.0031,0.03142 -0.0038,0.05658 -0.0099,0.07937 -0.09494,0.350478 -0.191095,0.699913 -0.282697,1.051184 -0.0168,0.06482 -0.04688,0.08071 -0.108728,0.07744 -0.406792,-0.02131 -0.694315,0.165928 -0.895534,0.499457 -0.20294,0.336503 -0.309973,0.704977 -0.377587,1.087966 -0.100606,0.569428 -0.209823,1.137174 -0.316304,1.705512 -0.0041,0.022 -0.01248,0.04447 -0.01977,0.07163 h -1.275097 c 0.03047,-0.164931 0.05809,-0.327722 0.08896,-0.489778 0.252637,-1.328567 0.507044,-2.656821 0.757151,-3.985982 0.01417,-0.07583 0.04068,-0.09982 0.118614,-0.09873 z m -2.842775,0.84598 c -0.09477,0.01097 -0.188356,0.03645 -0.278742,0.07357 -0.337154,0.138467 -0.493965,0.413529 -0.585161,0.751123 h 1.583493 c 0.03735,-0.157101 0.03592,-0.30561 -0.0079,-0.452997 -0.06204,-0.208543 -0.204629,-0.32866 -0.423055,-0.363946 -0.09788,-0.01581 -0.193862,-0.01872 -0.288627,-0.0077 z m 18.829922,0.176166 c -0.155064,0.0056 -0.300279,0.05291 -0.423055,0.141319 -0.497887,0.358408 -0.74781,0.839659 -0.707729,1.44804 0.02318,0.351272 0.283464,0.636286 0.60493,0.683367 0.277234,0.04054 0.510884,-0.06337 0.689936,-0.267152 0.285432,-0.324807 0.468597,-0.694603 0.482362,-1.140234 -0.0334,-0.168996 -0.05315,-0.341723 -0.104774,-0.505266 -0.07469,-0.237485 -0.288931,-0.368994 -0.54167,-0.360074 z m -7.450917,1.434489 c -0.155253,-0.0024 -0.308838,0.0174 -0.427009,0.06001 -0.259622,0.09376 -0.462804,0.251835 -0.563414,0.513009 -0.09292,0.241152 0.0081,0.45365 0.26095,0.520753 0.119739,0.03162 0.253947,0.04286 0.37561,0.02323 0.313165,-0.05055 0.575495,-0.195286 0.680052,-0.511073 0.05698,-0.172266 0.07615,-0.356785 0.112683,-0.534303 -0.126521,-0.04485 -0.283617,-0.06921 -0.438872,-0.07163 z m -21.601527,0.0039 c -0.1235484,-0.0098 -0.2459934,-0.0075 -0.3696802,0.0213 -0.3233883,0.07503 -0.575203,0.246464 -0.69389,0.563342 -0.084485,0.225987 0.00934,0.427691 0.2431581,0.495586 0.1241831,0.03608 0.2682503,0.0506 0.3953788,0.03097 0.3202513,-0.04966 0.5834493,-0.196691 0.6859833,-0.522689 0.05344,-0.169787 0.07553,-0.348749 0.112683,-0.530431 -0.125661,-0.02587 -0.250086,-0.04831 -0.373633,-0.05807 z" fill="currentColor" />
</symbol><symbol viewBox="0 0 37 36" fill="none" id="megaphone">
<path d="M27.3496 6.65991H25.3343C23.8154 6.65991 22.5821 7.88991 22.5821 9.40491V10.0799L8.29494 13.1399V12.3749C8.29494 11.7599 7.78361 11.2499 7.167 11.2499C6.55039 11.2499 6.03906 11.7599 6.03906 12.3749V22.8749C6.03906 23.4899 6.55039 23.9999 7.167 23.9999C7.78361 23.9999 8.29494 23.4899 8.29494 22.8749V21.9299L22.5821 24.9899V25.6649C22.5821 27.1799 23.8154 28.4099 25.3343 28.4099H27.3496C28.8685 28.4099 30.1017 27.1799 30.1017 25.6649V9.40491C30.1017 7.88991 28.8685 6.65991 27.3496 6.65991ZM8.29494 19.6199V15.4349L22.5821 12.3749V22.6799L8.29494 19.6199ZM27.8459 25.6649C27.8459 25.9349 27.6203 26.1599 27.3496 26.1599H25.3343C25.0636 26.1599 24.838 25.9349 24.838 25.6649V9.40491C24.838 9.13491 25.0636 8.90991 25.3343 8.90991H27.3496C27.6203 8.90991 27.8459 9.13491 27.8459 9.40491V25.6649ZM19.5292 26.4449C19.2583 27.2935 18.7226 28.0336 18.0002 28.5571C17.2778 29.0806 16.4066 29.3601 15.5137 29.3549C13.1977 29.3549 11.3028 27.4949 11.3028 25.2299C11.3028 25.0649 11.3028 24.8849 11.3328 24.7199C11.408 24.1049 11.9795 23.6699 12.5961 23.7449C13.2127 23.8199 13.6489 24.3749 13.5737 24.9899V25.2149C13.5737 26.2499 14.446 27.0899 15.5288 27.0899C16.386 27.0899 17.138 26.5499 17.3936 25.7549C17.5741 25.1549 18.2208 24.8249 18.8073 25.0199C19.4089 25.1999 19.7247 25.8449 19.5442 26.4299L19.5292 26.4449Z" fill="currentColor" />
</symbol><symbol viewBox="0 0 21 14" fill="none" id="metro">
  <path d="M19.5491 12.0434L14.6316 0L10.4851 7.04136L6.33865 0L1.42114 12.0473H0V13.8576H7.405V12.0473H6.30892L7.37527 9.05566L10.4851 14L13.595 9.05566L14.6614 12.0473H13.5653V13.8576H21V12.0473L19.5491 12.0434Z" fill="currentColor" />
</symbol><symbol viewBox="0 0 43 25" id="mir">
  <path d="M -0.1015625 6.375 L -0.1015625 18.625 L 3.7421875 18.625 L 3.7421875 11.349609 L 4.0625 11.349609 L 6.3066406 18.625 L 8.9765625 18.625 L 11.220703 11.355469 L 11.541016 11.355469 L 11.541016 18.625 L 15.384766 18.625 L 15.384766 6.375 L 11.541016 6.375 L 11.541016 6.3789062 C 11.535616 6.3789062 9.8516438 6.374337 9.4023438 7.984375 C 8.9910837 9.461465 7.8329213 13.538031 7.8007812 13.650391 L 7.4804688 13.650391 C 7.4804688 13.650391 6.2939531 9.4842187 5.8769531 7.9804688 C 5.4276431 6.3695638 3.7402344 6.375 3.7402344 6.375 L -0.1015625 6.375 z M 17.041016 6.375 L 17.041016 18.625 L 20.671875 18.625 C 20.671875 18.625 21.852059 18.519197 22.380859 17.341797 L 25.050781 11.349609 L 25.371094 11.349609 L 25.371094 18.625 L 29.214844 18.625 L 29.214844 6.375 L 25.585938 6.375 C 25.585938 6.375 24.458488 6.4754281 23.929688 7.6582031 L 21.207031 13.650391 L 20.884766 13.650391 L 20.884766 6.375 L 17.041016 6.375 z M 30.386719 6.375 C 30.814019 8.708349 32.560359 10.579363 34.818359 11.189453 C 35.342359 11.331583 35.882981 11.402344 36.425781 11.402344 L 43.015625 11.402344 C 43.074225 11.120674 43.102763 10.834605 43.101562 10.546875 C 43.101562 8.242095 41.238 6.375 38.9375 6.375 L 30.386719 6.375 z M 30.925781 11.939453 L 30.925781 18.625 L 34.769531 18.625 L 34.769531 14.720703 L 38.933594 14.720703 C 40.749894 14.720703 42.287375 13.559193 42.859375 11.939453 L 30.925781 11.939453 z " fill="currentColor" />
</symbol><symbol fill="none" viewBox="0 0 16 16" id="old-phone">
  <path d="M 13.8043,9.8025 C 13.7275,9.2689 13.3155,8.8529 12.7851,8.7289 10.7235,8.2457 10.2067,7.0585 10.1195,5.7417 9.75393,5.6737 9.10353,5.6001 7.99953,5.6001 c -1.104,0 -1.7544,0.0736 -2.12,0.1416 -0.0872,1.3168 -0.604,2.504 -2.6656,2.9872 -0.5304,0.1248 -0.9424,0.54 -1.0192,1.0736 l -0.3976,2.7536 c -0.14,0.9696 0.572,1.844 1.5624,1.844 h 9.27997 c 0.9896,0 1.7024,-0.8744 1.5624,-1.844 z m -5.80477,2.5912 c -1.116,0 -2.0208,-0.896 -2.0208,-2 0,-1.104 0.9048,-2 2.0208,-2 1.116,0 2.02077,0.896 2.02077,2 0,1.104 -0.90557,2 -2.02077,2 z M 15.9595,4.8001 c -0.0192,-1.2 -3.0736,-3.1992 -7.95997,-3.2 -4.8872,8e-4 -7.9415954,2 -7.9599954,3.2 -0.0184,1.2 0.0168001,2.7616 2.0279954,2.5016 2.3528,-0.3048 2.208,-1.1264 2.208,-2.3008 0,-0.8192 1.9136,-1.0168 3.724,-1.0168 1.8104,0 3.72317,0.1976 3.72397,1.0168 0,1.1744 -0.1448,1.996 2.208,2.3008 2.0104,0.26 2.0464,-1.3016 2.028,-2.5016 z" fill="currentColor" />
</symbol><symbol viewBox="0 0 34 33" fill="none" id="percent">
<path d="M10.368 15.125C9.0354 15.125 7.89806 14.6552 6.95602 13.7156C6.01399 12.776 5.54297 11.6417 5.54297 10.3125C5.54297 8.98333 6.01399 7.84896 6.95602 6.90938C7.89806 5.96979 9.0354 5.5 10.368 5.5C11.7007 5.5 12.838 5.96979 13.78 6.90938C14.7221 7.84896 15.1931 8.98333 15.1931 10.3125C15.1931 11.6417 14.7221 12.776 13.78 13.7156C12.838 14.6552 11.7007 15.125 10.368 15.125ZM10.368 12.375C10.9424 12.375 11.4309 12.1743 11.8335 11.7728C12.236 11.3713 12.4368 10.8845 12.4359 10.3125C12.4359 9.73958 12.2346 9.25237 11.8321 8.85087C11.4295 8.44937 10.9415 8.24908 10.368 8.25C9.79362 8.25 9.30514 8.45075 8.90259 8.85225C8.50004 9.25375 8.29923 9.7405 8.30015 10.3125C8.30015 10.8854 8.50142 11.3726 8.90397 11.7741C9.30652 12.1756 9.79454 12.3759 10.368 12.375ZM22.7753 27.5C21.4427 27.5 20.3054 27.0302 19.3633 26.0906C18.4213 25.151 17.9503 24.0167 17.9503 22.6875C17.9503 21.3583 18.4213 20.224 19.3633 19.2844C20.3054 18.3448 21.4427 17.875 22.7753 17.875C24.108 17.875 25.2453 18.3448 26.1874 19.2844C27.1294 20.224 27.6004 21.3583 27.6004 22.6875C27.6004 24.0167 27.1294 25.151 26.1874 26.0906C25.2453 27.0302 24.108 27.5 22.7753 27.5ZM22.7753 24.75C23.3498 24.75 23.8382 24.5492 24.2408 24.1478C24.6433 23.7463 24.8441 23.2595 24.8432 22.6875C24.8432 22.1146 24.642 21.6274 24.2394 21.2259C23.8369 20.8244 23.3488 20.6241 22.7753 20.625C22.2009 20.625 21.7125 20.8257 21.3099 21.2272C20.9074 21.6287 20.7065 22.1155 20.7075 22.6875C20.7075 23.2604 20.9087 23.7476 21.3113 24.1491C21.7138 24.5506 22.2018 24.7509 22.7753 24.75ZM6.50798 26.5375C6.25524 26.2854 6.12887 25.9646 6.12887 25.575C6.12887 25.1854 6.25524 24.8646 6.50798 24.6125L24.7054 6.4625C24.9581 6.21042 25.2798 6.08438 25.6704 6.08438C26.061 6.08438 26.3827 6.21042 26.6354 6.4625C26.8881 6.71458 27.0145 7.03542 27.0145 7.425C27.0145 7.81458 26.8881 8.13542 26.6354 8.3875L8.43801 26.5375C8.18527 26.7896 7.8636 26.9156 7.47299 26.9156C7.08239 26.9156 6.76072 26.7896 6.50798 26.5375Z" fill="currentColor" />
</symbol><symbol viewBox="0 0 39 38" fill="none" id="piggy-bank">
<path d="M16.2328 4.75C14.8133 4.75501 13.4535 5.31962 12.4498 6.32068C11.4462 7.32174 10.8801 8.67804 10.875 10.0938C10.875 11.0437 11.1453 11.9261 11.5823 12.692C9.43799 13.9436 7.75925 15.7201 6.85677 17.8125H6.70795C6.62928 17.8143 6.55107 17.8001 6.47803 17.7709C6.405 17.7417 6.33866 17.6981 6.28302 17.6426C6.22738 17.5871 6.1836 17.5209 6.15431 17.4481C6.12503 17.3752 6.11086 17.2972 6.11265 17.2188C6.11265 17.0098 6.2198 16.8435 6.37339 16.7366L4.99586 14.8069C4.60577 15.0775 4.28705 15.4381 4.06689 15.8581C3.84672 16.278 3.73164 16.7449 3.73145 17.2188C3.73145 18.6794 4.82442 19.8764 6.22456 20.1139C6.16384 20.5295 6.11265 20.9439 6.11265 21.375C6.11265 24.3342 7.689 26.8993 9.9821 28.7969C9.69397 29.9844 9.83804 31.2502 10.7631 32.1741C11.4461 32.8495 12.3689 33.2284 13.3307 33.2284C14.2924 33.2284 15.2152 32.8495 15.8982 32.1741L16.3447 31.7288C17.2745 31.8998 18.2091 32.0625 19.2093 32.0625C20.2094 32.0625 21.144 31.8998 22.0738 31.7288L22.5203 32.1741C23.2033 32.8495 24.1261 33.2284 25.0878 33.2284C26.0496 33.2284 26.9724 32.8495 27.6554 32.1741C28.5614 31.2692 28.6971 30.0402 28.4364 28.8705C29.3912 28.0971 30.2086 27.169 30.8545 26.125H33.4965V16.625H30.7807C30.3484 15.9251 29.8362 15.2775 29.2544 14.6953L29.9247 11.0212V9.5H28.7341C28.7341 9.5 25.8742 9.5475 23.4502 11.3561C22.8137 11.1729 22.1679 11.0239 21.5154 10.9096C21.5631 10.6459 21.5905 10.3716 21.5905 10.0938C21.5905 7.15706 19.1771 4.75 16.2328 4.75ZM16.2328 7.125C17.8877 7.125 19.2093 8.44313 19.2093 10.0938C19.2093 10.298 19.1723 10.4928 19.1342 10.6875C17.2138 10.697 15.4005 11.0675 13.7408 11.6897C13.4247 11.2172 13.2561 10.6618 13.2563 10.0938C13.2563 8.44313 14.5778 7.125 16.2328 7.125ZM27.2458 12.0982C27.2649 12.0935 27.2649 12.1018 27.2827 12.0982L26.8362 14.8058L26.7255 15.4375L27.2458 15.8828C28.0408 16.5695 28.6974 17.4009 29.1805 18.3326L29.5151 19H31.1153V23.75H29.5151L29.1805 24.4186C28.5995 25.5633 27.6828 26.5703 26.5017 27.4229L25.6456 28.0547L26.1671 29.0201C26.4505 29.4975 26.3993 30.0865 25.9802 30.5045C25.8672 30.622 25.7315 30.7155 25.5813 30.7794C25.4312 30.8433 25.2696 30.8763 25.1063 30.8763C24.943 30.8763 24.7814 30.8433 24.6313 30.7794C24.4811 30.7155 24.3454 30.622 24.2324 30.5045L23.3764 29.6495L22.893 29.2054L22.2596 29.3538C21.2928 29.5759 20.2653 29.6875 19.2093 29.6875C18.1827 29.6912 17.1591 29.5793 16.1577 29.3538L15.5267 29.2054L15.0422 29.6507L14.1861 30.5033C14.0731 30.621 13.9373 30.7147 13.787 30.7787C13.6368 30.8427 13.475 30.8757 13.3116 30.8757C13.1482 30.8757 12.9865 30.8427 12.8362 30.7787C12.6859 30.7147 12.5501 30.621 12.4371 30.5033C12.2412 30.3141 12.1159 30.0637 12.0821 29.7938C12.0484 29.5238 12.1081 29.2504 12.2514 29.0189L12.7729 28.0547L11.9168 27.4241C9.76303 25.8638 8.49385 23.7358 8.49385 21.375C8.49385 16.9314 13.1491 13.0625 19.2093 13.0625C20.6737 13.0625 22.0691 13.281 23.3394 13.6931L23.9717 13.9163L24.4931 13.471C25.3432 12.7146 26.3945 12.3072 27.2458 12.0982ZM26.3529 19C25.698 19 25.1623 19.5344 25.1623 20.1875C25.1623 20.8406 25.698 21.375 26.3529 21.375C27.0077 21.375 27.5435 20.8406 27.5435 20.1875C27.5435 19.5344 27.0077 19 26.3529 19Z" fill="currentColor" />
</symbol><symbol viewBox="0 0 39 38" fill="none" id="present">
<path fill-rule="evenodd" clip-rule="evenodd" d="M10.6436 9.73285C10.6435 8.76221 10.9503 7.81514 11.5223 7.02068C12.0943 6.22623 12.9037 5.62302 13.8401 5.29326C14.7764 4.9635 15.7943 4.92323 16.7551 5.17792C17.7158 5.43261 18.5726 5.96988 19.2087 6.71653C19.9944 5.78799 21.1142 5.18716 22.3391 5.03692C23.5641 4.88669 24.8016 5.19841 25.7987 5.90832C26.7957 6.61823 27.4768 7.67269 27.7028 8.85603C27.9287 10.0394 27.6824 11.2621 27.0142 12.2743H28.1463C29.2327 12.2743 30.2747 12.695 31.0429 13.444C31.8111 14.193 32.2427 15.2088 32.2427 16.268V19.1725C32.243 19.728 32.0566 20.2684 31.712 20.7109C31.3674 21.1533 30.8835 21.4735 30.3345 21.6224C30.549 24.2742 30.4239 26.9449 29.9621 29.5706C29.8279 30.3336 29.4429 31.0334 28.8653 31.5646C28.2877 32.0958 27.5486 32.4296 26.7595 32.5157L25.3965 32.6639C21.2836 33.112 17.1324 33.112 13.0195 32.6639L11.658 32.5157C10.8689 32.4296 10.1298 32.0958 9.55219 31.5646C8.97456 31.0334 8.58962 30.3336 8.45537 29.5706C7.99374 26.9465 7.86865 24.2766 8.08297 21.6224C7.53396 21.4735 7.05012 21.1533 6.7055 20.7109C6.36088 20.2684 6.17447 19.728 6.17481 19.1725V16.268C6.17481 15.2088 6.60639 14.193 7.37461 13.444C8.14283 12.695 9.18476 12.2743 10.2712 12.2743H11.4033C10.9054 11.5156 10.6417 10.6335 10.6436 9.73285ZM18.0916 9.73285C18.0916 9.05882 17.8169 8.41239 17.328 7.93578C16.8392 7.45917 16.1761 7.19141 15.4848 7.19141C14.7934 7.19141 14.1304 7.45917 13.6415 7.93578C13.1526 8.41239 12.878 9.05882 12.878 9.73285C12.878 10.4069 13.1526 11.0533 13.6415 11.5299C14.1304 12.0065 14.7934 12.2743 15.4848 12.2743C16.1761 12.2743 16.8392 12.0065 17.328 11.5299C17.8169 11.0533 18.0916 10.4069 18.0916 9.73285ZM22.9327 12.2743C23.2751 12.2743 23.614 12.2086 23.9303 12.0808C24.2466 11.9531 24.5339 11.7659 24.776 11.5299C25.0181 11.2939 25.2101 11.0138 25.3411 10.7054C25.4721 10.3971 25.5395 10.0666 25.5395 9.73285C25.5395 9.3991 25.4721 9.06863 25.3411 8.76028C25.2101 8.45194 25.0181 8.17178 24.776 7.93578C24.5339 7.69979 24.2466 7.51259 23.9303 7.38487C23.614 7.25715 23.2751 7.19141 22.9327 7.19141C22.2414 7.19141 21.5783 7.45917 21.0895 7.93578C20.6006 8.41239 20.3259 9.05882 20.3259 9.73285C20.3259 10.4069 20.6006 11.0533 21.0895 11.5299C21.5783 12.0065 22.2414 12.2743 22.9327 12.2743ZM8.4092 16.268C8.4092 15.2659 9.24337 14.4527 10.2712 14.4527H18.0916V19.5355H8.78159C8.68283 19.5355 8.58811 19.4973 8.51827 19.4292C8.44843 19.3611 8.4092 19.2688 8.4092 19.1725V16.268ZM20.3259 21.7139H28.1001C28.3087 24.2118 28.1955 26.7285 27.7605 29.2017C27.7081 29.4994 27.5579 29.7724 27.3325 29.9797C27.1071 30.1869 26.8186 30.317 26.5107 30.3504L25.1492 30.5C23.5464 30.6743 21.9362 30.7774 20.3259 30.8108V21.7139ZM20.3259 19.5355H29.6359C29.7347 19.5355 29.8294 19.4973 29.8992 19.4292C29.9691 19.3611 30.0083 19.2688 30.0083 19.1725V16.268C30.0083 15.2659 29.1741 14.4527 28.1463 14.4527H20.3259V19.5355ZM18.0916 21.7139V30.8108C16.4798 30.7781 14.8704 30.6744 13.2682 30.5L11.9068 30.3504C11.5991 30.3171 11.3108 30.1871 11.0854 29.9802C10.86 29.7733 10.7097 29.5006 10.657 29.2032C10.2223 26.7305 10.1082 24.2143 10.3174 21.7139H18.0916Z" fill="currentColor" />
</symbol><symbol viewBox="0 0 18 18" fill="none" id="stopwatch">
<path d="M7.68751 0H10.3125C10.4617 0 10.6048 0.0592632 10.7103 0.164752C10.8157 0.270242 10.875 0.413316 10.875 0.5625C10.875 0.711684 10.8157 0.854758 10.7103 0.960248C10.6048 1.06574 10.4617 1.125 10.3125 1.125H9.56251V2.0835C11.115 2.19787 12.5929 2.79471 13.7895 3.7905L14.79 2.79C14.8967 2.69069 15.0377 2.63662 15.1835 2.63913C15.3292 2.64165 15.4683 2.70057 15.5715 2.8035C15.6744 2.9067 15.7334 3.04579 15.7359 3.19153C15.7384 3.33727 15.6843 3.4783 15.585 3.585L14.5988 4.572C15.8259 5.94435 16.5029 7.72154 16.5 9.5625C16.5 13.7048 13.1423 17.0625 9.00001 17.0625C4.85776 17.0625 1.50001 13.7048 1.50001 9.5625C1.49709 7.72154 2.17416 5.94435 3.40126 4.572L2.41501 3.585C2.3157 3.4783 2.26163 3.33727 2.26414 3.19153C2.26666 3.04579 2.32558 2.9067 2.42851 2.8035C2.53171 2.70057 2.6708 2.64165 2.81654 2.63913C2.96227 2.63662 3.10331 2.69069 3.21001 2.79L4.21126 3.7905C5.40772 2.79502 6.8853 2.19822 8.43751 2.0835V1.125H7.68751C7.53832 1.125 7.39525 1.06574 7.28976 0.960248C7.18427 0.854758 7.12501 0.711684 7.12501 0.5625C7.12501 0.413316 7.18427 0.270242 7.28976 0.164752C7.39525 0.0592632 7.53832 0 7.68751 0ZM9.00001 15.9375C9.83724 15.9375 10.6663 15.7725 11.4397 15.4521C12.2132 15.1316 12.916 14.662 13.508 14.0699C14.0999 13.4779 14.5695 12.775 14.8899 12.0015C15.2102 11.228 15.3751 10.399 15.375 9.56175C15.375 8.72452 15.21 7.89551 14.8896 7.12203C14.5691 6.34855 14.0995 5.64576 13.5074 5.05379C12.9154 4.46182 12.2126 3.99225 11.439 3.6719C10.6655 3.35156 9.83648 3.1867 8.99926 3.18675C7.3084 3.18685 5.68684 3.85863 4.4913 5.05432C3.29575 6.25 2.62416 7.87165 2.62426 9.5625C2.62436 11.2534 3.29614 12.8749 4.49183 14.0705C5.68751 15.266 7.30915 15.9376 9.00001 15.9375ZM12.0225 6.54C12.1278 6.64547 12.187 6.78844 12.187 6.9375C12.187 7.08656 12.1278 7.22953 12.0225 7.335L10.2368 9.1215C10.3369 9.40219 10.3386 9.70862 10.2415 9.99039C10.1443 10.2721 9.9542 10.5125 9.70234 10.6718C9.45048 10.8311 9.15189 10.9 8.85568 10.8671C8.55947 10.8342 8.28328 10.7015 8.07254 10.4907C7.8618 10.28 7.72905 10.0038 7.69614 9.70758C7.66323 9.41137 7.73211 9.11278 7.89146 8.86092C8.0508 8.60906 8.29111 8.41893 8.57288 8.3218C8.85464 8.22467 9.16107 8.22633 9.44176 8.3265L11.2268 6.54C11.279 6.48773 11.341 6.44626 11.4093 6.41797C11.4776 6.38968 11.5507 6.37512 11.6246 6.37512C11.6985 6.37512 11.7717 6.38968 11.84 6.41797C11.9082 6.44626 11.9703 6.48773 12.0225 6.54Z" fill="currentColor" />
</symbol><symbol viewBox="0 0 32 31" fill="none" id="telegram">
  <path d="M25.6919 6.12047C26.0055 5.98851 26.3486 5.943 26.6857 5.98867C27.0228 6.03434 27.3415 6.16953 27.6086 6.38016C27.8757 6.5908 28.0815 6.86918 28.2045 7.18632C28.3275 7.50347 28.3633 7.8478 28.3081 8.18346L25.4306 25.6377C25.1514 27.3213 23.3041 28.2868 21.7601 27.4482C20.4685 26.7465 18.5501 25.6656 16.8246 24.5376C15.9619 23.9731 13.3191 22.1651 13.6439 20.8786C13.923 19.7786 18.3636 15.645 20.9011 13.1874C21.8971 12.2219 21.4429 11.6649 20.2668 12.553C17.3448 14.7581 12.6568 18.1114 11.1064 19.0554C9.73867 19.8877 9.02563 20.0298 8.17303 19.8877C6.61755 19.6289 5.17498 19.2279 3.99758 18.7395C2.40657 18.0797 2.48396 15.8924 3.99631 15.2555L25.6919 6.12047Z" fill="currentColor" />
</symbol><symbol viewBox="0 0 43 25" id="visa">
  <path d="M 27.601562 6.3808594 C 27.012462 6.3566564 26.427856 6.3928505 25.847656 6.5078125 C 25.188256 6.6384265 24.561275 6.8540459 23.984375 7.2011719 C 23.418575 7.5415819 22.948434 7.9810675 22.615234 8.5546875 C 22.351034 9.0095375 22.203762 9.5000575 22.164062 10.023438 C 22.139462 10.348727 22.149816 10.670101 22.228516 10.988281 C 22.364216 11.536651 22.670631 11.980555 23.082031 12.359375 C 23.458431 12.705845 23.887731 12.973796 24.332031 13.222656 C 24.744331 13.453766 25.162466 13.676529 25.572266 13.912109 C 25.820666 14.054959 26.052875 14.222449 26.234375 14.449219 C 26.367675 14.615739 26.445441 14.802231 26.431641 15.019531 C 26.414141 15.295361 26.277919 15.508124 26.074219 15.683594 C 25.806919 15.914044 25.485531 16.031999 25.144531 16.099609 C 24.774231 16.173119 24.402344 16.171278 24.027344 16.142578 C 23.535744 16.105098 23.055937 16.009281 22.585938 15.863281 C 22.192238 15.740951 21.812559 15.587839 21.443359 15.386719 C 21.436859 15.402899 21.429734 15.413438 21.427734 15.423828 C 21.250934 16.246928 21.076384 17.070078 20.896484 17.892578 C 20.880984 17.962978 20.906291 17.980553 20.962891 18.001953 C 21.933491 18.370153 22.938809 18.570087 23.974609 18.617188 C 24.614309 18.646187 25.252312 18.610781 25.882812 18.488281 C 26.546612 18.359381 27.178719 18.146881 27.761719 17.800781 C 28.377719 17.435281 28.87835 16.956466 29.21875 16.322266 C 29.44865 15.893966 29.5799 15.436125 29.625 14.953125 C 29.6578 14.602055 29.651072 14.25205 29.576172 13.90625 C 29.449972 13.32394 29.148856 12.842161 28.722656 12.431641 C 28.334556 12.057811 27.884816 11.771509 27.416016 11.511719 C 27.025516 11.295479 26.628381 11.089957 26.238281 10.873047 C 26.003481 10.742437 25.779197 10.596381 25.591797 10.400391 C 25.464997 10.267671 25.367909 10.117907 25.349609 9.9296875 C 25.325509 9.6830575 25.426456 9.4851494 25.597656 9.3183594 C 25.839056 9.0833094 26.141644 8.9672375 26.464844 8.8984375 C 26.867644 8.8125475 27.274041 8.8190119 27.681641 8.8574219 C 28.199141 8.9060919 28.701353 9.0236188 29.189453 9.1992188 C 29.350253 9.2570887 29.508128 9.3238219 29.673828 9.3886719 C 29.854428 8.5585519 30.034344 7.7275055 30.214844 6.8984375 C 30.186644 6.8869935 30.168791 6.8798869 30.150391 6.8730469 C 29.328291 6.5690689 28.475262 6.4167684 27.601562 6.3808594 z M 13.769531 6.5605469 C 13.707031 6.5604149 13.683209 6.5830518 13.662109 6.6367188 C 13.353209 7.4185667 13.043022 8.1994087 12.732422 8.9804688 C 11.993132 10.839719 11.253142 12.699474 10.513672 14.558594 C 10.505342 14.579374 10.495318 14.598751 10.486328 14.619141 C 10.453788 14.529171 10.436582 14.442409 10.419922 14.355469 C 10.275992 13.606109 10.131811 12.856902 9.9882812 12.107422 C 9.8538812 11.405152 9.7221606 10.70227 9.5878906 10 C 9.4528306 9.2934 9.3145806 8.5878594 9.1816406 7.8808594 C 9.1389106 7.6539594 9.0901137 7.4290888 8.9648438 7.2304688 C 8.6800337 6.7790397 8.2541519 6.5686433 7.7324219 6.5664062 C 6.0239819 6.5589093 4.3158689 6.5645851 2.6074219 6.5644531 C 2.5941929 6.5644531 2.58 6.5601131 2.5683594 6.5644531 C 2.556057 6.5690571 2.5389614 6.5797147 2.5371094 6.5898438 C 2.5162086 6.7012538 2.4982259 6.8138055 2.4785156 6.9296875 C 2.4938605 6.9350805 2.499642 6.9381381 2.5058594 6.9394531 C 3.2379176 7.0862471 3.9545806 7.2842306 4.6503906 7.5566406 C 4.9534506 7.6752806 5.2578325 7.785945 5.5390625 7.953125 C 5.8228125 8.121755 6.03015 8.355795 6.125 8.671875 C 6.23307 9.031885 6.3306712 9.3939925 6.4257812 9.7578125 C 7.1747713 12.622393 7.9218888 15.488236 8.6679688 18.353516 C 8.6847688 18.417816 8.7122906 18.433694 8.7753906 18.433594 C 9.7983406 18.431594 10.8208 18.431294 11.84375 18.433594 C 11.90791 18.433894 11.935704 18.411069 11.958984 18.355469 C 13.601434 14.448129 15.245072 10.54202 16.888672 6.6347656 C 16.897572 6.6135876 16.903663 6.590517 16.914062 6.5625 L 16.839844 6.5625 C 15.816844 6.5625 14.792431 6.5630459 13.769531 6.5605469 z M 18.292969 6.5625 C 18.248169 6.562237 18.22515 6.5715058 18.21875 6.6210938 C 18.21025 6.6880457 18.191934 6.7540185 18.177734 6.8203125 C 17.972334 7.7802545 17.765847 8.7391488 17.560547 9.6992188 C 17.359847 10.637989 17.159684 11.576985 16.958984 12.515625 C 16.767484 13.411505 16.576366 14.307235 16.384766 15.203125 C 16.192166 16.103345 15.999041 17.003997 15.806641 17.904297 C 15.769941 18.076697 15.734766 18.248581 15.697266 18.425781 C 15.720866 18.427981 15.737006 18.431641 15.753906 18.431641 C 16.739306 18.431841 17.725537 18.431994 18.710938 18.433594 C 18.759737 18.433594 18.774203 18.413494 18.783203 18.371094 C 18.937303 17.643894 19.093247 16.918606 19.248047 16.191406 C 19.458347 15.203476 19.668406 14.214522 19.878906 13.226562 C 20.096106 12.206513 20.31415 11.186066 20.53125 10.166016 C 20.72335 9.2635456 20.913469 8.3614544 21.105469 7.4589844 C 21.168169 7.1640844 21.231675 6.868319 21.296875 6.5625 L 21.208984 6.5625 L 19.556641 6.5625 C 19.135641 6.5625 18.713969 6.563947 18.292969 6.5625 z M 37.955078 6.5625 C 37.139378 6.56421 36.323413 6.5636631 35.507812 6.5644531 C 35.419813 6.5645841 35.331741 6.5686739 35.244141 6.5761719 C 34.903641 6.6055039 34.619131 6.7468862 34.394531 7.0039062 C 34.218831 7.2048902 34.1022 7.4399938 34 7.6835938 C 32.548 11.149154 31.096831 14.614628 29.644531 18.080078 C 29.597431 18.192478 29.551147 18.304241 29.498047 18.431641 C 29.535947 18.431641 29.556825 18.431741 29.578125 18.431641 C 30.601025 18.431641 31.623584 18.432194 32.646484 18.433594 C 32.700984 18.433794 32.727694 18.418934 32.746094 18.365234 C 32.937394 17.808734 33.131919 17.251513 33.324219 16.695312 C 33.340019 16.649912 33.360009 16.630659 33.412109 16.630859 C 34.686409 16.632359 35.960175 16.632159 37.234375 16.630859 C 37.283775 16.630759 37.3023 16.646812 37.3125 16.695312 C 37.4288 17.251812 37.548762 17.806581 37.664062 18.363281 C 37.675862 18.419781 37.699053 18.433794 37.751953 18.433594 C 38.651353 18.432294 39.549619 18.431841 40.449219 18.431641 C 40.471819 18.431641 40.495738 18.428381 40.523438 18.425781 C 40.482038 18.230581 40.441244 18.043322 40.402344 17.857422 C 40.144844 16.626922 39.887006 15.396526 39.628906 14.166016 C 39.375306 12.956936 39.120987 11.748132 38.867188 10.539062 C 38.593988 9.2380525 38.321181 7.9383928 38.050781 6.6367188 C 38.037681 6.5739767 38.012478 6.562368 37.955078 6.5625 z M 35.849609 9.7773438 C 35.855409 9.7780037 35.861288 9.7785069 35.867188 9.7792969 C 36.185588 11.259067 36.504319 12.740343 36.824219 14.226562 C 35.962919 14.226563 35.110488 14.226432 34.242188 14.226562 C 34.779588 12.739553 35.314609 11.257904 35.849609 9.7773438 z " fill="currentColor" />
</symbol><symbol viewBox="0 0 31 31" id="vk">
  <path fill="currentColor" d="m 29.394303,24.475064 h -3.3075 c -1.2513,0 -1.6283,-1.0136 -3.8715,-3.2582 -1.9604,-1.8893 -2.7883,-2.1242 -3.2842,-2.1242 -0.6859,0 -0.8729,0.1885 -0.8729,1.1324 v 2.9754 c 0,0.8048 -0.261,1.276 -2.3635,1.276 -2.0398,-0.137 -4.0178,-0.7566 -5.7710998,-1.8079 -1.7533,-1.0512 -3.23181,-2.504 -4.31369,-4.2386 -2.56884,-3.1972 -4.35622,-6.9497 -5.21999999,-10.9590604 0,-0.4959 0.1885,-0.9454 1.13389999,-0.9454 h 3.306 c 0.8497,0 1.15565,0.37845 1.48915,1.25276 1.60514,4.7241004 4.3442398,8.8334004 5.4563398,8.8334004 0.4263,0 0.6119,-0.1885 0.6119,-1.2513 v -4.8662 c -0.1406,-2.2200004 -1.3195,-2.4070004 -1.3195,-3.2103104 0.0149,-0.21193 0.1119,-0.4097 0.2703,-0.5513 0.1583,-0.1416 0.3657,-0.21587 0.578,-0.20705 h 5.1968 c 0.7105,0 0.9454,0.3538 0.9454,1.2035 v 6.5684604 c 0,0.7091 0.3045,0.944 0.5191,0.944 0.4263,0 0.754,-0.2349 1.5355,-1.015 1.6753,-2.0431 3.0439,-4.3193004 4.0629,-6.7570104 0.1043,-0.29267 0.3015,-0.5432 0.5614,-0.71337 0.26,-0.17017 0.5685,-0.25064 0.8785,-0.22913 h 3.3074 c 0.9918,0 1.2021,0.4959 0.9918,1.2035 -1.2029,2.6947104 -2.6914,5.2526104 -4.4399,7.6299104 -0.3567,0.5437 -0.4988,0.8265 0,1.4645 0.3277,0.4959 1.4877,1.4645 2.2664,2.3852 1.1339,1.131 2.0749,2.4389 2.7869,3.8715 0.2842,0.9222 -0.19,1.3935 -1.1339,1.3935 z" />
</symbol></defs><use id="arrow-link-usage" xlink:href="#arrow-link" class="sprite-symbol-usage" /><use id="arrow-slider-usage" xlink:href="#arrow-slider" class="sprite-symbol-usage" /><use id="calendar-usage" xlink:href="#calendar" class="sprite-symbol-usage" /><use id="chat-usage" xlink:href="#chat" class="sprite-symbol-usage" /><use id="delivery-usage" xlink:href="#delivery" class="sprite-symbol-usage" /><use id="eye-usage" xlink:href="#eye" class="sprite-symbol-usage" /><use id="footer-arrow-usage" xlink:href="#footer-arrow" class="sprite-symbol-usage" /><use id="heart-usage" xlink:href="#heart" class="sprite-symbol-usage" /><use id="heart-outline-usage" xlink:href="#heart-outline" class="sprite-symbol-usage" /><use id="instagram-usage" xlink:href="#instagram" class="sprite-symbol-usage" /><use id="logo-usage" xlink:href="#logo" class="sprite-symbol-usage" /><use id="mastercard-usage" xlink:href="#mastercard" class="sprite-symbol-usage" /><use id="megaphone-usage" xlink:href="#megaphone" class="sprite-symbol-usage" /><use id="metro-usage" xlink:href="#metro" class="sprite-symbol-usage" /><use id="mir-usage" xlink:href="#mir" class="sprite-symbol-usage" /><use id="old-phone-usage" xlink:href="#old-phone" class="sprite-symbol-usage" /><use id="percent-usage" xlink:href="#percent" class="sprite-symbol-usage" /><use id="piggy-bank-usage" xlink:href="#piggy-bank" class="sprite-symbol-usage" /><use id="present-usage" xlink:href="#present" class="sprite-symbol-usage" /><use id="stopwatch-usage" xlink:href="#stopwatch" class="sprite-symbol-usage" /><use id="telegram-usage" xlink:href="#telegram" class="sprite-symbol-usage" /><use id="visa-usage" xlink:href="#visa" class="sprite-symbol-usage" /><use id="vk-usage" xlink:href="#vk" class="sprite-symbol-usage" /></svg>