<svg width="316" height="447" viewBox="0 0 316 447" fill="none" xmlns="http://www.w3.org/2000/svg">
<path d="M172.469 139.543L183.204 135.128C183.204 135.128 184.919 131.349 183.606 123.131C183.606 123.131 172.061 118.998 176.007 99.7012C179.954 80.4043 187.894 80.8962 187.894 80.8962C187.894 80.8962 191.306 69.3852 189.471 57.7303C189.471 57.7303 184.913 46.8252 193.477 44.036C193.477 44.036 197.555 42.8483 201.1 47.0292C201.1 47.0292 202.989 43.784 207.876 44.2819C212.764 44.7798 212.992 47.4191 212.992 47.4191C212.992 47.4191 217.46 44.8218 220.698 47.551C223.937 50.2863 222.114 55.5289 220.698 58.4022C219.283 61.2754 214.275 69.7332 211.523 79.0787C211.523 79.0787 209.544 85.0531 208.32 90.5656C208.32 90.5656 207.936 109.179 199.936 118.866C199.936 118.866 199.438 129.315 198.215 134.216L203.534 136.861C203.9 137.041 204.086 137.455 203.978 137.845C203.199 140.616 200.158 151.258 197.759 157.112C194.988 163.878 193.981 164.904 190.443 165.174C186.904 165.444 175.588 164.916 172.277 164.496C168.973 164.076 168.709 161.779 169.374 157.184C169.968 153.111 171.593 142.554 171.959 140.196C172.001 139.903 172.193 139.657 172.469 139.543Z" fill="#050710"/>
<path d="M73.5038 177.962C73.5038 177.962 72.2744 178.934 72.3883 180.044C72.5023 181.154 73.3838 182.071 74.9971 181.328C76.2925 180.734 75.7887 179.216 75.3029 178.796C74.8112 178.37 73.9656 178.37 73.5038 177.962Z" fill="black"/>
<path d="M111.316 244.053C114.608 243.315 114.686 245.78 115.082 248.102C115.478 250.423 111.922 250.453 111.922 250.453L112.383 251.449C112.383 251.449 115.598 249.307 117.127 254.148C118.656 258.989 113.211 259.865 113.211 259.865L113.307 260.536C116.911 259.283 117.181 262.534 117.181 262.534C118.039 264.028 116.665 264.933 116.665 264.933C116.665 264.933 118.806 264.016 119.688 268.154C120.57 272.293 117.355 273.973 117.355 273.973C120.264 273.361 121.031 273.973 121.991 276.936C122.794 279.413 118.117 279.689 116.551 279.713H129.613C125.763 279.713 126.153 279.713 125.655 277.332C125.157 274.951 128.744 274.747 128.744 274.747L128.606 274.117C124.552 275.023 124.06 273.997 122.86 271.49C121.793 269.258 126.063 267.651 127.017 267.327C126.801 267.399 126.603 267.459 126.423 267.495C124.648 267.879 124.558 266.643 123.262 264.256C121.793 261.556 124.096 259.607 124.096 259.607C124.096 259.607 122.507 260.015 122.075 258.401C121.643 256.787 122.669 255.972 122.669 255.972C122.117 253.458 124.947 252.631 124.947 252.631L124.666 250.987C124.666 250.987 121.889 252.763 120.57 248.246C119.25 243.729 123.334 243.393 123.334 243.393L122.914 241.03L110.488 240.982L111.316 244.053Z" fill="#050710"/>
<path d="M127.028 267.315C127.088 267.297 127.148 267.279 127.214 267.255C127.214 267.255 127.148 267.273 127.028 267.315Z" fill="#050710"/>
<path d="M116.563 279.707H116.066C116.06 279.707 116.251 279.713 116.563 279.707Z" fill="#050710"/>
<path d="M145.938 265.023C146.021 264.987 146.075 264.957 146.075 264.957C146.075 264.957 146.027 264.981 145.938 265.023Z" fill="#050710"/>
<path d="M127.383 242.595C130.309 242.235 130.088 245.037 130.088 245.037C130.088 245.037 130.579 244.587 131.143 247.256C131.701 249.925 128.87 251.071 128.87 251.071C131.953 250.303 131.899 251.221 132.516 253.548C133.134 255.876 129.836 256.776 129.836 256.776L129.986 257.651C134.184 256.728 135.743 260.716 135.743 262.558C135.743 264.328 131.773 266.211 131.491 266.343C131.911 266.151 137.458 263.68 138.196 268.838C138.963 274.201 135.401 273.517 135.401 273.517C135.401 273.517 137.278 275.281 137.662 277.098C138.046 278.91 134.082 279.713 134.082 279.713H150.802L150.292 278.112C150.292 278.112 149.374 279.102 146.16 279.102C142.945 279.102 145.518 274.693 145.518 274.693C143.191 276.102 142.694 273.199 141.278 270.458C139.989 267.963 145.045 265.455 145.956 265.029C145.59 265.191 144.481 265.605 142.952 265.473C141.068 265.311 141.116 264.705 140.649 262.414C140.181 260.117 144.295 259.505 144.295 259.505L144.085 258.329C144.085 258.329 141.416 259.043 140.253 255.408C139.089 251.773 142.202 251.461 142.202 251.461L142.178 250.309C142.178 250.309 142.022 250.783 140.247 249.961C138.472 249.146 137.662 248.174 137.506 246.488C137.35 244.803 140.223 244.515 140.223 244.515L139.239 240.982L126.915 240.934L127.383 242.595Z" fill="#050710"/>
<path d="M131.485 266.337C131.467 266.343 131.455 266.349 131.455 266.349C131.455 266.349 131.473 266.343 131.485 266.337Z" fill="#050710"/>
<path d="M41.8809 279.707H107.712C107.712 279.707 107.25 278.94 107.634 277.788C108.018 276.636 111.01 276.258 111.01 276.258L111.298 275.796C111.298 275.796 108.953 275.994 107.25 276.024C105.547 276.048 105.841 274.399 105.955 271.1C106.075 267.801 109.367 266.919 109.367 266.919C106.956 266.763 104.887 266.151 105.343 264.316C105.805 262.48 109.295 261.646 109.295 261.646L109.181 260.842C106.285 261.73 104.959 260.261 104.359 257.117C103.766 253.98 107.61 252.751 107.61 252.751C107.61 252.751 104.953 253.14 104.419 251.221C103.886 249.301 107.166 246.656 107.166 246.656L105.979 240.976H59.2067L41.8809 279.707Z" fill="#050710"/>
<path d="M246.798 240.976H230.672C230.672 240.976 234.936 223.382 235.356 217.072C235.775 210.762 233.239 207.091 233.239 207.091C231.673 175.671 237.563 162.547 237.563 162.547C237.563 162.547 243.842 151.671 236.105 143.13C229.215 135.512 218.204 137.275 215.895 137.749C215.619 137.803 215.397 137.983 215.289 138.241C214.521 140.034 211.325 147.73 208.812 157.904C206.593 166.871 205.394 177.764 203.829 188.238C200.236 212.333 202.509 240.808 202.509 240.808H152.637C153.194 191.171 159.347 149.122 160.427 142.116C160.511 141.588 160.085 141.114 159.545 141.138L155.209 141.336C130.021 136.915 134.561 160.753 134.561 160.753C132.426 176.337 114.051 195.784 114.051 195.784C102.518 183.733 95.5735 167.597 93.9482 162.223C92.323 156.848 91.3875 153.921 87.0335 151.719C82.6736 149.518 75.0271 149.014 75.0271 149.014L74.4274 141.234C78.8713 139.063 81.1623 137.743 79.3991 135.776C77.6359 133.808 75.5789 135.38 75.5789 135.38C74.8952 135.086 73.8997 135.242 73.8997 135.242L73.8277 134.468C77.9238 134.204 77.7259 133.214 78.0917 132.081C78.4575 130.947 78.1517 129.309 77.7679 125.788C77.384 122.267 72.7962 124.355 72.7962 124.355L75.0631 123.023C77.8398 122.849 77.8818 122.063 78.5775 120.492C79.2731 118.92 78.6794 116.797 78.3736 113.869C78.0737 110.942 77.7978 110.942 76.0407 110.588C74.2835 110.234 72.0705 109.173 72.0705 109.173C75.5309 108.249 77.1082 106.653 76.0347 102.209C74.9612 97.7637 69.4438 99.0714 69.4438 99.0714L69.3298 98.3576C69.5637 98.2496 70.3853 97.8597 72.9101 96.636C77.438 94.4346 76.3165 90.7876 76.1006 88.4782C75.8847 86.1688 73.8157 86.2048 72.4364 86.6667C71.057 87.1285 67.4767 88.3462 67.4767 88.3462L64.5321 72.0785C64.2982 70.9028 63.1947 70.0391 63.1947 70.0391L61.6834 78.3649L63.7105 89.258C63.7105 89.258 62.8649 89.4919 61.5275 89.8578C57.7373 90.5656 58.5829 92.863 59.2246 98.1476C59.8663 103.432 65.4736 100.331 65.4736 100.331C65.4736 100.331 64.0403 101.543 62.643 102.263C61.2516 102.982 59.9023 103.21 60.0702 106.048C60.412 111.722 66.847 109.827 66.847 109.827C66.847 109.827 66.5891 110.012 64.5441 111.38C62.499 112.742 62.6969 114.079 62.8709 116.299C63.0448 118.518 62.3251 116.839 62.9428 120.546C63.5546 124.259 68.7241 124.954 68.7241 124.954C64.9339 125.188 64.778 125.482 64.3222 130.845C63.8604 136.208 69.7316 134.726 69.7316 134.726L69.8216 135.74C69.8216 135.74 65.8515 136.052 65.5456 137.233C65.2398 138.415 65.7015 140.568 66.4632 141.78C67.2248 142.992 70.3493 141.78 70.3493 141.78L70.9071 149.134C66.847 150.106 67.5367 154.497 67.5367 154.497C64.8619 157.856 66.4572 162.013 66.4572 162.013C64.778 165.3 67.1768 166.967 67.6026 167.231C67.5007 167.201 67.3628 167.315 67.7586 168.623C68.2983 170.41 71.9806 170.356 71.9806 170.356C72.3704 172.96 70.6672 174.699 70.6672 174.699C66.6791 179.504 69.2219 182.503 69.2219 182.503C70.3613 184.177 72.5083 185.688 74.9972 185.466C76.6644 185.316 78.8833 184.519 79.567 181.999C81.2642 175.725 75.5489 174.345 75.5489 174.345C76.5984 173.284 76.1906 170.458 76.1906 170.458C80.4006 170.56 83.3092 168.617 83.3092 168.617C95.5255 206.539 107.862 211.835 107.862 211.835C113.097 219.321 119.34 215.081 119.34 215.081C138.303 203.756 145.296 187.812 145.296 187.812C145.296 187.812 145.296 187.812 147.257 204.541C149.218 221.271 148.157 240.976 148.157 240.976H143.665L144.618 243.633C147.353 242.937 147.089 245.247 147.089 245.247C147.089 245.247 147.599 245.163 148.379 246.302C149.158 247.442 146.112 250.051 146.112 250.051C146.112 250.051 147.461 249.721 149.032 249.523C150.604 249.325 150.957 250.993 151.587 252.895C152.217 254.796 148.139 255.816 148.139 255.816V257.459C148.139 257.459 149.986 257.159 152.205 257.309C154.43 257.459 152.871 261.304 152.871 261.304C152.745 262.654 152.205 263.158 152.205 263.158C154.118 262.846 155.653 264.082 155.659 267.033C155.665 269.984 153.212 271.388 153.212 271.388C153.212 271.388 156.445 271.85 158.016 271.586C159.587 271.322 159.785 274.231 159.635 275.64C159.485 277.05 154.736 277.44 154.736 277.44L155.443 279.701H274.649L246.798 240.976ZM214.839 206.869C213.94 214.343 213.154 215.141 212.596 240.808H209.22C209.22 240.808 206.125 225.5 208.164 213.503C210.204 201.5 214.839 190.679 214.839 190.679C214.839 190.679 215.745 199.395 214.839 206.869Z" fill="#050710"/>
<path d="M111.106 234.455C113.145 230.676 113.535 228.961 111.628 227.395C109.727 225.83 107.256 227.389 104.935 230.682C100.629 236.795 105.157 237.749 105.157 237.749L105.973 240.976H110.488L109.535 237.041C110.003 236.327 111.106 234.455 111.106 234.455Z" fill="#050710"/>
<path d="M143.497 231.924C144.013 229.843 143.431 228.079 142.022 227.545C140.247 226.873 138.742 227.587 137.782 230.544C135.743 236.873 138.19 236.975 138.19 236.975L139.239 240.97H143.647L142.322 236.411C142.322 236.417 142.946 234.162 143.497 231.924Z" fill="#050710"/>
<path d="M127.892 230.862C128.618 227.197 124.462 225.902 123.059 230.083C121.655 234.263 121.937 235.943 121.937 235.943L122.927 241.024L126.915 240.928L125.841 235.805C126.333 235.037 127.161 234.527 127.892 230.862Z" fill="#050710"/>
<path d="M156.307 283.037L161.207 298.596L155.593 292.88L152.019 283.037H134.561L137.494 299.616L131.803 292.88L129.967 283.037H116.492L118.225 300.126L113.127 292.952L112.006 283.037H41.8809V409.273H50.139V311.241H59.6445V382.928H65.7556V311.565H141.05L137.59 346.488C137.542 346.986 137.932 347.423 138.435 347.423H142.478C142.478 347.423 142.867 362.713 140.642 367.272C138.423 371.831 130.837 382.154 126.831 385.801C122.825 389.448 116.63 393.089 115.526 395.669C115.526 395.669 115.16 398.758 118.633 397.126C118.633 397.126 116.9 399.37 119.856 400.905C122.819 402.435 124.132 399.094 124.132 399.094C124.132 399.094 122.969 402.225 125.392 403.197C127.814 404.174 130.063 401.721 130.063 401.721C130.063 401.721 130.069 405.212 133.488 405.458C135.677 405.614 136.792 403.707 137.314 402.309C137.056 403.856 137.272 406.19 140.684 406.73C145.89 407.546 147.113 400.095 147.833 396.418C148.547 392.741 152.301 385.183 153.129 383.72C153.956 382.25 154.772 381.104 154.772 381.104C154.772 381.104 161.501 378.357 161.758 372.023C161.758 372.023 162.856 367.998 158.862 362.096L160.115 347.429H189.591L191.217 363.745C191.217 363.745 187.438 366.81 187.025 372.323C186.617 377.835 190.335 380.271 190.335 380.271C190.335 380.271 192.722 385.243 193.705 392.975C194.683 400.707 190.497 409.687 196.212 410.611C199.769 411.181 200.836 408.211 201.316 406.424C201.316 406.424 202.413 409.249 204.89 408.565C207.367 407.881 207.235 404.888 207.235 404.888C207.235 404.888 208.081 407.492 210.462 406.904C212.842 406.316 212.746 403.257 212.746 403.257C212.746 403.257 214.054 406.664 216.297 405.398C218.54 404.138 217.34 401.823 217.34 401.823C217.34 401.823 218.462 403.659 220.507 403.047C222.546 402.435 222.474 399.981 220.825 396.922C219.181 393.857 216.597 391.704 213.184 383.204C213.184 383.204 209.79 374.152 208.872 368.538C207.955 362.923 210.066 347.423 210.066 347.423H221.172C221.676 347.423 222.072 346.986 222.018 346.488L218.366 311.571H240.441V382.976H246.439V311.565H263.591V409.273H274.637V283.037H156.307ZM143.761 339.775L146.226 311.565H211.601L214.737 340.603C214.791 341.107 214.39 341.551 213.88 341.545L144.595 340.699C144.103 340.693 143.713 340.267 143.761 339.775Z" fill="#050710"/>
</svg>
