<svg width="316" height="447" viewBox="0 0 316 447" fill="none" xmlns="http://www.w3.org/2000/svg">
<path d="M204.411 389.408C201.736 388.261 204.852 390.698 194.155 385.288C183.459 379.877 180.725 378.773 180.693 374.165C180.656 369.556 180.693 349.932 180.693 349.932H199.453C199.883 349.932 200.228 349.571 200.207 349.141L193.741 220.434L189.117 221.177C189.871 248.043 193.338 332.628 193.709 341.676C193.725 342.106 193.385 342.462 192.955 342.456L110.887 342.053C110.436 342.053 110.086 341.649 110.144 341.203L132.365 221.756C130.656 221.549 128.941 221.32 127.227 221.166L99.2671 349.985C99.1981 350.436 99.5484 350.845 100.005 350.851L116.111 351.005L117.523 364.299C116.928 372.874 117.629 369.004 113.074 378.778C108.514 388.553 98.062 399.645 98.062 399.645C92.1007 403.441 91.2832 405.878 92.3714 407.237C93.4543 408.591 95.6255 407.71 95.6255 407.71C95.6255 407.71 93.4543 409.95 95.6255 411.846C97.7913 413.741 100.446 411.002 100.446 411.002C100.446 411.002 99.145 413.2 102.399 414.559C105.653 415.918 107.277 412.117 107.277 412.117C107.277 412.117 105.653 416.184 109.449 417.267C113.244 418.35 114.598 412.929 114.598 412.929C114.598 412.929 113.244 418.892 118.33 419.46C123.42 420.028 125.528 406.924 125.528 406.924C127.646 399.852 134.117 390.151 134.117 390.151C134.117 390.151 139.192 386.727 138.634 381.768C138.077 376.809 136.102 374.212 136.102 374.212L137.408 351.392L159.167 350.649L164.221 381.773C164.221 381.773 160.144 384.46 161.429 391.511C162.713 398.562 166.105 399.379 173.155 399.645C180.205 399.91 188.608 404.795 192.971 409.404C197.335 414.012 201.056 418.493 204.193 416.46C207.331 414.426 203.243 410.216 203.243 410.216C210.027 413.189 209.73 406.112 207.851 405.607C212.459 406.149 210.431 401.354 210.431 401.354C216.259 399.809 211.646 396.932 211.646 396.932C211.646 396.932 214.21 397.075 214.221 394.489C214.21 391.787 210.335 391.951 204.411 389.408Z" fill="black"/>
<path d="M233.767 193.037C225.714 175.016 222.587 167.392 222.12 156.035C222.12 156.035 227.37 140.271 217.013 131.266C206.657 122.267 197.765 124.571 197.765 124.571C197.765 124.571 196.433 154.331 190.344 184.117L183.522 177.172C183.522 177.172 182.275 175.531 182.503 173.052C182.731 170.572 182.36 167.827 182.36 167.827C182.36 167.827 190.954 163.16 192.122 153.917C193.29 144.673 186.516 142.703 182.493 143.324L183.676 123.546L172.922 122.421C172.922 122.421 173.283 113.092 171 103.758C171 103.758 174.764 95.7777 172.189 79.9183C169.524 65.6836 163.626 63.6341 163.626 63.6341C163.626 63.6341 158.323 41.4193 153.179 35.7275C148.036 30.0357 145.36 26.6642 138.603 28.1933C131.845 29.7225 135.279 36.4124 135.279 36.4124C135.279 36.4124 129.392 31.8303 124.928 36.2C120.464 40.5698 124.132 46.527 124.132 46.527C124.132 46.527 112.082 45.8527 115.097 58.7547C115.097 58.7547 117.157 67.1384 128.474 64.696C128.474 64.696 131.144 62.5404 134.749 67.011C138.353 71.4762 139.436 72.9257 139.436 72.9257C139.436 72.9257 136.001 79.2546 138.895 91.9018C141.788 104.554 148.535 110.374 153.381 110.177C153.381 110.177 156.094 116.416 155.897 122.957L142.149 126.424C142.149 126.424 144.702 152.387 146.348 158.191C147.993 163.994 148.025 165.688 150.148 166.659C150.148 166.659 143.205 172.192 141.857 180.825L134.197 184.08C134.197 184.08 133.761 142.209 130.725 128.442C130.725 128.442 119.174 118.322 106.715 124.9C94.256 131.479 98.4974 148.586 98.4974 148.586C98.4974 148.586 94.4418 157.277 88.9794 167.647C82.8057 179.37 75.135 193.228 74.997 199.079C74.997 199.079 74.1901 207.213 78.8934 207.845C78.8934 207.845 78.0016 215.639 89.7438 215.22C101.486 214.806 127.842 204.542 127.842 204.542L127.832 209.889C127.832 209.889 130.767 210.489 133.655 210.027L133.936 201.5C133.936 201.5 152.006 192.835 153.763 191.529C153.763 191.529 163.165 190.016 169.19 185.147C169.19 185.147 173.245 189.793 182.907 204.468C192.563 219.144 208.668 229.63 227.179 229.269C227.179 229.269 236.554 226.179 234.526 214.439C234.526 214.439 241.82 211.057 233.767 193.037ZM100.185 188.975C107.384 177.963 118.664 167.652 118.664 167.652C122.476 173.817 124.939 185.349 124.939 185.349C115.506 190.228 100.185 188.975 100.185 188.975ZM177.397 162.29C175.029 161.626 170.644 154.878 170.989 151.092C171.334 147.306 172.916 146.17 175.178 146.908C177.439 147.646 177.72 150.619 179.695 151.23C181.67 151.835 182.477 147.869 185.938 149.212C189.399 150.556 186.262 156.2 184.791 158.01C183.321 159.821 180.826 163.251 177.397 162.29ZM196.252 189.633C196.252 189.633 197.006 177.215 200.451 168.762C200.451 168.762 210.134 184.998 212.979 201.803C212.979 201.803 201.072 195.362 196.252 189.633Z" fill="black"/>
</svg>
