<svg width="425" height="425" viewBox="0 0 425 425" fill="none" xmlns="http://www.w3.org/2000/svg">
<path d="M377 212.5C377 303.351 303.351 377 212.5 377C121.649 377 48 303.351 48 212.5C48 121.649 121.649 48 212.5 48C303.351 48 377 121.649 377 212.5Z" fill="white"/>
<g clip-path="url(#clip0_136_1498)">
<path d="M120.215 288.428L114.716 281.166L117.325 279.192L120.215 282.999L133.329 272.987L135.938 276.442L120.215 288.428Z" fill="#231F20"/>
<path d="M111.331 276.16L108.088 270.378C106.325 267.276 107.312 264.808 110.485 263.046C114.433 260.79 116.619 262.482 118.17 265.232L119.016 266.783L126.278 262.693L128.393 266.501L111.331 276.16ZM115.702 266.994C114.927 265.584 114.01 265.725 112.459 266.642C111.19 267.347 110.273 268.052 111.119 269.603L111.824 270.872L116.407 268.334L115.702 266.994Z" fill="#231F20"/>
<path d="M122.4 253.034C121.484 250.425 120.356 249.297 118.311 250.707L103.364 261.213L101.883 257.405L108.863 252.893L113.517 250.214L108.37 251.553L100.332 253.105L98.8516 249.297L117.465 246.548C121.977 245.843 123.317 246.971 125.15 251.976L122.4 253.034Z" fill="#231F20"/>
<path d="M110.838 241.048L110.133 241.189L109.216 237.241L109.921 237.1C111.825 236.677 112.46 236.183 112.248 235.126C111.966 234.068 111.12 233.998 109.428 234.421C107.524 234.844 106.608 235.478 106.96 237.311C106.96 237.382 107.101 237.946 107.172 238.369L104.563 238.933L104.351 237.946C103.928 236.113 102.8 235.901 100.897 236.324C99.4161 236.677 98.7111 237.311 98.9226 238.369C99.1341 239.427 100.192 239.497 101.531 239.215L102.589 238.933L103.505 242.952L102.377 243.234C98.9226 244.009 96.5254 242.317 95.7498 239.074C94.9743 235.69 96.3139 233.293 99.6981 232.517C101.954 232.024 103.858 232.658 104.493 233.927C104.704 232.517 105.621 231.177 108.37 230.543C111.896 229.767 114.716 230.613 115.562 234.421C116.549 238.44 114.434 240.273 110.838 241.048Z" fill="#231F20"/>
<path d="M93.8461 227.159L93.564 223.704L104.845 222.858L93.2115 218.698L93 215.878L112.671 214.397L112.953 217.922L101.461 218.769L113.306 222.999L113.517 225.678L93.8461 227.159Z" fill="#231F20"/>
<path d="M93 208.545L93.3525 204.174L101.32 204.808L101.602 201.777L93.6345 201.142L93.9871 196.771L113.658 198.322L113.306 202.693L104.704 201.988L104.422 205.02L113.024 205.725L112.671 210.096L93 208.545Z" fill="#231F20"/>
<path d="M108.159 193.105L101.249 191.483C97.3008 190.566 95.1151 188.663 96.1727 184.221C97.1598 179.991 99.6979 179.215 103.012 179.991L104.704 180.343L103.717 184.503L101.813 184.08C100.685 183.798 99.4864 183.586 99.2044 184.926C98.9224 186.266 100.05 186.689 101.249 186.971L110.274 189.015C111.613 189.297 112.671 189.368 112.953 188.099C113.235 186.759 112.107 186.477 110.908 186.195L108.864 185.702L109.851 181.542L111.543 181.894C114.786 182.67 116.972 184.432 115.985 188.733C114.927 193.175 112.107 194.021 108.159 193.105Z" fill="#231F20"/>
<path d="M99.7686 172.447L101.39 168.428L108.652 171.318L108.793 170.895L102.589 165.326L104.21 161.307L111.472 168.075L122.612 168.498L120.92 172.658L111.895 172.094L111.754 172.517L119.722 175.76L118.1 179.779L99.7686 172.447Z" fill="#231F20"/>
<path d="M107.03 155.878L108.793 152.917L118.523 158.698L111.331 148.616L112.741 146.219L129.733 156.301L127.97 159.333L118.1 153.481L125.362 163.774L124.022 166.031L107.03 155.878Z" fill="#231F20"/>
<path d="M116.831 140.508L122.33 133.598L124.657 135.431L121.837 138.957L125.644 141.988L127.759 139.309L130.157 141.213L128.041 143.892L132.624 147.558L135.444 143.962L137.771 145.796L132.201 152.776L116.831 140.508Z" fill="#231F20"/>
<path d="M132.977 122.811L138.123 118.651C140.873 116.395 143.482 116.959 145.738 119.779C148.629 123.304 147.36 125.702 144.892 127.746L143.552 128.874L148.84 135.361L145.456 138.11L132.977 122.811ZM142.706 125.561C143.975 124.573 143.623 123.727 142.495 122.317C141.578 121.189 140.732 120.414 139.393 121.542L138.264 122.458L141.578 126.548L142.706 125.561Z" fill="#231F20"/>
<path d="M147.077 111.953L154.621 107.3L156.172 109.838L152.365 112.165L154.903 116.324L157.794 114.491L159.345 117.029L156.454 118.933L159.557 123.939L163.434 121.542L164.985 124.08L157.371 128.733L147.077 111.953Z" fill="#231F20"/>
<path d="M164.986 116.959L162.095 110.472C160.403 106.736 160.685 103.845 164.845 102.012C168.793 100.249 170.979 101.871 172.319 104.902L173.024 106.454L169.146 108.216L168.37 106.383C167.877 105.325 167.383 104.197 166.114 104.832C164.845 105.467 165.268 106.595 165.691 107.652L169.428 116.113C169.992 117.311 170.626 118.228 171.755 117.734C173.024 117.17 172.53 116.042 172.037 114.985L171.191 113.081L175.068 111.389L175.773 112.94C177.113 116.042 176.972 118.792 172.953 120.625C168.934 122.388 166.608 120.625 164.986 116.959Z" fill="#231F20"/>
<path d="M178.735 100.531L175.915 101.377L174.998 98.275L184.869 95.3842L185.785 98.4865L182.965 99.3325L187.548 115.126L183.318 116.324L178.735 100.531Z" fill="#231F20"/>
<path d="M192.06 107.582L191.003 100.32C190.439 96.3008 191.567 93.6921 195.938 93.0576C200.309 92.423 202.213 94.5382 202.777 98.557L203.835 105.819C204.399 109.838 203.271 112.447 198.899 113.152C194.457 113.786 192.624 111.6 192.06 107.582ZM199.604 107.582L198.194 98.2045C198.053 97.0764 197.701 95.9483 196.361 96.1598C195.092 96.3713 195.092 97.4994 195.233 98.698L196.643 108.075C196.784 109.203 197.066 110.331 198.406 110.12C199.745 109.908 199.745 108.639 199.604 107.582Z" fill="#231F20"/>
<path d="M208.628 92L215.256 92.0705C218.781 92.0705 220.403 94.1857 220.403 97.8519C220.403 102.435 217.865 103.492 214.692 103.422H212.929L212.859 111.741H208.487L208.628 92ZM214.41 100.32C216.031 100.32 216.313 99.4736 216.313 97.6404C216.313 96.1598 216.172 95.0317 214.41 95.0317H213V100.249L214.41 100.32Z" fill="#231F20"/>
<path d="M228.934 92.9871L233.869 93.7626L234.574 113.786L230.626 113.152V108.921L227.735 108.498L226.466 112.517L222.377 111.882L228.934 92.9871ZM230.485 106.383L230.626 98.6275L228.44 106.101L230.485 106.383Z" fill="#231F20"/>
<path d="M243.458 95.7368L247.618 97.0059L245.291 104.62L248.182 105.537L250.579 97.9224L254.739 99.1915L248.887 118.016L244.727 116.747L247.265 108.498L244.375 107.582L241.837 115.831L237.677 114.562L243.458 95.7368Z" fill="#231F20"/>
<path d="M262.001 101.941L265.879 103.986L262.001 111.318L262.847 111.741C266.161 113.504 267.148 116.042 265.315 119.497C263.058 123.727 260.238 123.234 257.136 121.612L252.765 119.286L262.001 101.941ZM258.546 119.215C259.956 119.991 260.943 119.427 261.86 117.593C262.494 116.254 262.635 115.126 261.084 114.28L260.591 113.998L257.982 118.863L258.546 119.215ZM273.352 107.934L277.23 109.979L267.994 127.394L264.116 125.349L273.352 107.934Z" fill="#231F20"/>
<path d="M261.578 166.524C260.521 167.37 259.886 168.639 259.816 170.12C259.816 170.472 259.957 173.645 259.816 174.562C259.463 177.734 258.124 180.061 256.502 181.683C254.316 183.798 250.65 184.362 247.054 183.304C244.375 182.529 241.766 180.625 239.581 178.651C239.51 178.58 239.369 178.439 239.228 178.369C239.228 178.369 239.158 178.298 239.087 178.228C238.876 178.016 238.594 177.734 238.382 177.523C238.03 177.1 237.607 176.747 237.254 176.324C236.901 175.901 236.549 175.478 236.267 175.055C235.068 173.434 233.165 174.703 232.389 175.619C231.402 176.888 230.768 178.863 231.755 180.625C233.306 183.163 234.927 185.631 236.337 188.24C237.748 190.919 239.792 197.264 238.382 200.508C236.901 203.751 232.601 203.751 230.556 203.257C229.498 202.975 226.537 201.918 225.621 201.495C220.897 199.45 216.173 196.418 211.097 197.053C202.565 198.11 198.265 207.206 198.335 215.384C198.335 216.865 198.476 218.345 198.758 219.826C196.079 218.769 193.4 218.275 190.791 218.416C180.779 218.98 175.562 228.71 177.325 238.439V238.51C172.812 236.747 168.229 236.747 164.634 239.568C160.756 242.599 159.134 248.663 161.602 253.951C163.505 257.899 168.159 252.611 166.819 249.72C166.608 249.297 166.608 249.297 166.326 248.451C165.55 246.336 166.819 245.137 167.877 244.714C170.274 243.868 173.094 244.573 175.703 245.843C177.677 246.83 179.51 248.099 181.273 249.509C181.343 249.72 181.484 249.861 181.555 250.073C182.542 251.906 183.952 254.797 185.856 255.854C188.464 257.335 190.509 253.88 190.721 251.906C190.862 250.284 190.227 248.804 189.169 247.394C188.182 246.054 186.984 244.855 185.715 243.727C184.305 241.048 183.317 238.228 182.824 235.408C182.683 234.632 181.978 230.331 183.882 228.005C185.785 225.678 188.817 225.467 190.509 225.467C194.739 225.467 199.604 227.934 203.129 231.248C204.399 232.447 206.302 230.543 206.796 229.767C207.642 228.498 208.065 226.806 207.148 225.184C207.501 225.89 206.091 222.858 205.738 221.941C204.61 218.91 202.565 210.942 206.091 206.36C207.571 204.385 211.308 203.751 215.256 204.879C219.416 206.007 224.916 209.885 229.992 210.308C238.382 210.731 244.798 203.116 244.798 195.008C244.798 193.316 244.516 191.624 244.093 190.002C244.516 190.143 244.869 190.284 245.292 190.425C255.585 193.175 263.905 184.503 265.456 175.619C265.879 173.011 265.879 170.12 265.174 167.3C264.681 165.396 262.495 165.819 261.578 166.524ZM258.617 179.568C258.547 179.638 258.547 179.638 258.617 179.568V179.568Z" fill="black"/>
<path d="M167.947 255.995C156.948 266.43 142.777 283.563 135.092 296.606C133.964 298.51 137.983 303.234 139.322 301.048C146.373 289.062 158.993 273.551 169.357 263.257C172.53 259.662 169.498 254.515 167.947 255.995Z" fill="black"/>
<path d="M288.371 124.291C279.84 132.611 268.982 146.853 259.041 155.102C256.009 157.64 257.56 165.255 260.662 162.576C270.533 154.115 282.942 138.251 292.249 129.156C294.434 127.112 290.486 122.247 288.371 124.291Z" fill="black"/>
<path d="M163.576 299.145L171.755 303.234L170.274 306.125L165.973 304.009L158.57 318.745L154.692 316.771L163.576 299.145Z" fill="#231F20"/>
<path d="M174.223 304.362L180.498 306.548C183.811 307.676 184.728 310.214 183.529 313.669C182.049 317.969 179.299 318.181 176.338 317.123L174.646 316.559L171.896 324.456L167.807 323.046L174.223 304.362ZM177.043 314.092C178.523 314.656 179.087 313.88 179.722 312.188C180.216 310.778 180.427 309.72 178.735 309.156L177.395 308.663L175.703 313.598L177.043 314.092Z" fill="#231F20"/>
<path d="M183.881 329.109C186.56 329.744 188.182 329.321 188.041 326.853L187.124 308.592L191.073 309.368L191.214 317.687L191.002 323.046L192.624 317.969L195.585 310.284L199.604 311.06L192.06 328.334C190.227 332.494 188.605 333.058 183.388 331.929L183.881 329.109Z" fill="#231F20"/>
<path d="M200.732 325.161L200.803 324.456L204.892 324.667L204.821 325.443C204.68 327.417 204.963 328.193 206.091 328.193C207.148 328.263 207.501 327.417 207.571 325.655C207.712 323.68 207.36 322.623 205.456 322.482C205.386 322.482 204.821 322.411 204.398 322.411L204.539 319.732L205.527 319.803C207.43 319.873 207.924 318.886 208.065 316.912C208.135 315.361 207.783 314.515 206.655 314.444C205.597 314.374 205.174 315.29 205.104 316.7L205.033 317.758L200.944 317.546L201.014 316.348C201.226 312.823 203.482 310.989 206.866 311.201C210.321 311.412 212.225 313.316 212.084 316.841C211.943 319.168 210.814 320.79 209.404 321.072C210.744 321.706 211.731 322.905 211.519 325.725C211.308 329.321 209.686 331.788 205.809 331.577C201.719 331.436 200.521 328.827 200.732 325.161Z" fill="#231F20"/>
<path d="M215.468 311.835L218.923 311.553L219.91 322.834L223.999 311.13L226.819 310.919L228.511 330.59L224.986 330.872L223.999 319.45L219.839 331.295L217.16 331.506L215.468 311.835Z" fill="#231F20"/>
<path d="M230.274 310.355L234.505 309.297L236.338 317.053L239.299 316.348L237.466 308.592L241.696 307.535L246.279 326.712L242.049 327.77L240.004 319.38L237.043 320.085L239.088 328.475L234.857 329.532L230.274 310.355Z" fill="#231F20"/>
<path d="M249.875 319.027L247.195 312.4C245.644 308.592 246.067 305.772 250.227 304.08C254.246 302.458 256.361 304.15 257.63 307.253L258.265 308.804L254.316 310.425L253.611 308.592C253.188 307.535 252.695 306.407 251.426 306.9C250.157 307.394 250.509 308.592 250.932 309.72L254.387 318.322C254.88 319.591 255.515 320.437 256.714 320.014C257.983 319.521 257.56 318.392 257.137 317.264L256.361 315.361L260.309 313.739L260.944 315.29C262.213 318.392 262.002 321.213 257.912 322.834C253.682 324.597 251.355 322.764 249.875 319.027Z" fill="#231F20"/>
<path d="M258.265 300.837L262.072 298.651L266.02 305.42L266.373 305.208L264.963 297.029L268.699 294.844L270.251 304.644L278.711 311.835L274.833 314.092L268.065 308.099L267.712 308.31L272.013 315.713L268.206 317.899L258.265 300.837Z" fill="#231F20"/>
<path d="M270.744 293.363L273.423 291.248L280.474 300.061L277.372 288.075L279.557 286.313L291.825 301.753L289.076 303.939L281.954 294.985L285.057 307.182L282.942 308.804L270.744 293.363Z" fill="#231F20"/>
<path d="M282.166 283.774L288.3 277.358L290.415 279.403L287.313 282.646L290.838 286.031L293.235 283.563L295.421 285.678L293.024 288.146L297.254 292.235L300.427 288.921L302.542 290.966L296.338 297.382L282.166 283.774Z" fill="#231F20"/>
<path d="M294.646 269.462L298.171 263.821C300.074 260.86 302.683 260.508 305.785 262.482C309.663 264.879 309.24 267.558 307.548 270.308L306.631 271.788L313.752 276.23L311.426 279.897L294.646 269.462ZM304.728 268.898C305.574 267.558 305.01 266.853 303.459 265.866C302.19 265.09 301.202 264.667 300.286 266.148L299.51 267.347L303.952 270.167L304.728 268.898Z" fill="#231F20"/>
<path d="M302.119 256.912L305.856 248.874L308.535 250.143L306.631 254.162L311.073 256.207L312.483 253.105L315.233 254.374L313.823 257.476L319.181 259.944L321.085 255.784L323.764 257.053L320.027 265.161L302.119 256.912Z" fill="#231F20"/>
<path d="M319.604 250.566L312.835 248.451C308.957 247.253 306.983 245.137 308.323 240.837C309.592 236.677 312.271 236.113 315.444 237.1L317.066 237.593L315.796 241.683L313.893 241.119C312.835 240.766 311.637 240.414 311.214 241.753C310.791 243.093 311.919 243.586 313.117 243.939L322.001 246.689C323.27 247.112 324.398 247.182 324.751 245.984C325.174 244.714 324.046 244.291 322.847 243.939L320.873 243.304L322.142 239.215L323.764 239.709C326.936 240.696 328.981 242.67 327.641 246.9C326.302 251.201 323.411 251.765 319.604 250.566Z" fill="#231F20"/>
<path d="M314.317 231.248L313.823 234.139L310.65 233.575L312.413 223.422L315.586 223.986L315.092 226.877L331.308 229.767L330.533 234.068L314.317 231.248Z" fill="#231F20"/>
<path d="M326.232 221.941L318.899 221.589C314.81 221.377 312.554 219.826 312.695 215.384C312.906 210.942 315.374 209.532 319.393 209.744L326.725 210.096C330.815 210.308 333.141 211.859 332.93 216.371C332.789 220.743 330.251 222.153 326.232 221.941ZM327.642 214.538L318.124 214.115C316.925 214.045 315.797 214.186 315.726 215.525C315.656 216.794 316.784 217.006 317.983 217.076L327.501 217.499C328.629 217.57 329.827 217.499 329.898 216.16C329.898 214.82 328.77 214.609 327.642 214.538Z" fill="#231F20"/>
<path d="M313.118 206.219L312.413 199.591C312.06 196.066 313.964 194.233 317.56 193.88C322.072 193.457 323.411 195.784 323.764 198.957L323.905 200.719L332.225 199.873L332.648 204.174L313.118 206.219ZM320.803 199.591C320.662 197.969 319.745 197.758 317.983 197.969C316.502 198.11 315.444 198.392 315.585 200.155L315.726 201.565L320.944 201.001L320.803 199.591Z" fill="#231F20"/>
<path d="M310.791 189.509L309.593 184.714L327.854 176.465L328.841 180.343L324.963 181.965L325.668 184.785L329.898 184.432L330.885 188.451L310.791 189.509ZM322.495 183.022L315.304 185.843L323.059 184.996L322.495 183.022Z" fill="#231F20"/>
<path d="M307.901 178.651L306.279 174.632L313.682 171.6L312.554 168.78L305.151 171.812L303.459 167.723L321.72 160.249L323.341 164.338L315.374 167.582L316.502 170.402L324.47 167.159L326.091 171.177L307.901 178.651Z" fill="#231F20"/>
<path d="M295.28 153.763L292.953 150.096L309.663 139.591L311.99 143.257L295.28 153.763ZM302.119 164.62L299.792 160.954L306.843 156.512L306.349 155.666C304.375 152.494 304.728 149.814 308.041 147.699C312.131 145.161 314.316 146.994 316.149 149.885L318.758 154.045L302.119 164.62ZM313.752 151.365C312.906 149.955 311.778 149.955 310.086 151.083C308.887 151.859 308.112 152.846 309.099 154.327L309.381 154.82L314.034 151.859L313.752 151.365Z" fill="#231F20"/>
</g>
<path fill-rule="evenodd" clip-rule="evenodd" d="M425 212.5C425 329.861 329.861 425 212.5 425C95.1395 425 0 329.861 0 212.5C0 95.1395 95.1395 0 212.5 0C329.861 0 425 95.1395 425 212.5ZM212.5 377C303.351 377 377 303.351 377 212.5C377 121.649 303.351 48 212.5 48C121.649 48 48 121.649 48 212.5C48 303.351 121.649 377 212.5 377Z" fill="#F6F6F6"/>
<defs>
<clipPath id="clip0_136_1498">
<rect width="240" height="240.423" fill="white" transform="translate(93 92)"/>
</clipPath>
</defs>
</svg>
