<?xml version="1.0" encoding="utf-8"?>
<svg id="Layer_1" version="1.1" viewBox="47.285 -1.977 132.652 132.603" xmlns="http://www.w3.org/2000/svg">
  <defs>
    <style>
      .st0 {
        fill: none;
      }

      .st1 {
        fill: #eae2c7;
      }

      .st2 {
        fill: #ed1c24;
      }

      .st3 {
        fill: #224131;
      }
    </style>
  </defs>
  <g>
    <path class="st0" d="M135.5,12.3c1.5.7,3,1.9,4.2,3.1-1.2-1.3-2.6-2.4-4.2-3.1Z"/>
    <path class="st3" d="M152.4,89.4c-4.2-1.7-8.2-3.2-11.3-6.2.8,0,1.7.2,2.6.3,2.9.4,5.9.7,8.6.5.8,0,1.7-.1,2.2-.9.4-.6.2-1.4,0-1.9-.4-1-4.5-5.6-5.2-6.3-2.4-2.3-5.4-3.6-8.8-3.9.8-.5,1.7-.7,2.6-1,.7-.2,1.4-.4,2.1-.6,6.1-2.4,9.8-7.4,10.6-14.4,0-.6,0-1.1,0-1.7,0-.7,0-1.3,0-1.9.1-.6.6-1.3,1.1-2,.6-.9,1.3-2,1.6-3.2,1.2-4.7-.2-7-2.1-9.8-.4-.7-.9-1.3-1.3-2.1-1.1-1.8-1-3.3-.9-5,0-1.6.2-3.3-.7-5.4-1.3-3-3.4-4.2-5.5-5.4-.7-.4-1.4-.8-2.2-1.3-1.3-.9-2.3-2-3.4-3.3-1.3-1.5-2.6-3-4.6-4.1-2.3-1.2-4.9-1.5-7.3-1.7-2-.2-4-.4-5.9-1.1-1.1-.4-2.1-.9-3.1-1.5-1.4-.7-3.1-1.4-4.8-1.6-1.2-.2-2.1-.1-3.4-.1,0,0-4.4,0-5.8.3-1.7.3-3.3.8-5,1.5-1.6.6-3.2,1.3-5,1.8-1,.3-2,.5-3.1.7-1.5.3-3.1.6-4.6,1.2-2.4,1-4.2,2.5-5.8,3.9-.8.7-1.6,1.4-2.6,2.1-.8.6-1.7,1.1-2.7,1.7-2.3,1.4-4.7,2.8-6.2,5.3-1.3,2.1-1.4,3.9-1.5,5.7,0,1.5-.2,2.9-1,4.5-.5,1-1.1,1.9-1.6,2.8-1.8,3.1-3.4,5.8-3,10.7.2,2.1,1.2,3.7,2,5.1.6,1,1.2,1.9,1.4,2.9.2.8.3,1.8.3,2.7,0,.8,0,1.6.2,2.4,1,5.4,6.4,9.6,10.9,10.8.6.2,1.3.2,1.9.3.7,0,1.3.2,1.8.3.3,0,.6.3.9.6.3.2.6.5,1,.6.4.2.9.4,1.4.6.5.2,1.1.4,1.6.6-3.9.8-12,3.1-14.6,9.3-.1.3-.5,1.1,0,1.8.4.7,1.4.8,2.1.9,2.4.2,5.1-.1,7.7-.4-3.1,2.3-5.6,3.3-8.7,4.5-1.4.6-2.9,1.2-4.7,2-3.4,1.6-6.5,3.5-9.2,5.8,2.6,4,5.6,7.8,9,11.1,0,0,0,0,0-.1-.4-2.6-.7-9.1-.2-11.6,0-.4,0-.7.6-.6v12.8c1.7,1.6,3.5,3.2,5.4,4.6,1.6-6.9,3.3-13.7,5.9-19.6.6-1.3,3.7-7.1,4.8-7.6.4-.2.4.3.3.5-.2,1-3.1,6.1-2.6,6.5h.6c1.3-3.1,2.8-6.1,5-8.6l-2.8,6.3c0,0-.5,1.4,0,1.1,2.2-3.3,3-7.7,6.5-10,.3.1,0,.7,0,.9-.5,1.5-1.9,3.5-2.6,5.1-3,7.1-4.2,14.3-5.5,21.8-.2,1-.9,2.9-.9,3.7,0,.4.2.5.5.6,2,1.4,8.7,3.3,11.3,3.9,12.1,2.8,28.1,1.8,39.8-2.4.9-.3,3.9-1.4,4.3-2.2v-.5c-1.9-9.8-3.6-19.7-8.4-28.6-.3-.6-2.1-2.7-.7-2.4.5.1,2.7,3.4,3.2,4.1,1.1,1.9,2,4,2.9,6h.4c0-.9-.8-2.8-1.1-3.6-.6-1.5-2.2-3.6-2.6-4.9,0-.3,0-.5.3-.3.3.2,3.3,5.3,3.7,6,1,1.9,2,4.2,2.2,6.3h.7c-.2-4.1-2.5-7.5-4-11,.4,0,.5.2.8.4,5.6,5.5,9,18.3,11.3,28.3,4.1-3.1,7.9-6.8,11.1-10.8.6-.7.4-.4.7-.9,0,0,0,0,0,0,1.1-1.5,2.2-3.1,3.2-4.7-1.7-1.5-3.5-2.8-5.4-3.8-2.3-1.2-4.7-2.2-7.1-3.1ZM73.5,108.5l-.4-.3c-.1-4.1-.8-8.2.1-12.3.1-.6.2-1.5.8-1.8l-.4,14.3ZM75.7,107c-.4,0-.4-.4-.4-.8-.4-3.3-.3-8.7.7-11.9.1-.4.4-1.1.8-1.3-.7,4.6-1.3,9.2-1.1,13.9ZM152.6,56.8c0,3-4.8,7.8-7.5,9.1-.8.4-2.2,1-3.1.8.8-1.3,2.6-1.6,3.9-2.5.6-.5,2-1.9,2.5-2.5.3-.3.9-1.2.8-1.7-.6.6-1.2,1.3-1.9,1.8-.2.1-1.6,1.1-1.3.3.3-.7,3.9-2.8,4.6-4,.2-.4.3-.6.2-1l-3.6,3.5c-1.1.5.9-1.8,1-1.9,1.2-1.9,1.9-3.6,3.8-5,.2-.2.3-.4.7-.3v3.4ZM139.7,28.8c-11.3-16.6-38.1-17.9-51.1-2.7-5.9,6.9-9.1,18.6-9.5,27.6,0,1.4.7,3.3.9,4.7l-.8-2c-2-8.8.3-19.7,4.7-27.5,11.6-20.3,44.3-20.7,57.4-1.7,5.6,8.2,8.9,21.4,5.3,31-.4,0-.2-.5-.2-.8.8-10.5-.6-19.8-6.7-28.6ZM142.9,44.1c-.5,1.7-2.9.9-4.2.9,0-.3.6-.3.8-.4.5,0,3.2-.7,3.3-.5ZM113.3,21.8c.1-1.6,1.8-3.7,3.5-3.5.5.5-3.2,3.1-3.5,3.5ZM112.4,24s-1.7-2.8-2.4-3.6c-.4-.5-2-1.9-2-1.9,2.5,0,4.8,3.2,4.4,5.5ZM155.3,45.6c-1,3-3.6,5-5.2,7.5h-.4c-.3-2.7,1.2-3.3,2.5-5.1.8-1.1,1.4-2.3,1.9-3.6,0,0-2.2,3-4,4,0,0-1.2-.8.7-2.6.5-.5,2.3-4.3,1.9-4.6-.3,0-.4,0-.7.1-.8.8-1.3,3-2.6,3.6.4-1.2-.5-2.9-.4-3.8.1-1.1,2.1-2,1.8-3.4-.3-.3-1.6,1.4-1.9,1.5-.4.2-.8-1-.7-1.2.1-.7,2.6-3.4,2.9-4.3,2.3,3.7,5.7,7.1,4.2,11.9ZM74.8,25.4c1.4-4.2,5.6-5.5,8.9-7.9,1.5-1.1,2.9-2.9,4.4-3.9,3.6-2.6,8-2.5,12.1-3.8,5.1-1.7,8.8-4.6,14.6-3.5,3.9.7,6.3,3.3,9.9,4.2,3.4.9,7.1.4,10.3,1.6.1,0,.3.1.4.2,1.6.7,3,1.8,4.2,3.1,1.8,1.8,3.3,3.6,3.7,3.8,2,1.6,5.1,2.5,6.6,4.6,2.8,3.9.3,9-2.4,12.1-1.8-2.3,0-3,1-4.8.3-.6,1.5-3.4,1.1-3.8-.9.2-1.1,1.6-1.5,2.4-.3.5-1.4,2.4-1.8,2.6-1.9-.8.3-2.3.8-3.6.3-.6,1.4-3.8.9-4.3-.6-.1-.4.1-.6.4-.6,1.2-.9,2.6-1.7,3.8-.8,1.3-1.1,1.5-1.7-.2,1.1-1.5,1.9-3,1.8-5,0,0-1.5,3.9-2.3,3.7-.3,0-3.2-3.9-3.8-4.6-12.1-15.7-40.9-14.8-53.9-.8-.8.8-2.6,3.9-3.4,4.1-.1-.3-2.1-3.3-2.5-2.9,0,2.3,3,4,.8,6-.7,0-1.9-4-3.2-3.7-.8.6,1.7,5.7,2.6,6.3-1.7,1.8-2.7-2-4-2.8-.2,2.5,2.7,4.3,2,6.6-.3.3-1.6-1.6-1.8-1.9-2.1-2.9-2.8-4.6-1.6-8.2ZM69,46.6c-.7-5.1,2.1-9.3,4.4-13.5l4,5.5c-1.3.8-3.4-1.8-4.1-1.8-.3,0-.3.3-.2.6.5,1.1,3.5,2.9,3.4,3.7,0,.4-.3.2-.6.2-1-.3-2.5-1.6-3.3-1.8-.4,0-.5,0-.7.3.4,1.4,4.1,2.9,4.4,3.8.3.9-.5,1.2-.6,1.8-.1.7.4,2.3.2,3.2-1.4-.9-1.5-2.8-2.2-4.2-2.7,1.4,3.1,7.4,2.4,8.2-.5,0-1-.6-1.3-1-1.4-1.6-2.3-3.6-3.5-5.3,0,0,.6,3.1,1.4,4.4.7,1.1,3.8,4.6,3.9,5.3.1.9-1.5-.6-1.7-.8-1.8-1.8-5.4-6.1-5.8-8.6ZM81.7,66.6c-2.6-.2-7.5-3.9-8.4-6.4-.5-1.5-.1-2.8-.6-4.2.2-.2.9.4,1.1.6,2.6,2,3.9,4.6,6.4,6.7-2.5.6-4.3-3.6-5.6-4.2-.7-.3,0,.7,0,.9,1.8,2.8,4.5,5,7.6,6.2,0,.6,0,.5-.5.4ZM84.3,57.8c-1.4,1.2-1.7,2.1-2.4,3.7-.4-.3-.3-.6-.3-1-.2-3.6,4.8-5.1,7-7.2,1-.9,1.8-2.4,2.8-3.3-.2,4-4.3,5.5-6.9,7.7ZM85.4,66.6c-1.2-1.1-1-4.4-.4-5.7.3-.7,2.9-4.1,3.6-3.5-1,2.2-3.2,4.2-3.3,6.8,0,.8.5,1.7,0,2.5ZM87.7,63.1l2.7,4.3c.7,1.3.5,3.1-1,1.5-1.3-1.4-2-3.9-1.7-5.7ZM84.8,81.8c-2.1.1-5.6.5-7.7.5,2-2.3,6-6,9.2-6.2l6.3-.8c0,.1.2.2.2.4v.2c-2.7.9-4.8,1.1-7.1,2.6,0,0,3.8-.2,7.2-.5.2.1-3,3.5-8.1,3.8ZM94.1,91.5l1.2,5.5c1.2,4.6,2.1,5.7,5,9.2.2.2.5.4.4.8-.5.5-2.6-1.8-3-2.2-1.7-2.2-2.9-5.6-3.4-8.3-.3-1.5-.6-3.4-.3-4.9ZM107.6,97.6c-.1-.7-2-3.1-2.5-4.1-.9-1.5-1.7-3.3-2.1-5.1,1.2,1.5,1.9,3.4,3,5.1.8,1.2,1.9,2.4,3.1,3.3.2-.1,0-.7,0-.9-.5-1.4-1.9-3.2-2.6-4.7-.2-.6-1.3-3.3-1.2-3.7,0,0,.2-.3.3-.1.4.6.6,1.6,1,2.3.5,1,3.4,6,4.4,5.9.4,0,.2-.3.2-.6-.4-1.1-1.5-2.6-2.1-3.9-.4-1-.9-2.1-1.1-3.2.6-.1,3,5.5,4.5,6,1,.3-.7-2.9-.4-3.2l2.1,3c.5-.9.8-3,1.1-3.9,0-.2.1-.6.5-.3.2.2.5,3.7.5,4.3,0,1.4-.7,2.3-1.1,3.6,0,.3-.1.7.3.5.6-.2,1.9-2.9,2-3.5.4-1.9,0-4.9,1.1-6.6.2-.2.3-.3.4,0,.3.6-.5,2.4-.5,3.2v1.8c1.1-1.6,1.8-4,2.9-5.6.1-.2.5-.8.8-.5-.7,2.8-1.7,5.5-2.9,8.1-.3.7-1.6,1.8-.7,2.6,2.2-2.3,3.7-5.4,5.2-8.3.9-1.8,1.3-3.9,2.8-5.4.2-.2.9-.7,1.2-.8-.9,6.7-2.8,14.6-9.6,17.5-.7.3-4.3,1.7-4.8,1.7-.8,0-4.5-1.3-5.3-1.7-5.7-3-7.8-10.9-9-16.7,1.2,1.5,1.6,3.7,2.4,5.4.8,1.8,4.1,8.2,5.9,8.7.3,0,.4,0,.3-.3ZM128.9,95.9c-1.1,2-3.3,4.9-4.9,6.3-.4.4-2.8,2.1-3.2,1.5-.4-.7,1.1-1.1,1.5-1.4,3.7-2.8,6.6-8.2,7.5-12.7.4,0,.2,1,.2,1.2,0,.6,0,3-1.1,5.1ZM129.2,97.5c-.4,4.4-4.8,8.8-5.6,8.8-.2,0-.7-.4-.5-.5,2.7-2.5,6.2-8.3,6.2-8.3ZM105.4,103c-.2,1.6-1.8.4-2.5-.2-1.1-.9-2.2-2.3-2.5-3.7.4-.4,2.8,2.5,3.2,2.9.5.4,1.2.9,1.9,1.1ZM100.3,102.9c.7,1.3,2.2,2,3.1,3.2-4.4.2-5.9-9.2-6.1-9.9-.7-2.2-1.1-4.4-.9-6.7,0,0,2.9,11.2,4,13.3ZM107.7,106.9c-3,3-8.4,5-11.9,1.8-2.9-2.6-3.9-8.5-4.1-12.2,0-.6-.2-1.7.4-1.9.6,2.9,1.2,5.8,2.5,8.5.7,1.5,3.3,4.6,5,4.9,4.1.6,10-4.2,10-4.2.2.6-1.3,2.6-1.8,3.1ZM112.5,115.5c-3.1-.4-3-4.9-.4-5.5,4.2-1,4.5,5.9.4,5.5ZM133,100.3c.5-1.7.7-3.7,1.4-5.2,0,0,.7,2.6.5,3.6-.5,4.6-2.8,11.7-8.4,11.7-3.5,0-8.6-2.6-10-5.9-.2-.4-.3-1.5.2-1,1.4,1.2,1.9,1.5,2.9,2.4,2.2,2,6.4,3.8,9.1,1.9,2.1-1.4,3.6-5.1,4.3-7.4ZM132.1,91.9c0-.2,0-.7.4-.6.1,3.7-.4,7.4-2,10.7-1.1,2.3-2.4,4.3-4.9,5.2.5-1.5,2-2.3,2.9-3.6,2.5-3.7,2.9-7.4,3.6-11.6ZM133.3,67.6c-.3,1.1-1.1-.6-1.5-1.7-.2-.6-.6-1.5-1.3-1.5.5,1,.7,2.1,1,3.1.2.6.7,1.2.8,1.8.8,3.1-2,7.6-4.1,9.7-.3.3-5.5,4.3-6.3,3.5.5-1.3,1.6-2.3.9-4.4-2.6,7-9.3,8.7-14.9,5.4-1.4-.9-3.5-4.2-4.1-4.5-.4-.2-.3.2-.2.5.4,1.1,1,2.3,1.2,2.9.3.9-7.5-2.4-10.4-9.9,0-.1.4-.1.5-.3.5-.8.1-2.5.2-3.5.2-1.9,1.2-3.7,2-5.4-2.5,1.5-3.1,5-3.1,7.7-.3-.1-1.7-3.8-1.8-5.7,0-2.8,1.5-5.3,3.9-6.8.7-.4,2-.4,1.8-1.4-2.8.8-5.1,2.3-6.2,5.1-.4,0-.4-.4-.5-.8,0-1.6,2.3-4.1,3.5-5.1-.4-.5-.4-.2-.7,0-1.3.5-2.1,2.1-3.2,2.8,0-.8,1.2-3,1.7-3.5,1.2-1.2,5.5-2.9,7.2-2.8-.3-.2-.3-.4-.3-.6,0-.3.5-.7.9-.6-.4,1.6,1,2.2,2.4,2.1.8,0,1.7-.2,2.1-1,.2-.5.1-1.3.1-1.3l2.4,1.3c.7,1.1-3.7,2.8-3.7,2.8.7,0,2.4-.3,3.6-1.3-.1,2.1-5.4,4.6-5.4,4.6,1.3,0,3.2-.7,4.4-1.3,1.6-.8,4.5-4.4,4.6-6.2,0-1.6-1.5-4.8-2.8-5.7-3.6-2.7-9.9-1.9-13,2.4-.4.5-1,1.4-1.2,1.9,0,.2-.2.6.2.5,1-1.2,1.7-1.6,3.3-2.2-1.2,1.7-1.1,1.7-1.7,2.9.3.2.5,0,.7-.3,3.2-5,9.7-4.5,11.4.7l-2.7-2.3c-2.2-1.1-4.2-.9-6.2.5-1,.7-1.6,2-2.6,2.5-.5.3-3.2,1.1-3.6,1,0,0-.2-1.7,1.6-1.1.2-.2-1.1-1.6-1.1-2.1,0-.4,0-1.9.6-5.5-.9,1.4-2.3,3.4-2.6,3.8-1.6,2.2-6.1,6.4-9,6-.6,0-1.7-.8-1-1.4.5,0,.9.2,1.4.1,2.8-.3,8.6-5.3,9.4-8.1.1-.4-.5.1-.7.4-2.3,2.4-4.8,4.1-8.2,2.9-.6-.2-1.1-.4-1-1.1.9,0,1.6.3,2.5.2,3.3-.2,9.4-4,9.4-4,.9-1.1,2.9-1.9,3.8-3.1-3.3.9-6,2.9-9.6,2.7-1.8-.1-4.1-1.2-4.3-3.2-.1-1,1.4.7,1.6.9,3.4,2.4,9.7.5,12.3-2.4-.1-.3-.6,0-.8,0-2,.6-3.7,1.5-5.9,1.4-2.5-.1-5.8-2.3-5.4-5.1l2.2,2.3c3.2,2.1,6.6,1.5,9.9.1,0-.6,0-.4-.3-.4-1.7-.3-3.5,0-5.2-.7-2.1-.8-5.4-4-3.6-6.3.3,3.2,2.9,5.2,5.9,5.8.9.2,4.1.6,4.4-.6,0-.2-.1-.4-.4-.5-1-.3-2.7-.3-3.8-.6-2.4-.7-4.6-2.2-4.4-5,.7.6,1,1.6,1.7,2.2,2.7,2.6,10.7,1.3,10.7,1.3-4.2-.7-11.2-.8-10.1-6.9l1.6,2.9c2.3,2.2,5.4,2.6,8.4,2.9h2.1c-3-2.9-10.3-1.1-9.5-7.3,2.8.6,6.3.9,8.6,2.8.2.2,1.1.9.8,1.2-2.6-1.5-5.8-1.6-8.3-3.3,0,1.7,1.3,2.2,2.6,2.8,1.7.8,6.7,2.6,8.4,3,.5.1,1,.1,1.6,0,.6-.6-2.9-4.1-3.4-4.6-2.5-2.1-4.5-1.8-6.6-3.1-.3-.2-.7-.4-.6-.8,3.2-.4,5.8.7,8.2,2.8,1.5,1.3,2.6,3.1,4.1,4.3.2.2.4.5.8.4-.7-4.2-3.9-8.1-7.9-9.5.1-.5.6-.4,1-.5,2.5,0,4.7,2.1,5.9,4.1.2.4,1.7,4.1,1.9,3.9,1.3-3.9,3.5-5.1,8.8-7.9.1,0,.1.6,0,.7-4.1,2.5-7.4,5-7.9,9.1.5.1.5-.3.7-.5.8-.8,1.4-2,2.2-2.9,2.7-3.1,6.2-4.1,10.7-4.3.2,0,.3.7.1.7-4.2.6-4.7.5-6.8,1.9-1.9,1.2-4.4,3.3-4.6,5.6.5.4,2.4-2,2.9-2.3,1.5-1.2,3.9-2.7,5.8-3.2.8-.2,4.9-1,5.3-.4,0,0,.3.6,0,.7-4.1,1.1-7.5,1.3-10.3,3.5-.4.3-2.2,2.1-1.1,2.4.3,0,4.6-2.8,5.5-2.9,1.8-.7,3.8-.9,5.7-1.4,1-.2,1.9-1,2.8-.6.1.2-.3.8-.4,1-1.5,1.6-7,1.6-9.2,2.7-.4.2-2,1.2-1.6,1.8,3.9-1.7,9.6-.7,12.5-4.2.9,1-.5,2.5-1.4,3-2,1.1-4.5.9-6.7,1.5-.5.1-2.2.6-1.7,1.3.9.3,3.6-.2,3.9-.2,3.6-.3,5.2-.3,7.7-3.1,1.1-1.2,1.1.4.5,1.4-1.3,2-4.8,2.4-6.9,2.4-.5,0-1.6-.6-1.9,0,2.8,1.3,5.7,1.8,8.5.5l2.2-1.6c1.2,1.4-1.5,2.8-2.6,3.1-2.7.8-5.4-.4-8.1-.6,2.8,3.3,7.3,3.4,11.3,2.3,0,0,1.1,0,1.5-.2.2.7-.6,1.6-1.2,1.8-.6.1-1.1-.2-1.6-.2-1.1,0-2.3.3-3.5.2-1-.1-2-.6-2.9-.9-.7-.2,0,1,.2,1.2,2,2,6.5,1.9,9,1.1.6-.2,1-.7,1.5-.8.2,1-.5,1.3-1.3,1.7-1.4.6-3.1.9-4.6.8,0,.3.7.4.9.5,2.2.7,3.3,0,5.5-.3-.2,1.1-2.3,1.7-3.2,1.7-1.8,0-4.8-1.9-6.6-2.7-.7-.3-1.6-.8-2.4-.7.8.5,1.4,1.3,2.1,1.9,2.4,1.9,5.9,4.6,8.9,5.2,1,.2,2.1.3,3.1.3-1,2.6-4.9.3-6.4-.9.6,1.9,2,2.7,3.7,3.5.7.3,2.4.5,2.2,1.4-1.5,1.1-5.4-2.1-6.5-3.2-1.2-1.2-2.4-3.8-4.2-3.8,1.7,3.3,3.9,6.3,6.5,9,1.2,1.4,2.1,2.3,3.1,3.3.2.2.6.4.2.7-4.1-2.2-6.2-6-9-9.5-.3,1-.1,1.8.1,2.6,1.3,1.3,3.2,4.2,4.4,5.6,1.4,1.7,4.3,4.1,5.3,5.7.2.4.3.6.2,1-1.8,0-3.1-1.9-4.2-3.2-1.7-2.2-3.7-5.3-4.4-5.6,0,0-3.6-1-4.6-1.6-2.8-1.8-4.5-4.5-8.1-3.2-.7.3-2.9,2-3,2.7-.1,1.3,2.3-.5,2.3-.4-.4,1.9,1.1,2.8,2.7,2.6.8-.1,1.4,0,2-1.2.3-1-.9-1.5.1-1.2.6.2,1.8,1.4,2.7,1.7,3.2,1.2,6.1.9,6.9,4.9-.4,0-2.9-2.7-3.1-2.8-.3-.2-.7,0-.7.2,0,.2,3,2.7,3.4,3.7.3.8.1,1.6.2,2.4-1.5-1.6-2.5-4.4-5.1-4.4,1,1.1,2,1.9,2.9,3.2,2.4,3.3.8,4.5.1,7.1ZM82.9,43.7c1.6.9,3.5,1.2,5.3,1.1-1.3,1.3-4.9.9-5.3-1.1ZM137.4,67.9c-.4.8-1,1.8-2.1,1.8,0,0,.3-2.2.6-2.9.4-1.2,2.4-4.4,2.4-4.4,1.1.6-.5,4.6-.9,5.5ZM135.8,78.4c-.2-.2-1.3-1.5-1.1-1.6,2.7,1,5.3,2.2,8.3,2.2v-.5c-2.5-1.7-5.3-2.9-8.1-3.9l-.4-.6,6.7.2c3.5.2,6.8,3.3,8.8,6,.2.2.4.3.3.7-2.3,0-4.7.1-6.9,0-2.5-.2-5.7-.6-7.6-2.3ZM149.8,93.1c.5.2.7,1,.8,1.5,1.3,4.4,1.2,10,1.4,14.6l-2.2-16.1ZM153.8,107l-1.1-13.2c.4,0,.5,1,.6,1.3.5,2.1.7,5.2.7,7.4,0,1.5,0,3.1-.2,4.5ZM156,105.6c-.4,0-.4-.4-.4-.8-.2-1.7,0-3.8,0-5.5,0-1.3-.4-2.7-.2-4.2,0-.3.2-.7.4-.3.6,3.6.5,7.2.2,10.8Z"/>
    <path class="st3" d="M97.4,66.6c-2.6,2.9-.5,6.7,0,6.6.3-.3-.2-3-.2-3.6,0-.8.4-2,.2-3Z"/>
    <path class="st3" d="M113.6,75.3c-1.3,0-2.6-.6-3.5-.4-1.2.3,4.2,5.3,7.1.1-.1-.8-1.6.2-3.6.2Z"/>
    <path class="st3" d="M117.5,53.4c1.1,3.5,4.7,6.3,8.5,5.1v-.7c-2.4,0-4.6-1.3-6.5-2.8-.3-.2-1.7-1.9-2-1.6Z"/>
    <path class="st3" d="M122.5,43.9c-1.2.1-3.3.2-4.6,2-2.2,2.9-1.7,5-1.7,5.5.3.2,1.6.2,1.9,0,.1,0,.8-2,2.1-2.8,3.2-2.1,7.6-.3,10.6,1.6l-2.1-2.6,2.1.2c-1.9-2.3-5.5-4-8.4-3.7Z"/>
    <path class="st3" d="M123.5,64.6c-2.2-1.4-2-2.7-3.4-4-.5-.4-2.4-1.8-2.9-2-.5-.2-.4,1.8-.3,2.1.2.5.7.2,1.1.4,1.9.7,1.6,4.1-.4,3.1-.4-.2-.9-1.3-.9-1.3-1.4,1.8-3.3,2.1-5.5,1.3-1.7-.7-2-4.5-.2-6.6-.6,0-1,.1-1.5.4-3.8,1.8-2.5,4.6-7.3,6.9-2,.9-2.7,1.6-2.9,2.5-.2.8-1.7,4.9-.2,4.1.3-.1.5-1.8,1.4-1.2.5.4.8,4.5,1.4,4.5,1.5-1.9-.9-4.4,2.8-3.9,3.6.4,5.2,2.9,9.4,2.6,3.1-.2,6-2.6,9-3.1,0,0,1.3,2.4,1.4,3.5,0,.8-.3,1.6-.2,2.5,1.3-1.6,1.1-4,1.3-6,.9-.2,2.3,3.2,2.9,2.6.3-1.4-2.1-5.2-2.9-6.4-.4-.7-.9-1.2-2.2-2ZM108.5,62c.3.9.7,2.3-.4,2.5-2,.4-1.1-2.3.4-2.5ZM113.3,70.9c-3,0-6.5-1.2-11-3.1,0,0,1.5-.8,1.9-1.1.4-.4,1.1-1.5,1.1-1.5,3,1.2,5.8,3.7,9.3,2.3.7-.3,1.4-1,1.9-1.2.6-.2,1.4-.1,2.2-.5.7-.3,1-.8,1.7-1.1.9,2.5,1.5,2.1,2.6,3.3-3.7,1.6-6.2,3-9.8,2.9Z"/>
    <path class="st3" d="M110.5,36.4c4.2.2,8.5-.4,12.7-.2.7-.6-2.3-1.1-2.5-1.1-2.2-.2-4.3.2-6.4.2-4.4,0-9.1-1-13.3.9-.3.1-.7.3-.8.7,3.3-1.6,6.8-.6,10.2-.4Z"/>
    <path class="st3" d="M115.8,40.1c.8,0,1.7-.3,2.6-.5.8-.1,1.6-.4,2.4-.4,6.3,0,6.3.6,7.8.9-1-1.5-5.7-2-5.7-2-2.9-.3-6,.7-8.9.7s-5.9-1-8.9-.7c0,0-4.6.5-5.7,2,1.4-.3,1.5-.9,7.8-.9s1.6.2,2.4.4c.9.2,1.8.4,2.6.5.6,0,3,0,3.6,0Z"/>
    <path class="st3" d="M130,73.5c.6-.6,1.4-4.2.8-4.9,0,0-.6,2.1-.6,2.6,0,.4-.1,2.3-.1,2.3Z"/>
    <path class="st1" d="M146.4,57.4c0,.2-.2.8.2.8,3.6-9.5.3-22.7-5.3-31-13-19-45.8-18.6-57.4,1.7-4.4,7.8-6.8,18.7-4.7,27.5l.8,2c-.1-1.4-.9-3.3-.9-4.7.3-9,3.6-20.7,9.5-27.6,13-15.2,39.9-13.9,51.1,2.7,6,8.9,7.5,18.1,6.7,28.6Z"/>
    <path class="st1" d="M78.2,35.5c.7-2.4-2.2-4.2-2-6.6,1.2.8,2.3,4.5,4,2.8-.9-.6-3.4-5.7-2.6-6.3,1.3-.2,2.5,3.7,3.2,3.7,2.3-1.9-.8-3.7-.8-6,.4-.5,2.4,2.5,2.5,2.9.8-.2,2.6-3.2,3.4-4.1,13.1-14.1,41.9-14.9,53.9.8.5.7,3.5,4.6,3.8,4.6.8.2,2.3-3.7,2.3-3.7.2,1.9-.7,3.5-1.8,5,.7,1.7.9,1.5,1.7.2.8-1.2,1-2.6,1.7-3.8.2-.3,0-.5.6-.4.5.4-.6,3.6-.9,4.3-.6,1.3-2.7,2.8-.8,3.6.4-.2,1.5-2.1,1.8-2.6.4-.8.6-2.2,1.5-2.4.4.4-.8,3.3-1.1,3.8-1,1.8-2.8,2.4-1,4.8,2.7-3.2,5.2-8.3,2.4-12.1-1.5-2.2-4.6-3-6.6-4.6-.4-.2-1.8-2-3.7-3.8-1.3-1.2-2.7-2.4-4.2-3.1-.1,0-.3-.1-.4-.2-3.2-1.2-6.9-.7-10.3-1.6-3.6-.9-6-3.5-9.9-4.2-5.8-1.1-9.5,1.8-14.6,3.5-4.1,1.3-8.5,1.2-12.1,3.8-1.5,1.1-2.9,2.8-4.4,3.9-3.2,2.4-7.4,3.7-8.9,7.9-1.2,3.6-.5,5.3,1.6,8.2.2.3,1.5,2.1,1.8,1.9Z"/>
    <path class="st1" d="M76.5,55.9c-.1-.7-3.2-4.2-3.9-5.3-.8-1.3-1.4-4.4-1.4-4.4,1.2,1.7,2.1,3.7,3.5,5.3.3.4.8,1,1.3,1,.7-.7-5.1-6.7-2.4-8.2.7,1.4.8,3.3,2.2,4.2.3-.9-.3-2.5-.2-3.2,0-.6.9-.8.6-1.8-.3-.9-4-2.4-4.4-3.8.2-.3.3-.3.7-.3.9.1,2.4,1.4,3.3,1.8.2,0,.5.2.6-.2.2-.8-2.9-2.6-3.4-3.7-.1-.3-.2-.6.2-.6.7,0,2.8,2.5,4.1,1.8l-4-5.5c-2.2,4.2-5.1,8.4-4.4,13.5.4,2.4,4,6.8,5.8,8.6.2.2,1.8,1.7,1.7.8Z"/>
    <path class="st1" d="M74.6,60c-.1-.2-.7-1.2,0-.9,1.4.6,3.1,4.8,5.6,4.2-2.5-2.1-3.8-4.7-6.4-6.7-.2-.2-.9-.7-1.1-.6.4,1.4,0,2.7.6,4.2.9,2.5,5.8,6.2,8.4,6.4.5,0,.6.2.5-.4-3.1-1.2-5.7-3.4-7.6-6.2Z"/>
    <path class="st1" d="M148.2,38.1c0,.2.4,1.3.7,1.2.3-.1,1.6-1.9,1.9-1.5.3,1.5-1.7,2.4-1.8,3.4,0,.9.9,2.6.4,3.8,1.3-.6,1.8-2.8,2.6-3.6.2-.2.4-.2.7-.1.3.3-1.5,4.1-1.9,4.6-1.9,1.8-.7,2.6-.7,2.6,1.7-1,4-4,4-4-.5,1.3-1.2,2.5-1.9,3.6-1.3,1.8-2.8,2.5-2.5,5h.4c1.6-2.4,4.2-4.3,5.2-7.4,1.5-4.8-1.9-8.2-4.2-11.9-.4.9-2.8,3.7-2.9,4.3Z"/>
    <path class="st1" d="M150.4,80.7c0-.4-.2-.4-.3-.7-2-2.7-5.3-5.7-8.8-6l-6.7-.2.4.6c2.9,1,5.7,2.2,8.2,3.9v.5c-3.1,0-5.7-1.2-8.4-2.2-.2.2,1,1.5,1.1,1.6,1.9,1.8,5.1,2.2,7.6,2.3,2.3.1,4.7,0,6.9,0Z"/>
    <path class="st1" d="M151.9,53.7c-1.9,1.5-2.6,3.1-3.8,5,0,.1-2.1,2.4-1,1.9l3.6-3.5c0,.4,0,.7-.2,1-.7,1.2-4.3,3.2-4.6,4-.3.8,1.1-.2,1.3-.3.7-.5,1.3-1.2,1.9-1.8.1.4-.5,1.3-.8,1.7-.5.6-1.9,2-2.5,2.5-1.3,1-3,1.3-3.9,2.5.9.2,2.3-.4,3.1-.8,2.6-1.3,7.5-6,7.5-9.1v-3.4c-.4,0-.4.2-.7.3Z"/>
    <path class="st1" d="M92.8,76v-.2c0-.1,0-.2-.1-.4l-6.3.8c-3.2.2-7.2,3.9-9.2,6.2,2.1,0,5.6-.4,7.7-.5,5-.2,8.2-3.6,8.1-3.8-3.4.4-7.2.5-7.2.5,2.3-1.5,4.4-1.7,7-2.6Z"/>
    <path class="st1" d="M107.2,97.9c-1.8-.5-5.1-6.9-5.9-8.7-.8-1.8-1.2-4-2.4-5.4,1.1,5.8,3.3,13.8,9,16.7.8.4,4.5,1.7,5.3,1.7.5,0,4.1-1.4,4.8-1.7,6.8-2.9,8.7-10.8,9.6-17.5-.3,0-1,.5-1.2.8-1.5,1.5-1.9,3.6-2.8,5.4-1.4,2.9-2.9,6-5.2,8.3-.8-.7.4-1.8.7-2.6,1.2-2.6,2.2-5.3,2.9-8.1-.3-.4-.7.3-.8.5-1.1,1.6-1.8,3.9-2.9,5.6v-1.8c0-.8.9-2.6.6-3.2-.1-.3-.3-.2-.4,0-1.2,1.7-.7,4.7-1.1,6.6-.1.7-1.4,3.3-2,3.5-.4.2-.4-.2-.3-.5.3-1.2,1-2.2,1.1-3.6,0-.6-.2-4.1-.5-4.3-.3-.3-.4,0-.5.3-.3.9-.6,3-1.1,3.9l-2.1-3c-.2.3,1.4,3.5.4,3.2-1.6-.5-3.9-6.1-4.5-6,.2,1.1.6,2.2,1.1,3.2.5,1.3,1.7,2.8,2.1,3.9,0,.2.2.6-.2.6-1,0-3.9-4.9-4.4-5.9-.4-.7-.6-1.8-1-2.3-.1-.2-.3,0-.3.1-.1.4.9,3.1,1.2,3.7.7,1.5,2.1,3.3,2.6,4.7,0,.2.2.8,0,.9-1.2-1-2.2-2.1-3.1-3.3-1.1-1.6-1.7-3.5-3-5.1.4,1.7,1.2,3.5,2.1,5.1.5.9,2.4,3.4,2.5,4.1,0,.3,0,.4-.3.3Z"/>
    <path class="st1" d="M112.1,110.1c-2.6.6-2.7,5.1.4,5.5,4.1.5,3.8-6.4-.4-5.5Z"/>
    <path class="st1" d="M138.7,45c1.3,0,3.7.9,4.2-.9-.2-.2-2.9.4-3.3.5-.3,0-.9,0-.8.4Z"/>
    <path class="st1" d="M88.1,44.8c-1.8,0-3.7-.2-5.3-1.1.3,2,4,2.4,5.3,1.1Z"/>
    <path class="st1" d="M90.4,67.3l-2.7-4.3c-.3,1.9.3,4.4,1.7,5.7,1.6,1.6,1.7-.2,1-1.5Z"/>
    <path class="st1" d="M84.9,60.9c-.5,1.4-.7,4.6.4,5.7.4-.8-.1-1.7,0-2.5,0-2.5,2.3-4.6,3.3-6.8-.8-.6-3.4,2.8-3.6,3.5Z"/>
    <path class="st1" d="M91.2,50.1c-1,.9-1.8,2.4-2.8,3.3-2.2,2-7.2,3.6-7,7.2,0,.4,0,.7.3,1,.7-1.6,1.1-2.6,2.4-3.7,2.6-2.2,6.7-3.7,6.9-7.7Z"/>
    <path class="st1" d="M110,20.4c.7.8,2.4,3.6,2.4,3.6.4-2.3-2-5.6-4.4-5.5,0,0,1.5,1.4,2,1.9Z"/>
    <path class="st1" d="M113.3,21.8c.3-.5,4-3.1,3.5-3.5-1.8-.2-3.4,1.9-3.5,3.5Z"/>
    <path class="st1" d="M135.9,66.8c-.2.7-.6,2.9-.6,2.9,1.1,0,1.7-.9,2.1-1.8.4-.9,2-4.9.9-5.5,0,0-2,3.2-2.4,4.4Z"/>
    <path class="st1" d="M130.3,57.3c2.5,0,3.6,2.8,5.1,4.4,0-.8.1-1.6-.2-2.4-.4-1-3.3-3.4-3.4-3.7,0-.1.3-.4.7-.2.2,0,2.7,2.7,3.1,2.8-.8-4-3.7-3.8-6.9-4.9-.9-.3-2.1-1.5-2.7-1.7-1-.3.2.2-.1,1.2-.6,1.1-1.2,1.1-2,1.2-1.6.2-3.1-.7-2.7-2.6,0-.1-2.4,1.7-2.3.4,0-.7,2.3-2.5,3-2.7,3.6-1.3,5.3,1.3,8.1,3.2,1,.7,4.6,1.6,4.6,1.6.8.3,2.7,3.4,4.4,5.6,1,1.3,2.4,3.2,4.2,3.2,0-.4,0-.7-.2-1-1-1.6-3.9-4-5.3-5.7-1.2-1.5-3.1-4.3-4.4-5.6-.3-.8-.4-1.7-.1-2.6,2.8,3.5,4.9,7.3,9,9.5.4-.2,0-.5-.2-.7-1-1-1.9-1.9-3.1-3.3-2.6-2.7-4.8-5.6-6.5-9,1.8,0,3,2.5,4.2,3.8,1.1,1.1,5,4.3,6.5,3.2.3-.8-1.5-1-2.2-1.4-1.7-.8-3.1-1.6-3.7-3.5,1.5,1.1,5.3,3.5,6.4.9-1,0-2.2,0-3.1-.3-3-.6-6.5-3.3-8.9-5.2-.7-.6-1.3-1.4-2.1-1.9.7,0,1.7.4,2.4.7,1.7.8,4.8,2.7,6.6,2.7.9,0,3.1-.7,3.2-1.7-2.2.2-3.3.9-5.5.3-.3,0-.9-.2-.9-.5,1.5,0,3.2-.2,4.6-.8.8-.3,1.5-.6,1.3-1.7-.6,0-1,.6-1.5.8-2.5.9-7,.9-9-1.1-.2-.2-.9-1.4-.2-1.2.9.2,1.9.8,2.9.9,1.2.1,2.4-.2,3.5-.2.4,0,.9.3,1.6.2.7-.1,1.4-1.1,1.2-1.8-.4.2-1.5.2-1.5.2-3.9,1.1-8.5,1-11.3-2.3,2.7.2,5.3,1.3,8.1.6,1.1-.3,3.8-1.7,2.6-3.1l-2.2,1.6c-2.9,1.3-5.8.8-8.5-.5.3-.6,1.4,0,1.9,0,2.1,0,5.6-.4,6.9-2.4.6-1,.6-2.6-.5-1.4-2.5,2.8-4.1,2.8-7.7,3.1-.3,0-3,.5-3.9.2-.5-.7,1.2-1.1,1.7-1.3,2.2-.6,4.7-.4,6.7-1.5.9-.5,2.4-1.9,1.4-3-2.8,3.4-8.6,2.5-12.5,4.2-.4-.6,1.2-1.6,1.6-1.8,2.2-1.1,7.7-1.1,9.2-2.7.2-.2.6-.8.4-1-.9-.4-1.8.4-2.8.6-1.9.5-3.8.7-5.7,1.4-.9,0-5.2,3-5.5,2.9-1.1-.3.7-2.1,1.1-2.4,2.7-2.3,6.2-2.4,10.3-3.5.2,0,0-.7,0-.7-.4-.6-4.5.2-5.3.4-1.9.5-4.3,2-5.8,3.2-.4.3-2.4,2.8-2.9,2.3.3-2.3,2.8-4.4,4.6-5.6,2.1-1.3,2.7-1.3,6.8-1.9.2,0,0-.7-.1-.7-4.5.3-8,1.3-10.7,4.3-.8.9-1.4,2.1-2.2,2.9-.2.2-.2.6-.7.5.6-4.1,3.8-6.5,7.9-9.1.1,0,.1-.7,0-.7-5.4,2.8-7.5,4-8.8,7.9-.3.2-1.7-3.5-1.9-3.9-1.1-2-3.4-4.2-5.9-4.1-.4,0-.9,0-1,.5,4.1,1.4,7.2,5.3,7.9,9.5-.4,0-.5-.2-.8-.4-1.5-1.2-2.6-3-4.1-4.3-2.4-2-5-3.2-8.2-2.8,0,.4.3.7.6.8,2,1.3,4.1,1.1,6.6,3.1.6.5,4,4.1,3.4,4.6-.5,0-1,0-1.6,0-1.8-.4-6.7-2.2-8.4-3-1.3-.6-2.5-1.2-2.6-2.8,2.5,1.8,5.7,1.8,8.3,3.3.3-.3-.5-1-.8-1.2-2.3-1.9-5.8-2.2-8.6-2.8-.8,6.2,6.4,4.4,9.5,7.2h-2.1c-3-.2-6.1-.6-8.4-2.7l-1.6-2.9c-1,6.1,5.9,6.1,10.1,6.9,0,0-8,1.3-10.7-1.3-.6-.6-1-1.6-1.7-2.2-.2,2.8,2,4.3,4.4,5,1.1.3,2.8.3,3.8.6.2,0,.4.3.4.5-.3,1.2-3.4.8-4.4.6-3-.6-5.6-2.6-5.9-5.8-1.8,2.3,1.4,5.5,3.6,6.3,1.7.6,3.5.4,5.2.7.4,0,.4-.1.3.4-3.3,1.4-6.7,2-9.9-.1l-2.2-2.3c-.4,2.8,2.9,4.9,5.4,5.1,2.2.1,3.9-.8,5.9-1.4.2,0,.7-.3.8,0-2.6,2.9-9,4.8-12.3,2.4-.2-.1-1.7-1.9-1.6-.9.2,2,2.5,3.1,4.3,3.2,3.6.3,6.3-1.8,9.6-2.7-.9,1.2-2.8,1.9-3.8,3.1,0,0-6.1,3.8-9.4,4-.9,0-1.7-.1-2.5-.2-.2.8.4.9,1,1.1,3.4,1.2,5.9-.5,8.2-2.9.2-.2.8-.8.7-.4-.8,2.8-6.6,7.7-9.4,8.1-.5,0-.9,0-1.4-.1-.7.7.4,1.4,1,1.4,2.8.3,7.4-3.8,9-6,.2-.3,1.7-2.3,2.6-3.8-.7,3.6-.6,5.1-.6,5.5,0,.5,1.3,1.9,1.1,2.1-1.9-.6-1.6,1.1-1.6,1.1.4.1,3.1-.7,3.6-1,1-.5,1.6-1.8,2.6-2.5,2-1.5,4-1.7,6.2-.5l2.7,2.3c-1.7-5.3-8.2-5.7-11.4-.7-.2.3-.5.5-.7.3.6-1.2.5-1.2,1.7-2.9-1.6.6-2.3,1-3.3,2.2-.3,0-.2-.3-.2-.5.2-.5.8-1.4,1.2-1.9,3.1-4.3,9.4-5.2,13-2.4,1.3,1,2.9,4.1,2.8,5.7-.1,1.7-3,5.4-4.6,6.2-1.2.6-3.1,1.4-4.4,1.3,0,0,5.3-2.5,5.4-4.6-1.2,1-2.9,1.2-3.6,1.3,0,0,4.4-1.8,3.7-2.8l-2.4-1.3s.1.9-.1,1.3c-.4.8-1.3.9-2.1,1-1.4,0-2.8-.5-2.4-2.1-.4-.2-.9.2-.9.6,0,.3,0,.4.3.6-1.8,0-6,1.6-7.2,2.8-.5.5-1.6,2.7-1.7,3.5,1.2-.7,2-2.3,3.2-2.8.4-.2.4-.4.7,0-1.2,1-3.6,3.5-3.5,5.1,0,.3,0,.7.5.8,1.1-2.8,3.4-4.3,6.2-5.1.2,1-1.1,1-1.8,1.4-2.4,1.4-4,3.9-3.9,6.8,0,2,1.4,5.6,1.8,5.7,0-2.7.6-6.3,3.1-7.7-.8,1.7-1.8,3.5-2,5.4,0,1,.2,2.7-.2,3.5,0,.1-.5.1-.5.3,2.9,7.5,10.7,10.8,10.4,9.9-.2-.6-.8-1.8-1.2-2.9,0-.3-.2-.6.2-.5.6.3,2.7,3.6,4.1,4.5,5.6,3.4,12.3,1.6,14.9-5.4.7,2.1-.4,3.1-.9,4.4.8.7,6-3.2,6.3-3.5,2.2-2.1,4.9-6.6,4.1-9.7-.2-.6-.6-1.2-.8-1.8-.3-1-.5-2.1-1-3.1.7,0,1.1.9,1.3,1.5.4,1.1,1.2,2.8,1.5,1.7.7-2.7,2.3-3.9-.1-7.1-.9-1.3-1.9-2-2.9-3.2ZM97.4,73.2c-.5.1-2.6-3.8,0-6.6.2,1-.2,2.1-.2,3,0,.6.5,3.3.2,3.6ZM119.5,55c1.9,1.5,4.1,2.8,6.6,2.8v.7c-3.9,1.2-7.5-1.6-8.6-5.1.3-.3,1.7,1.4,2,1.6ZM130.8,47.6l-2.1-.2,2.1,2.6c-3.1-1.9-7.5-3.6-10.6-1.6-1.3.8-2,2.8-2.1,2.8-.4.2-1.7.2-1.9,0,0-.5-.5-2.6,1.7-5.5,1.4-1.8,3.4-1.9,4.6-2,2.9-.3,6.5,1.5,8.4,3.7ZM101,36.1c4.1-1.9,8.8-.9,13.3-.9,2,0,4.2-.4,6.4-.2.2,0,3.2.5,2.5,1.1-4.2-.2-8.5.4-12.7.2-3.4-.1-6.9-1.2-10.2.4,0-.4.4-.5.8-.7ZM109.6,39.6c-.8-.1-1.6-.4-2.4-.4-6.3,0-6.3.6-7.8.9,1-1.5,5.7-2,5.7-2,2.9-.3,6,.7,8.9.7s5.9-1,8.9-.7c0,0,4.6.5,5.7,2-1.4-.3-1.4-.9-7.8-.9s-1.6.2-2.4.4c-.9.2-1.8.4-2.6.5-.6,0-3,0-3.6,0-.8,0-1.7-.3-2.6-.5ZM110.1,74.9c.9-.2,2.2.4,3.5.4,2,0,3.5-1.1,3.6-.2-2.9,5.1-8.3.2-7.1-.1ZM128.5,73c-.6.5-2-2.8-2.9-2.6-.3,1.9,0,4.4-1.3,6-.1-.8.3-1.6.2-2.5,0-1.1-1.4-3.5-1.4-3.5-3,.5-5.9,2.9-9,3.1-4.2.3-5.8-2.2-9.4-2.6-3.7-.4-1.3,2-2.8,3.9-.6,0-.9-4.1-1.4-4.5-.8-.6-1.1,1-1.4,1.2-1.5.8,0-3.3.2-4.1.3-.9,1-1.6,2.9-2.5,4.8-2.3,3.5-5.1,7.3-6.9.5-.2,1-.4,1.5-.4-1.8,2.1-1.6,5.9.2,6.6,2.1.9,4,.5,5.5-1.3,0,0,.6,1.2.9,1.3,1.9,1,2.3-2.3.4-3.1-.5-.2-1,.1-1.1-.4,0-.3-.2-2.2.3-2.1.5.1,2.4,1.6,2.9,2,1.4,1.3,1.2,2.6,3.4,4,1.3.8,1.7,1.3,2.2,2,.8,1.2,3.1,5,2.9,6.4ZM130.7,68.6c.6.7-.2,4.3-.8,4.9,0,0,0-1.9.1-2.3,0-.4.6-2.6.6-2.6Z"/>
    <path class="st1" d="M108.1,64.5c1-.2.7-1.6.4-2.5-1.5.2-2.4,2.9-.4,2.5Z"/>
    <path class="st1" d="M120.5,64.6c-.7.3-1,.8-1.7,1.1-.8.3-1.5.2-2.2.5-.6.2-1.2.9-1.9,1.2-3.5,1.4-6.3-1.1-9.3-2.3,0,0-.8,1.1-1.1,1.5-.4.4-1.9,1.1-1.9,1.1,4.6,1.9,8,3.1,11,3.1,3.6,0,6.1-1.3,9.8-2.9-1.1-1.2-1.7-.9-2.6-3.3Z"/>
    <path class="st1" d="M137.8,84c1.5,3.6,3.7,6.9,4,10.9h-.7c-.1-2-1.2-4.3-2.2-6.2-.4-.7-3.4-5.9-3.7-6-.3-.1-.4,0-.3.3.4,1.3,2,3.4,2.6,4.9.3.8,1.2,2.7,1.1,3.5h-.4c-.9-1.9-1.8-4-2.9-5.9-.4-.7-2.6-4-3.2-4.1-1.4-.3.4,1.9.7,2.4,4.8,9,6.5,18.8,8.5,28.6v.5c-.4.8-3.4,1.8-4.3,2.2-11.7,4.2-27.7,5.2-39.8,2.4-2.6-.6-9.3-2.6-11.3-3.9-.3-.2-.5-.2-.5-.6,0-.8.8-2.7.9-3.7,1.4-7.5,2.5-14.7,5.5-21.8.7-1.6,2.1-3.7,2.6-5.1,0-.2.2-.8,0-.9-3.5,2.3-4.3,6.7-6.5,10-.5.3,0-1,0-1.1l2.8-6.3c-2.2,2.5-3.6,5.5-5,8.6h-.6c-.5-.4,2.5-5.5,2.6-6.5,0-.3,0-.7-.3-.5-1.1.5-4.2,6.2-4.8,7.6-2.5,5.9-4.3,12.7-5.9,19.6,10.2,7.7,22.9,12.3,36.6,12.3s26.4-4.6,36.5-12.2c-2.3-10-5.7-22.8-11.3-28.3-.2-.2-.4-.5-.8-.4Z"/>
    <path class="st2" d="M73.1,95.9c-.9,4.1-.3,8.1-.1,12.3l.4.3.4-14.3c-.6.3-.6,1.2-.8,1.8Z"/>
    <path class="st2" d="M155.3,95.2c-.2,1.4.2,2.9.2,4.2,0,1.7-.2,3.9,0,5.5,0,.3,0,.7.4.8.3-3.6.4-7.2-.2-10.8-.3-.4-.4,0-.4.3Z"/>
    <path class="st2" d="M153.3,95c0-.3-.3-1.2-.6-1.3l1.1,13.2c.3-1.4.3-3.1.2-4.5,0-2.2-.3-5.3-.7-7.4Z"/>
    <path class="st2" d="M149.8,93.1l2.2,16.1c-.2-4.6,0-10.2-1.4-14.6-.2-.5-.3-1.3-.8-1.5Z"/>
    <path class="st2" d="M76,94.3c-1,3.2-1.1,8.5-.7,11.9,0,.3,0,.7.4.8-.2-4.7.4-9.3,1.1-13.9-.5.2-.7.8-.8,1.3Z"/>
    <path class="st2" d="M128.7,107.7c-2.7,1.9-6.9.2-9.1-1.9-1-.9-1.5-1.2-2.9-2.4-.5-.4-.3.7-.2,1,1.4,3.4,6.4,6,10,5.9,5.6,0,7.9-7.1,8.4-11.7.1-1.1-.5-3.6-.5-3.6-.7,1.6-.9,3.5-1.4,5.2-.7,2.4-2.2,6-4.3,7.4Z"/>
    <path class="st2" d="M123,105.8c-.1.1.4.6.5.5.8,0,5.2-4.4,5.6-8.8,0,0-3.5,5.7-6.2,8.3Z"/>
    <path class="st2" d="M100.3,99c.3,1.4,1.4,2.8,2.5,3.7.7.6,2.3,1.8,2.5.2-.6-.2-1.4-.7-1.9-1.1-.4-.3-2.8-3.2-3.2-2.9Z"/>
    <path class="st2" d="M97.7,104.8c.3.4,2.5,2.7,3,2.2,0-.4-.2-.5-.4-.8-2.8-3.5-3.8-4.6-5-9.2l-1.2-5.5c-.3,1.5,0,3.4.3,4.9.5,2.7,1.6,6.2,3.4,8.3Z"/>
    <path class="st2" d="M97.3,96.2c.2.7,1.7,10.1,6.1,9.9-.8-1.2-2.4-1.9-3.1-3.2-1.1-2.2-4-13.3-4-13.3-.1,2.3.3,4.5.9,6.7Z"/>
    <path class="st2" d="M99.5,108c-1.6-.3-4.3-3.4-5-4.9-1.2-2.7-1.8-5.6-2.5-8.5-.6.2-.5,1.3-.4,1.9.1,3.8,1.2,9.6,4.1,12.2,3.6,3.2,8.9,1.2,11.9-1.8.5-.5,2-2.5,1.8-3.1,0,0-5.9,4.8-10,4.2Z"/>
    <path class="st2" d="M125.7,107.2c2.5-.9,3.8-2.9,4.9-5.2,1.5-3.3,2.1-7.1,2-10.7-.3,0-.4.4-.4.6-.7,4.2-1.1,8-3.6,11.6-.9,1.4-2.4,2.1-2.9,3.6Z"/>
    <path class="st2" d="M129.8,89.5c-1,4.5-3.9,9.8-7.5,12.7-.4.3-2,.8-1.5,1.4.4.6,2.8-1.2,3.2-1.5,1.6-1.4,3.8-4.3,4.9-6.3,1.2-2.1,1.1-4.5,1.1-5.1,0-.3.2-1.2-.2-1.2Z"/>
    <path class="st3" d="M173.1,60.3c-1.3,1.6-2.5,5.2-2.6,7.2-.2,3.3,1.1,6.1,2.3,8.9.8-3.9,1.2-8,1.2-12.2s0-3.1-.2-4.7c-.2.1-.5.4-.8.7Z"/>
    <path class="st3" d="M161.6,80.2c-6.2,1.1-3.6,4.1.7,4.8,3.6.6,5.6-.2,8.6-1.1.3-.9.6-1.8.8-2.7-3.5-.6-6-1.7-10.1-1Z"/>
    <path class="st3" d="M168.4,66c-.3-2.5-.3-5.1.3-7.5,1.8-.4,3.4-.8,5-1.5-.2-1.7-.5-3.3-.8-5-1.4,1-2.2,2.2-3.6,3.5-.2.2-.3.4-.6.4.8-2.1,1.7-4.7,3.1-6.4.1-.2.3-.3.4-.4-.2-.7-.4-1.3-.6-2-.4.7-.8,1.3-1.1,1.9-.1.2-.1.5-.5.5,0-1.3.8-2.5,1.1-3.8-.8-2.4-1.7-4.7-2.7-6.9-.6.9-1.2,2.3-1.4,2.9-.7,2.3-.3,5.2.5,7.5.2.7.4,1.1,1.1,1.4v.3c.1,0-.9,4-.9,4l-.5-1.5c-.2-2.1-1-6-3-7-2.4-1.3-2.5,1.9-2.3,3.5.5,3.6,2,6,4.8,8.2,0,1.6-.4,3.2-.3,4.8,0,2.3.6,4.7.7,7-.1.3-.3,0-.4-.2-.5-1.4-.7-3.2-1.1-4.7-.8-2.7-2.6-6.9-4.7-8.7-1.3-1.2-2.1-.8-2.2.9-.3,6,2.8,9.4,6.1,13.6,1.2,1.5,2.3,3.1,3.4,4.6h-.8c-3.7-1.7-7.3-3.7-11.3-4.8-2.4-.7-8-1.9-4.4,2.4,2.6,3.1,7.2,4.3,11.1,4.1.7,0,1.7-.3,2.4-.3,1.3,0,2.7.6,4.1.4.8,1,1.6,1.9,2.6,2.8.2-.6.3-1.3.5-1.9-1.6-1.8-2.8-4-3.3-6.2-.4-1.7-.7-4-.8-5.8Z"/>
    <path class="st3" d="M64.4,84.9c4.3-.7,6.8-3.6.7-4.8-4.1-.8-6.6.4-10.1,1,.3.9.5,1.8.8,2.7,3,.9,5.1,1.7,8.6,1.1Z"/>
    <path class="st3" d="M57.2,77.2c1.4.2,2.8-.4,4.1-.4.7,0,1.7.3,2.4.3,3.9.1,8.5-1,11.1-4.1,3.6-4.4-2-3.1-4.4-2.4-4,1.1-7.6,3.2-11.3,4.9h-.8c1.2-1.6,2.3-3.2,3.4-4.7,3.3-4.2,6.4-7.7,6.1-13.6,0-1.8-.9-2.1-2.2-.9-2.1,1.9-3.9,6.1-4.7,8.7-.4,1.5-.6,3.3-1.1,4.7,0,.2-.2.5-.4.2,0-2.3.7-4.7.7-7,0-1.6-.3-3.2-.3-4.8,2.8-2.2,4.3-4.6,4.8-8.2.2-1.6.1-4.8-2.3-3.5-2,1-2.8,5-3,7l-.5,1.5-1.1-4v-.3c.8-.3,1-.7,1.2-1.4.8-2.3,1.2-5.2.5-7.5-.2-.7-.7-2-1.4-2.9-1,2.2-1.9,4.6-2.7,6.9.3,1.3,1.1,2.5,1.1,3.8-.3,0-.3-.2-.5-.5-.3-.6-.7-1.2-1.1-1.9-.2.7-.4,1.3-.6,2,.1.1.3.3.4.4,1.4,1.7,2.3,4.4,3.1,6.4-.3,0-.4-.2-.6-.4-1.3-1.3-2.1-2.5-3.6-3.5-.3,1.6-.6,3.3-.8,5,1.6.7,3.2,1.1,5,1.5.6,2.4.5,5,.3,7.5-.2,1.7-.5,4.1-.8,5.8-.5,2.2-1.7,4.4-3.3,6.2.2.7.3,1.3.5,1.9,1-.8,1.8-1.7,2.6-2.8Z"/>
    <path class="st3" d="M56.1,67.5c-.1-2-1.3-5.7-2.6-7.2-.3-.4-.5-.6-.8-.7-.1,1.5-.2,3.1-.2,4.7,0,4.2.4,8.2,1.2,12.2,1.2-2.8,2.5-5.6,2.3-8.9Z"/>
    <path class="st2" d="M176.8,54.7c-.2-1.4-.5-2.8-.8-4.1-.2-1-.5-2.1-.7-3.1-.4-1.4-.8-2.7-1.2-4.1C165.4,18.2,141.5,0,113.3,0s-52.2,18.2-60.8,43.5c-.5,1.3-.9,2.7-1.2,4.1-.3,1-.5,2-.7,3.1-.3,1.4-.5,2.7-.8,4.1-.5,3.1-.7,6.3-.7,9.5,0,5,.6,9.9,1.7,14.6.3,1.4.7,2.7,1.1,4.1,8,26.3,32.5,45.6,61.5,45.6s53.4-19.2,61.5-45.6c.4-1.3.8-2.7,1.1-4.1,1.1-4.7,1.7-9.6,1.7-14.6s-.2-6.4-.7-9.5ZM52.5,64.2c0-1.6,0-3.1.2-4.7.2.1.5.4.8.7,1.3,1.6,2.5,5.2,2.6,7.2.2,3.3-1.1,6.1-2.3,8.9-.8-3.9-1.2-8-1.2-12.2ZM54.1,78c1.6-1.8,2.8-4,3.3-6.2.4-1.7.7-4,.8-5.8.3-2.5.3-5.1-.3-7.5-1.8-.4-3.4-.8-5-1.5.2-1.7.5-3.3.8-5,1.4,1,2.2,2.2,3.6,3.5.2.2.3.4.6.4-.8-2.1-1.7-4.7-3.1-6.4-.1-.2-.3-.3-.4-.4.2-.7.4-1.3.6-2,.4.7.8,1.3,1.1,1.9.1.2.1.5.5.5,0-1.3-.8-2.5-1.1-3.8.8-2.4,1.7-4.7,2.7-6.9.6.9,1.2,2.3,1.4,2.9.7,2.3.3,5.2-.5,7.5-.2.7-.4,1.1-1.1,1.4v.3c-.1,0,.9,4,.9,4l.5-1.5c.2-2.1,1-6,3-7,2.4-1.3,2.5,1.9,2.3,3.5-.5,3.6-2,6-4.8,8.2,0,1.6.4,3.2.3,4.8,0,2.3-.6,4.7-.7,7,.1.3.3,0,.4-.2.5-1.4.7-3.2,1.1-4.7.8-2.7,2.6-6.9,4.7-8.7,1.3-1.2,2.1-.8,2.2.9.3,6-2.8,9.4-6.1,13.6-1.2,1.5-2.3,3.1-3.4,4.6h.8c3.7-1.7,7.3-3.7,11.3-4.8,2.4-.7,8-1.9,4.4,2.4-2.6,3.1-7.2,4.3-11.1,4.1-.7,0-1.7-.3-2.4-.3-1.3,0-2.7.6-4.1.4-.8,1-1.6,1.9-2.6,2.8-.2-.6-.3-1.3-.5-1.9ZM54.9,81.1c3.5-.6,6-1.7,10.1-1,6.2,1.1,3.6,4.1-.7,4.8-3.6.6-5.6-.2-8.6-1.1-.3-.9-.6-1.8-.8-2.7ZM161.6,101s0,0,0,0c-.3.5-.2.2-.7.9-3.2,4.1-6.9,7.7-11.1,10.8-10.2,7.7-22.8,12.2-36.5,12.2s-26.4-4.6-36.6-12.3c-1.9-1.4-3.7-3-5.4-4.6v-12.8c-.5-.1-.5.2-.6.6-.5,2.5-.3,9.1.2,11.6,0,0,0,0,0,.1-3.4-3.3-6.4-7.1-9-11.1,2.7-2.3,5.8-4.3,9.2-5.8,1.7-.8,3.2-1.4,4.7-2,3.1-1.2,5.5-2.2,8.7-4.5-2.6.3-5.3.6-7.7.4-.7,0-1.6-.1-2.1-.9-.4-.7,0-1.5,0-1.8,2.6-6.1,10.7-8.5,14.6-9.3-.5-.2-1.1-.4-1.6-.6-.5-.2-1-.4-1.4-.6-.4-.2-.7-.4-1-.6-.3-.2-.6-.5-.9-.6-.5-.2-1.1-.2-1.8-.3-.6,0-1.3-.2-1.9-.3-4.6-1.2-10-5.4-10.9-10.8-.1-.8-.2-1.6-.2-2.4,0-.9-.1-1.9-.3-2.7-.3-1-.8-1.9-1.4-2.9-.9-1.4-1.8-2.9-2-5.1-.5-4.9,1.1-7.6,3-10.7.5-.9,1-1.8,1.6-2.8.8-1.6.9-3,1-4.5,0-1.7.2-3.5,1.5-5.7,1.5-2.5,3.9-3.9,6.2-5.3.9-.6,1.8-1.1,2.7-1.7.9-.7,1.8-1.4,2.6-2.1,1.7-1.4,3.4-2.9,5.8-3.9,1.6-.6,3.1-.9,4.6-1.2,1.1-.2,2.1-.4,3.1-.7,1.8-.5,3.4-1.2,5-1.8,1.7-.7,3.2-1.1,5-1.5,1.4-.3,5.8-.3,5.8-.3,1.2,0,2.2,0,3.4.1,1.7.3,3.4.9,4.8,1.6,1,.5,2.1,1.1,3.1,1.5,1.9.7,3.9.9,5.9,1.1,2.4.3,4.9.5,7.3,1.7,2,1,3.3,2.6,4.6,4.1,1.1,1.2,2.1,2.4,3.4,3.3.7.5,1.5.9,2.2,1.3,2.2,1.2,4.2,2.3,5.5,5.4.9,2.1.8,3.9.7,5.4,0,1.7-.2,3.2.9,5,.4.8.9,1.4,1.3,2.1,1.8,2.8,3.3,5.1,2.1,9.8-.3,1.2-1,2.3-1.6,3.2-.5.8-1,1.5-1.1,2-.1.6-.1,1.2,0,1.9,0,.5,0,1.1,0,1.7-.8,7.1-4.4,12.1-10.6,14.4-.7.3-1.4.5-2.1.6-1,.3-1.8.5-2.6,1,3.4.3,6.3,1.6,8.8,3.9.7.7,4.8,5.3,5.2,6.3.2.5.4,1.3,0,1.9-.5.7-1.4.8-2.2.9-2.6.2-5.6-.1-8.6-.5-.9-.1-1.7-.2-2.6-.3,3.1,3,7.1,4.6,11.3,6.2,2.4.9,4.8,1.9,7.1,3.1,1.9,1,3.7,2.3,5.4,3.8-1,1.6-2.1,3.2-3.2,4.7ZM170.8,83.8c-3,.9-5.1,1.7-8.6,1.1-4.3-.7-6.8-3.6-.7-4.8,4.1-.8,6.6.4,10.1,1-.3.9-.5,1.8-.8,2.7ZM172,79.9c-1-.8-1.8-1.7-2.6-2.8-1.4.2-2.8-.4-4.1-.4-.7,0-1.7.3-2.4.3-3.9.1-8.5-1-11.1-4.1-3.6-4.4,2-3.1,4.4-2.4,4,1.1,7.6,3.2,11.3,4.9h.8c-1.2-1.6-2.3-3.2-3.4-4.7-3.3-4.2-6.4-7.7-6.1-13.6,0-1.8.9-2.1,2.2-.9,2.1,1.9,3.9,6.1,4.7,8.7.4,1.5.6,3.3,1.1,4.7,0,.2.2.5.4.2,0-2.3-.7-4.7-.7-7,0-1.6.3-3.2.3-4.8-2.8-2.2-4.3-4.6-4.8-8.2-.2-1.6-.1-4.8,2.3-3.5,2,1,2.8,5,3,7l.5,1.5,1.1-4v-.3c-.8-.3-1-.7-1.2-1.4-.8-2.3-1.2-5.2-.5-7.5.2-.7.7-2,1.4-2.9,1,2.2,1.9,4.6,2.7,6.9-.3,1.3-1.1,2.5-1.1,3.8.3,0,.3-.2.5-.5.3-.6.7-1.2,1.1-1.9.2.7.4,1.3.6,2-.1.1-.3.3-.4.4-1.4,1.7-2.3,4.4-3.1,6.4.3,0,.4-.2.6-.4,1.3-1.3,2.1-2.5,3.6-3.5.3,1.6.6,3.3.8,5-1.6.7-3.2,1.1-5,1.5-.6,2.4-.5,5-.3,7.5.2,1.7.5,4.1.8,5.8.5,2.2,1.7,4.4,3.3,6.2-.2.7-.3,1.3-.5,1.9ZM172.8,76.4c-1.2-2.8-2.5-5.6-2.3-8.9.1-2,1.3-5.7,2.6-7.2.3-.4.5-.6.8-.7.1,1.5.2,3.1.2,4.7,0,4.2-.4,8.2-1.2,12.2Z"/>
  </g>
</svg>