<svg width="687" height="1199" viewBox="0 0 687 1199" fill="none" xmlns="http://www.w3.org/2000/svg">
<path d="M56.6473 74.7745C80.2874 93.9462 99.4644 151.722 99.4644 151.722L101.923 186.772C109.053 271.615 130.88 278.656 130.88 278.656C129.189 300.651 132.902 327.579 132.902 327.579L105.967 342.602C105.218 343.073 104.782 343.892 104.817 344.781C105.218 354.332 109.471 374.183 119.949 392.03C129.154 407.716 142.717 422.095 168.92 423.419C226.486 426.33 219.408 411.01 219.408 411.01C221.535 374.357 215.259 331.692 213.742 322.176C213.568 321.025 212.609 320.171 211.458 320.102L178.422 321.409C171.814 309 174.604 282.543 174.604 282.543C186.214 278.098 212.853 254.953 201.504 193.499C190.887 133.318 161.459 125.963 161.459 125.963C134.402 77.0751 135.57 38.8016 135.57 38.8016C135.57 38.8016 149.342 17.0156 133.617 4.55404C117.892 -7.90752 101.696 9.81753 101.696 9.81753C69.4785 -12.805 57.5887 21.6691 57.5887 21.6691C31.6822 27.5251 32.9898 55.6029 56.6473 74.7745Z" fill="#050710"/>
<path d="M467.069 1122.41C469.684 1116.43 464.472 1116.03 464.472 1116.03C466.267 1112.99 467.069 1108.17 467.069 1108.17C466.11 1098.07 459.921 1097.57 459.921 1097.57C469.039 1094.68 466.843 1086.82 466.843 1086.82C468.098 1080.56 453.785 1077.91 453.785 1077.91C453.785 1077.91 461.508 1063.08 450.995 1059.98C440.483 1056.87 434.294 1068.92 426.937 1082.95C419.58 1096.98 412.014 1093.91 389.106 1094.62C372.596 1095.15 358.893 1093.61 352.53 1092.74C350.141 1092.41 348.102 1090.81 347.265 1088.54C338.234 1064.18 334.503 1018.62 334.503 1018.62L346.132 1016.16C347.526 1015.86 348.381 1014.47 347.997 1013.09C309.294 873.592 314.333 612.074 314.333 612.074C308.475 614.444 298.607 613.66 298.607 613.66C298.607 613.66 298.607 613.66 304.605 753.857C310.079 882.011 326.676 979.542 329.483 995.35C329.709 996.622 328.907 997.859 327.652 998.156C270.347 1012.05 110.812 1020.85 89.6647 1021.96C88.3397 1022.03 87.224 1021.06 87.0845 1019.75C85.8816 1007.39 81.157 944.667 91.2512 798.352C95.749 725.814 109.574 614.514 109.574 614.514C100.7 616.884 83.4234 614.514 83.4234 614.514C83.4234 614.514 78.7338 658.365 65.6236 791.817C53.5944 914.219 56.8196 1030.76 57.4472 1049.26C57.4995 1050.65 58.685 1051.71 60.0797 1051.63L110.794 1048.25L119.319 1154.35L115.414 1162.82C105.843 1196.7 138.27 1200.36 153.472 1197.73C168.674 1195.1 197.387 1193.6 222.3 1197.05C247.196 1200.49 266.704 1189.92 266.704 1189.92C273.259 1187.45 273.189 1184.52 272.143 1182.6C272.997 1182.64 274.148 1181.68 275.63 1178.16C279.151 1169.81 272.335 1168.31 272.335 1168.31C272.335 1168.31 279.901 1169.88 279.849 1163.75C279.797 1157.61 272.771 1156.25 272.771 1156.25C272.771 1156.25 279.186 1155.43 277.896 1147.45C276.606 1139.47 269.214 1143.79 269.214 1143.79C269.214 1143.79 277.53 1134.29 268.622 1132.51C259.713 1130.74 253.663 1137.52 246.045 1142.57C238.426 1147.62 222.91 1148.53 204.762 1144.24C186.613 1139.97 171.882 1127.16 171.882 1127.16C171.289 1086.82 176.781 1042.55 176.781 1042.55L273.712 1032.05L296.515 1128.92L294.981 1140.29C292.262 1188.43 342.349 1171.38 364.594 1163.1C386.839 1154.82 395.643 1147.92 423.624 1148.84C451.606 1149.77 453.244 1140.27 453.244 1140.27C458.614 1144.49 464.489 1143.76 466.912 1137.24C468.83 1132.08 465.465 1127.74 463.966 1126.15C464.541 1126.34 465.57 1125.84 467.069 1122.41Z" fill="#050710"/>
<path d="M682.111 391.077C670.989 391.618 625.208 391.077 625.208 391.077C626.62 387.609 622.994 388.045 622.994 388.045C598.604 388.219 590.41 374.067 590.41 374.067C581.606 347.157 587.795 310.417 588.702 303.445C589.416 297.886 591.108 294.993 594.141 293.075L598.621 290.914C634.727 273.712 632.478 217.417 631.571 205.356C631.467 204.067 630.403 203.073 629.113 203.073L526.603 203.073C525.243 203.073 524.127 204.189 524.127 205.548C524.04 287.742 562.063 291.751 562.063 291.751C569.612 295.167 571.146 294.696 572.471 323.175C573.796 351.653 569.734 363.191 567.276 373.352C564.817 383.531 536.889 388.027 536.889 388.027L511.226 388.027V232.354C511.662 195.927 495.675 186.011 486.767 183.309C483.35 182.263 480.944 179.213 480.909 175.64L480.491 107.877C480.491 106.518 479.375 105.42 478.015 105.42L448.169 105.42C446.809 105.42 445.693 106.518 445.693 107.895V176.599C445.693 179.858 443.706 182.751 440.707 184.024C414.382 195.108 418.409 229.199 418.409 229.199L419.543 388.027C419.543 388.027 394.211 384.245 377.214 380.725C360.216 377.204 367.695 324.987 368.41 314.6C369.124 304.212 371.652 296.596 371.652 296.596C414.801 287.08 411.122 218.655 409.971 205.322C409.867 204.049 408.786 203.073 407.513 203.073L310.739 203.073C309.484 203.073 308.42 204.032 308.281 205.269C298.884 288.962 347.402 296.143 347.402 296.143C357.949 334.451 351.638 358.05 351.638 358.05C335.617 297.45 271.722 313.153 259.92 316.622C258.821 316.953 258.089 317.999 258.159 319.149L267.521 470.779C172.141 465.655 127.023 431.965 115.185 421.473C113.18 419.695 111.716 417.377 110.984 414.78C101.325 379.923 76.6044 361.204 59.4497 362.407C41.7196 363.644 2.40661 367.409 0.297138 420.741C-1.81234 474.073 57.5145 487.545 57.5145 487.545L85.4433 583.752C107.061 585.617 107.95 579.308 107.95 579.308L92.6608 496.574C158.002 523.414 264.104 539.326 264.104 539.326C264.104 539.326 266.684 546.978 276.586 548.93C280.735 549.749 286.175 548.285 293.235 546.821L296.251 578.21C296.251 578.21 312.761 580.998 312.569 573.034C312.5 570.489 312.273 554.943 312.325 540.721C332.2 532.25 350.697 518.917 350.697 518.917C369.787 542.394 386.994 576.798 401.167 576.798C408.524 576.798 413.388 575.352 416.91 564.772C477.335 542.795 572.715 463.529 572.715 463.529C572.715 463.529 587.603 465.289 609.082 454.1C630.56 442.91 646.494 407.879 646.494 407.879C686.173 405.16 693.251 390.537 682.111 391.077ZM309.815 465.777L305.143 440.662L319.281 462.797C314.766 467.136 309.815 465.777 309.815 465.777ZM316.806 214.106C316.876 212.799 317.956 211.788 319.264 211.788L397.82 211.788C399.093 211.788 400.174 212.764 400.278 214.036C401.342 226.341 404.096 285.058 359.571 285.058C315.15 285.058 316.108 226.567 316.806 214.106ZM379.48 443.677C369.281 431.843 364.522 411.905 364.522 411.905C397.245 420.811 434.169 424.209 434.169 424.209C404.794 438.292 379.48 443.677 379.48 443.677ZM418.427 482.212C444.508 470.64 463.545 455.442 463.545 455.442L509.744 456.052C462.569 483.293 418.427 482.212 418.427 482.212ZM534.605 214.367C534.64 213.025 535.738 211.962 537.08 211.962L618.792 211.962C620.117 211.962 621.215 212.99 621.268 214.315C621.773 226.986 621.878 286.435 578.468 286.435C535.111 286.435 534.291 227.125 534.605 214.367Z" fill="#050710"/>
</svg>
