<svg width="700" height="1090" viewBox="0 0 700 1090" fill="none" xmlns="http://www.w3.org/2000/svg">
<path d="M407.503 522.841C402.486 434.683 390.866 401.932 390.866 401.932C340.048 477.169 268.153 506.098 268.153 506.098C247.249 524.947 234.894 507.338 230.079 502.55C191.399 462.199 170.812 405.696 162.869 390.063C154.94 374.43 146.535 376.608 128.529 376.536C110.508 376.464 105.448 373.435 98.254 367.825C91.0602 362.201 69.4354 342.386 69.4354 342.386C-3.4546 337.958 0.798276 324.489 0.798276 324.489C1.59119 318.85 23.5043 320.941 23.5043 320.941C15.3878 306.246 13.9606 243.238 13.9606 243.238H56.7345C57.0228 297.232 49.5405 320.927 49.5405 320.927H73.5729C67.1575 271.447 67.5035 247.406 67.5035 247.406H110.912C109.182 290.613 103.04 320.927 103.04 320.927L121.522 320.811C120.845 310.961 122.503 302.467 123.598 294.29C124.694 286.099 120.989 251.3 120.989 234.874C120.974 218.448 135.939 140.457 135.939 140.457C132.508 140.284 132.753 138.668 132.436 134.486C132.118 130.318 135.204 129.583 144.531 129.987C153.859 130.391 158.299 128.357 158.054 134.486C157.809 140.63 155.3 140.399 155.3 140.399C155.3 140.399 166.66 213.905 169.068 235.379C171.461 256.852 165.839 267.164 169.515 294.925C172.413 316.932 171.865 320.076 171.519 320.436H171.346C171.346 320.436 171.418 320.537 171.519 320.436L188.444 320.999C188.444 320.999 187.492 264.697 187.997 245.56C188.487 226.437 192.812 208.656 192.812 208.656L203.004 157.719C203.004 157.719 199.372 157.445 199.386 152.499C199.386 147.552 203.668 147.192 203.668 147.192C203.668 147.192 203.639 145.894 203.596 142.187C203.552 138.481 208.569 138.885 215.172 138.885C221.775 138.885 226.244 138.481 226.821 141.149C227.383 143.831 227.152 148.461 227.152 148.461C227.152 148.461 231.953 148.605 231.564 153.191C231.189 157.777 227.541 158.166 227.541 158.166C227.541 158.166 239.132 218.448 242.044 239.546C244.957 260.659 240.92 319.614 240.92 319.614C273.833 320.436 281.704 318.172 281.762 326.306C281.402 333.142 176.291 348.962 176.492 348.933C176.492 348.933 194.34 364.494 207.07 390.698C219.8 416.887 262.631 448.167 262.631 448.167C309.817 425.309 333.95 345.746 333.95 345.746C334.671 298.025 359.928 278.672 359.928 278.672C391.27 255.035 420.91 269.658 426.821 273.004C427.47 273.379 427.873 274.057 427.859 274.807C427.686 288.147 426.1 412.993 424.904 523.779C424.904 523.779 412.823 524.457 407.503 522.841Z" fill="black"/>
<path d="M569.117 299.684C569.217 298.818 568.771 297.996 567.992 297.607C562.629 294.997 542.143 284.844 535.613 278.758C528.073 271.735 535.872 243.786 535.872 243.786C535.872 243.786 569.333 229.091 593.12 162.045C593.12 162.045 626.22 113.46 666.226 92.4331C706.232 71.4067 699.615 46.8037 696.328 41.5254C693.041 36.2472 684.91 28.0125 669.802 27.1328C669.802 27.1328 670.94 15.4515 657.663 11.0385C644.385 6.62553 640.954 14.9611 640.954 14.9611C639.873 8.50032 629.666 -5.17121 614.961 2.31352C600.472 10.5193 608.69 29.4691 608.69 29.4691C608.69 29.4691 599.233 74.5505 550 109.119C550 109.119 513.685 103.855 489.955 162.997C489.955 162.997 468.936 210.949 491.138 238.638C491.138 238.638 486.351 257.977 486.841 273.192L460.704 274.1C459.594 274.143 458.715 275.052 458.729 276.177C458.917 285.955 459.782 328.786 461.194 343.929C462.795 361.076 466.096 363.181 483.727 365.705C501.359 368.229 526.602 369.613 526.602 369.613C526.602 369.613 553.59 374.819 560.452 345.847C566.204 321.604 568.511 304.587 569.117 299.684Z" fill="black"/>
<path d="M408.733 549.622C409.757 577.571 410.103 610.12 409.382 647.76C409.382 647.76 405.835 765.266 394.749 885.757C394.648 886.867 395.456 887.848 396.551 887.978L442.9 891.728C442.9 891.728 449.042 941.366 446.101 959.047C443.16 976.713 422.198 988.149 402.476 996.442C382.74 1004.73 383.245 1003.72 361.663 1001.03C340.096 998.316 343.282 1022.14 355.161 1024.72C355.161 1024.72 350.865 1037.67 363.883 1037.14C363.883 1037.14 353.893 1056.33 376.685 1053.1C376.685 1053.1 368.929 1071.68 387.656 1068.1C387.656 1068.1 394.864 1082.34 403.313 1068.55C411.746 1054.78 424.692 1052.35 460.315 1036.98C462.291 1036.12 512.864 1029.22 491.253 988.495L503.479 895.953L562.067 897.756L565.671 961.628C565.671 961.628 554.672 974.68 555.349 990.745C556.041 1006.8 559.89 1006.64 570.112 1016.16C570.112 1016.16 580.189 1021.39 588.637 1047.81C597.085 1074.23 602.405 1088.84 614.183 1089.58C625.976 1090.31 628.527 1080.45 627.807 1074.43C627.807 1074.43 632.78 1082.94 639.585 1079.45C646.404 1075.95 643.823 1069.33 643.823 1069.33C643.823 1069.33 649.158 1075.21 654.492 1071.89C659.595 1068.74 657.634 1062.54 657.461 1062C657.447 1061.99 657.447 1061.99 657.447 1061.97C657.433 1061.96 657.433 1061.96 657.433 1061.96L657.461 1062C657.851 1062.48 662.147 1067.65 668.115 1063.8C674.156 1059.9 670.768 1054.26 670.523 1053.87C670.508 1053.85 670.508 1053.85 670.508 1053.85L670.523 1053.87C670.898 1054.04 677.616 1057.03 681.364 1052.02C685.228 1046.86 681.912 1040.79 673.997 1033.06C666.083 1025.33 648.047 1010.72 640.695 997.336C633.328 983.967 616.475 965.666 615.884 945.967C615.293 926.267 620.973 896.775 620.973 896.775H659.682C660.936 896.775 661.887 895.665 661.7 894.424L643.982 774.856C643.982 774.856 675.367 742.696 677.111 727.208C678.856 711.733 674.805 701.292 673.824 685.097C673.824 685.097 678.726 637.939 688.543 598.208C692.955 580.368 694.397 556.862 695.045 540.508C695.824 520.419 694.642 508.91 687.246 505.06C687.246 505.06 687.722 442.024 690.706 429.809C693.705 417.594 706.377 393.481 695.247 362.186C685.3 334.18 652.401 326.075 629.479 324.099C624.376 323.667 619.474 322.023 615.163 319.268C611.3 316.802 606.557 313.86 603.212 312.115C602.03 311.495 600.603 312.144 600.286 313.442C598.008 322.556 590.122 355.581 588.334 381.684C588.334 381.684 587.974 442.37 592.515 516.366C606.427 515.53 609.036 513.265 609.036 513.265C610.997 464.175 619.733 419.209 619.733 419.209C619.733 419.209 637.797 458.291 640.839 493.638C642.858 517.13 642.252 605.923 640.32 670.863C639.859 686.481 640.753 700.715 640.147 712.339C639.484 725.059 637.322 734.649 636.543 739.466C636.543 739.466 618.969 631.334 609.772 543.709C609.772 543.709 604.683 545.598 594.533 545.57C595.759 561.649 597.229 578.032 599.002 594.3C609.527 690.995 632.218 851.29 635.289 872.864C635.476 874.133 634.453 875.244 633.17 875.186L413.101 865.408C411.919 865.351 411.025 864.312 411.17 863.13C412.943 848.045 423.207 757.276 423.597 669.392C423.712 642.236 424.116 598.871 424.606 550.617C424.606 550.603 413.822 551.699 408.733 549.622Z" fill="black"/>
</svg>
