<svg width="120" height="120" viewBox="0 0 120 120" fill="none" xmlns="http://www.w3.org/2000/svg">
<path fill-rule="evenodd" clip-rule="evenodd" d="M47.625 34.9688C48.6088 34.9688 49.4062 35.7662 49.4062 36.75V46.25C49.4062 47.2338 48.6088 48.0312 47.625 48.0312C46.6412 48.0312 45.8438 47.2338 45.8438 46.25V43.2812H42.875C42.0876 43.2812 41.3325 43.594 40.7758 44.1508C40.219 44.7075 39.9062 45.4626 39.9062 46.25V53.9688H79.0938V46.25C79.0938 45.4626 78.781 44.7075 78.2242 44.1508C77.6675 43.594 76.9124 43.2812 76.125 43.2812H74.9375C73.9537 43.2812 73.1562 42.4838 73.1562 41.5C73.1562 40.5162 73.9537 39.7188 74.9375 39.7188H76.125C77.8572 39.7188 79.5184 40.4069 80.7433 41.6317C81.9681 42.8566 82.6562 44.5178 82.6562 46.25V77.125C82.6562 78.8572 81.9681 80.5184 80.7433 81.7433C79.5184 82.9681 77.8572 83.6562 76.125 83.6562H42.875C41.1428 83.6562 39.4816 82.9681 38.2567 81.7433C37.0319 80.5184 36.3438 78.8572 36.3438 77.125V46.25C36.3438 44.5178 37.0319 42.8566 38.2567 41.6317C39.4816 40.4069 41.1428 39.7188 42.875 39.7188H45.8438V36.75C45.8438 35.7662 46.6412 34.9688 47.625 34.9688ZM79.0938 57.5312H39.9062V77.125C39.9062 77.9124 40.219 78.6675 40.7758 79.2242C41.3325 79.781 42.0876 80.0938 42.875 80.0938H76.125C76.9124 80.0938 77.6675 79.781 78.2242 79.2242C78.781 78.6675 79.0938 77.9124 79.0938 77.125V57.5312ZM66.625 34.9688C67.6088 34.9688 68.4062 35.7662 68.4062 36.75V46.25C68.4062 47.2338 67.6088 48.0312 66.625 48.0312C65.6412 48.0312 64.8438 47.2338 64.8438 46.25V43.2812H55.9375C54.9537 43.2812 54.1562 42.4838 54.1562 41.5C54.1562 40.5162 54.9537 39.7188 55.9375 39.7188H64.8438V36.75C64.8438 35.7662 65.6412 34.9688 66.625 34.9688Z" fill="white"/>
</svg>
