<svg width="120" height="120" viewBox="0 0 120 120" fill="none" xmlns="http://www.w3.org/2000/svg">
<path d="M69.7585 56.7695C69.5565 56.7682 69.3621 56.8468 69.2178 56.9882C69.0736 57.1296 68.9911 57.3223 68.9884 57.5243V63.1649C68.9911 63.3674 69.0739 63.5605 69.2188 63.702C69.3636 63.8435 69.5586 63.9218 69.761 63.9197H86.7517C86.9542 63.9218 87.1492 63.8435 87.294 63.702C87.4388 63.5605 87.5217 63.3674 87.5243 63.1649V57.5243C87.5217 57.3219 87.4388 57.1288 87.294 56.9873C87.1492 56.8458 86.9542 56.7675 86.7517 56.7695H69.7585ZM80.1778 38.8277C82.5289 38.9399 84.2195 39.404 85.2905 40.3883C86.3488 41.3624 86.8919 42.7726 86.999 44.6392V49.9865C86.9937 50.4419 86.8078 50.8766 86.4822 51.195C86.1566 51.5134 85.7179 51.6896 85.2625 51.6848C85.0368 51.6875 84.8128 51.6457 84.6032 51.5619C84.3937 51.478 84.2027 51.3536 84.0412 51.1959C83.8797 51.0382 83.7508 50.8502 83.662 50.6427C83.5732 50.4352 83.5261 50.2123 83.5234 49.9865L83.5259 44.7361C83.4698 43.7671 83.2378 43.1653 82.9063 42.8593C82.585 42.5635 81.6058 42.2983 80.0936 42.2218H46.7499C45.3805 42.2728 44.4905 42.5329 44.0596 42.9026C43.7281 43.1857 43.4782 43.966 43.4757 45.3149L43.468 75.3284C43.5955 76.6391 43.8836 77.5138 44.2534 77.9498C44.5339 78.2813 45.4035 78.6128 46.6836 78.776H80.1294C81.6951 78.8066 82.6181 78.5721 82.9292 78.2584C83.2735 77.9091 83.5234 76.991 83.5234 75.4891V70.2743C83.5234 69.3385 84.3011 68.576 85.2625 68.576C86.2213 68.576 86.999 69.3385 86.999 70.2743V75.4891C86.999 77.7841 86.5298 79.5002 85.4308 80.6146C84.2986 81.7621 82.4983 82.2211 80.0936 82.1701L46.477 82.1625C44.1896 81.8973 42.55 81.2699 41.5733 80.1148C40.6885 79.0693 40.1963 77.5775 40 75.4916V45.3124C40.0051 43.0786 40.5406 41.3981 41.7697 40.3475C42.8968 39.3785 44.5237 38.9068 46.6836 38.8252H80.1778V38.8277ZM86.7517 53.3729C89.0977 53.3729 91 55.2319 91 57.5243V63.1649C91 65.4574 89.0977 67.3163 86.7517 67.3163H69.761C67.415 67.3163 65.5127 65.4548 65.5127 63.1649V57.5243C65.5127 55.2319 67.415 53.3729 69.761 53.3729H86.7517ZM74.0093 58.3199C72.8363 58.3199 71.8852 59.2379 71.8852 60.3676C71.8852 61.4998 72.8363 62.4152 74.0093 62.4152C75.1823 62.4152 76.1335 61.4972 76.1335 60.3676C76.1335 59.2354 75.1823 58.3174 74.0093 58.3174V58.3199Z" fill="white"/>
</svg>
