<svg width="120" height="120" viewBox="0 0 120 120" fill="none" xmlns="http://www.w3.org/2000/svg">
<g clip-path="url(#clip0_352_5276)">
<path d="M90.3406 60.0086C86.8336 54.7339 83.1705 49.2444 79.1427 43.2252C78.0873 41.6477 76.2923 41.2862 74.6771 42.324C73.7387 42.9269 72.7915 43.5475 71.8757 44.1479L71.3021 44.5233C69.541 45.6774 69.1549 47.5038 70.2958 49.2911C70.4744 49.5718 70.6568 49.8511 70.853 50.1519L70.9059 50.2341C69.2807 50.2543 67.6567 49.9307 65.7208 49.2115C64.7056 48.8336 63.6892 48.5884 62.7005 48.4797C60.9382 48.2863 59.2714 48.7476 57.733 49.2734C57.5469 49.3366 57.3016 49.3291 57.2299 49.2772C55.5996 48.0954 53.7278 47.1183 51.5051 46.2891C51.4636 46.274 51.4208 46.2525 51.3768 46.2297C52.1454 44.2478 51.7215 42.9193 49.9491 41.6818L49.2006 41.1586C48.4823 40.6555 47.7389 40.136 47.0018 39.6316C45.4181 38.5484 43.4507 38.8833 42.3249 40.4292C37.7184 46.748 33.1408 53.0465 28.7168 59.1491C27.5419 60.7696 27.8312 62.6757 29.4388 63.8891C30.3822 64.602 31.4087 65.3693 32.6679 66.3034C34.0113 67.2994 35.3736 67.2804 36.7171 66.2477C36.7511 66.2225 36.7875 66.1985 36.829 66.1744L39.6971 68.8099C39.5235 69.0639 39.3499 69.3167 39.175 69.5695C38.7096 70.2458 38.2278 70.946 37.7674 71.645C36.8768 73.0001 36.7058 74.5902 37.2995 76.0084C37.8844 77.4076 39.1134 78.3847 40.6694 78.6893C41.1625 78.7854 41.6733 78.7601 42.1664 78.7361C42.3261 78.7285 42.4909 78.7197 42.6532 78.7159C43.8406 81.9037 45.0181 82.7038 48.1427 82.4131C48.3415 83.6872 48.9817 84.7249 50.051 85.4985C51.0346 86.2114 52.197 86.4225 53.5995 86.1394C53.5995 86.1432 53.6008 86.1469 53.602 86.1507C53.6398 86.3113 53.6725 86.4516 53.7178 86.5919C54.2926 88.4057 55.5518 89.5496 57.3582 89.8985C57.7028 89.9655 58.0362 89.9984 58.3582 89.9984C59.7947 89.9984 61.0036 89.3411 61.8904 88.0632C62.2187 87.5904 62.5093 87.1101 62.8175 86.602C62.9081 86.4528 62.9986 86.3024 63.0905 86.152C64.4188 87.1076 65.7774 87.2921 67.1321 86.7044C68.5171 86.1027 69.3448 84.9373 69.5976 83.2397C70.8983 83.2878 71.9877 82.8542 72.833 81.9555C73.8494 80.8761 73.9123 79.5425 73.833 78.5617C75.7929 78.0131 76.8973 76.7857 77.12 74.9112C77.1829 74.9087 77.2458 74.9062 77.3074 74.9049C77.6005 74.8948 77.8785 74.8859 78.159 74.8278C79.4509 74.5598 80.4937 73.7395 81.0182 72.5779C81.5528 71.3922 81.4761 70.0322 80.8056 68.8465C80.71 68.6784 80.6761 68.4471 80.7113 68.3687C80.9503 67.8328 81.2296 67.3032 81.5013 66.79C81.5503 66.6977 81.5994 66.6042 81.6484 66.5119C83.2774 68.0414 84.3945 68.0717 86.4172 66.7306C86.7757 66.493 87.1355 66.2553 87.494 66.0177C88.1154 65.6069 88.7355 65.1974 89.3557 64.784C90.2224 64.2064 90.7708 63.448 90.9419 62.591C91.1105 61.7466 90.9016 60.8542 90.3394 60.0074L90.3406 60.0086ZM84.6611 64.8965C84.0926 65.2631 83.802 65.1974 83.4171 64.6172C79.7578 59.091 76.0621 53.5053 72.4355 48.0158C72.0003 47.3572 72.0594 47.0855 72.7349 46.6355C73.7689 45.9466 74.8771 45.2084 75.9828 44.4854C76.2709 44.2971 76.4847 44.1985 76.6709 44.1985C76.9212 44.1985 77.1187 44.3767 77.3703 44.7559C81.6811 51.2137 85.1668 56.4429 88.3405 61.2132C88.421 61.3346 88.4814 61.4825 88.5569 61.6695C88.5846 61.7378 88.6135 61.8098 88.6462 61.8857C88.5984 61.9539 88.5531 62.0234 88.5078 62.0904C88.3632 62.3104 88.2261 62.5177 88.0525 62.6403C86.9518 63.4202 85.7958 64.1647 84.6775 64.8839L84.6586 64.8953L84.6611 64.8965ZM67.7724 67.5168C67.3649 68.0818 67.5183 68.8503 68.1297 69.3066C68.5662 69.6327 69.0177 69.95 69.4555 70.2572C69.6304 70.3798 69.8052 70.5024 69.9801 70.6263C70.3901 70.917 70.8002 71.2052 71.2103 71.4946C72.1047 72.1241 73.0292 72.7763 73.9286 73.4298C74.3865 73.7622 74.6444 74.2135 74.6532 74.6976C74.662 75.1754 74.428 75.6267 73.994 75.9654C73.4255 76.4116 72.8217 76.3977 72.1487 75.9237C71.0279 75.135 69.8945 74.3235 68.7976 73.5398C68.3083 73.1909 67.8202 72.8408 67.3309 72.4932C67.2919 72.4654 67.2529 72.4363 67.2126 72.4072C67.0969 72.3225 66.9774 72.2341 66.8453 72.1582C66.2126 71.7904 65.4478 71.9294 65.1056 72.4742C64.7358 73.0607 64.8893 73.7724 65.4792 74.2034C66.0893 74.6508 66.717 75.0945 67.3233 75.5243C67.5976 75.7189 67.8718 75.9123 68.1448 76.107C68.3737 76.27 68.6026 76.4331 68.8316 76.5961C69.3964 76.9968 69.9801 77.4114 70.5486 77.826C71.3914 78.4403 71.6543 79.4503 71.16 80.1758C70.6316 80.9506 69.6983 81.0543 68.7825 80.44C67.985 79.9053 67.1913 79.3668 66.3963 78.8284C65.7497 78.391 65.1031 77.9524 64.4553 77.5163L64.3786 77.4645C64.1383 77.3015 63.8892 77.1333 63.6138 77.0082C62.9571 76.7086 62.3948 76.8489 62.0288 77.4026C61.6552 77.9663 61.8175 78.7437 62.3886 79.1368C63.0515 79.5931 63.732 80.0481 64.3899 80.488C64.8365 80.7863 65.283 81.0859 65.7283 81.3867L65.883 81.4904C66.1635 81.6787 66.429 81.8557 66.6579 82.0705C67.2328 82.609 67.307 83.3763 66.8466 84.0272C66.3661 84.7072 65.5358 84.9158 64.9182 84.5126L64.7207 84.3849C63.8892 83.8477 63.1043 83.3396 62.6188 82.3941C61.8414 80.8811 60.4237 80.0684 58.5092 80.0368C58.1796 77.0284 56.9745 75.6165 54.4134 75.2512C54.8562 73.7989 54.6864 72.4527 53.9039 71.2431C53.08 69.969 51.8875 69.2573 50.4434 69.1739C50.4485 68.9894 50.4573 68.8048 50.4648 68.6241C50.4925 68.0426 50.5202 67.441 50.4082 66.8658C50.0497 65.028 48.8811 63.8284 47.0282 63.3987C45.1376 62.9601 43.5086 63.5453 42.3173 65.0924C41.9928 65.5146 41.6946 65.9608 41.3802 66.4348C41.2783 66.5878 41.1751 66.7445 41.0657 66.905L38.3247 64.3442L38.6505 63.8904C38.9599 63.4581 39.2556 63.0473 39.5537 62.6378C40.3562 61.5343 41.1588 60.4321 41.9626 59.3286C44.4444 55.9196 47.0118 52.3943 49.5239 48.917C49.7755 48.5694 49.9013 48.5277 50.2308 48.6844C51.3969 49.2368 52.5668 49.7702 53.8058 50.3339C54.153 50.4919 54.5065 50.6537 54.865 50.8168C54.7606 50.8851 54.6612 50.9508 54.5643 51.0152C54.1429 51.2933 53.7781 51.5335 53.4071 51.7547C52.0925 52.5409 51.1806 53.5028 50.617 54.6973C50.0245 55.955 49.9818 57.2455 50.4988 58.3313C50.9956 59.3741 51.968 60.1173 53.2385 60.4232C55.8449 61.0514 58.1896 60.5572 60.2086 58.9532L60.4702 58.7446C61.0577 58.2769 61.6653 57.7928 62.2829 57.3504C62.6376 57.0976 62.9722 57.1406 63.4049 57.4958C67.5259 60.8808 71.7235 64.3138 75.7828 67.6331L77.6357 69.1486C77.7854 69.2712 77.9414 69.3875 78.0923 69.5C78.1753 69.562 78.2584 69.6239 78.3414 69.6884C78.9993 70.194 79.1766 71.0484 78.764 71.7184C78.3527 72.3857 77.4772 72.6512 76.7728 72.3225C76.5992 72.2417 76.4344 72.1266 76.2608 72.004L76.2256 71.9787C74.6381 70.8652 73.0519 69.7503 71.4644 68.6342L69.9423 67.5648C69.9033 67.5383 69.8656 67.5105 69.8266 67.4827C69.7272 67.4106 69.6241 67.3361 69.5121 67.2691C68.8693 66.8835 68.1523 66.9859 67.7699 67.5168H67.7724ZM45.2872 76.8894C46.2747 75.3953 47.2722 73.9607 48.3792 72.3756C48.7654 71.8233 49.3604 71.5856 50.3654 71.5856C50.3793 71.5856 50.3931 71.5856 50.4069 71.5856C50.8384 71.5983 51.4862 71.8688 51.8951 72.5905C52.3202 73.3413 52.3026 74.077 51.841 74.7747C50.6875 76.519 49.7038 77.9512 48.7478 79.2834C48.0886 80.2011 46.7301 80.4096 45.7791 79.7397C44.8696 79.0989 44.6545 77.8462 45.2872 76.8881V76.8894ZM39.7524 73.1618C41.1449 71.0231 42.6305 68.8933 44.0683 66.833L44.3639 66.4083C44.7363 65.8749 45.3552 65.5791 46.0256 65.5791C46.2722 65.5791 46.5275 65.6195 46.7791 65.7017C47.5779 65.9646 48.1603 66.7786 48.2408 67.7355C48.2043 67.8429 48.1716 67.9516 48.1402 68.0565C48.0672 68.3055 47.9968 68.5419 47.8748 68.7239C46.4885 70.7767 44.8445 73.1947 43.1664 75.566C42.5324 76.4622 41.6229 76.4786 40.9726 76.3332C40.0694 76.1322 39.5222 75.5584 39.4329 74.7166C39.3738 74.1693 39.5034 73.5423 39.7537 73.1581L39.7524 73.1618ZM50.9227 80.6637C51.3793 79.9685 51.9076 79.2986 52.4171 78.6489L52.6058 78.4087C52.9605 77.9575 53.4586 77.7211 54.1278 77.6882C55.0398 77.7818 55.7053 78.2191 56.1053 78.9876C56.4575 79.6639 56.3757 80.3528 55.8537 81.0922C55.7065 81.3008 55.5631 81.5106 55.4197 81.7204C55.1895 82.0579 54.9505 82.408 54.704 82.7379C54.1316 83.5039 53.3391 83.8781 52.4121 83.8199C51.724 83.7769 51.124 83.3687 50.8057 82.7266C50.4711 82.0528 50.5151 81.2818 50.9227 80.6624V80.6637ZM77.1564 65.5412C75.6671 64.2949 74.1978 63.0663 72.7286 61.8364C71.9109 61.1513 71.0933 60.4662 70.2757 59.7811C68.58 58.3591 66.8252 56.8878 65.0956 55.4468C64.4176 54.8818 63.6855 54.5962 62.9521 54.5962C62.498 54.5962 62.0439 54.7061 61.6036 54.9273C60.6753 55.3938 59.8803 55.9423 59.2387 56.5579C57.8588 57.8838 56.182 58.3326 54.114 57.9281C53.4712 57.8029 53.0234 57.5135 52.8209 57.0913C52.6121 56.6565 52.6687 56.1041 52.9844 55.4911C53.2536 54.9678 53.6184 54.5191 54.0083 54.2258C56.3015 52.5093 58.3481 51.5019 60.4514 51.0532C61.9596 50.7321 63.3408 50.8433 64.6704 51.3957C67.307 52.4891 69.7977 52.8683 72.282 52.5573C72.3323 52.5599 72.482 52.6319 72.5298 52.704L72.6531 52.8885C74.8758 56.2103 77.174 59.6446 79.3842 63.0536C79.5993 63.3848 79.6081 63.9561 79.5955 64.3568C79.5704 65.1746 79.2987 65.9785 78.7439 66.8696L77.1539 65.5399L77.1564 65.5412ZM39.0077 59.163L37.7347 60.9137C37.5347 61.1892 37.336 61.466 37.1372 61.7428C36.6102 62.476 36.0655 63.2344 35.5032 63.9561C35.3548 64.147 35.1384 64.2974 34.9095 64.4579C34.8441 64.5047 34.7761 64.5515 34.7095 64.5995C34.6403 64.5654 34.5749 64.535 34.5145 64.5059C34.3434 64.4238 34.2076 64.3593 34.0994 64.2797C32.9748 63.4556 31.9521 62.6946 30.9747 61.9514C30.4414 61.5457 30.3835 61.2006 30.7609 60.6773C35.3334 54.3396 39.9046 48.0158 44.3463 41.879C44.5916 41.5403 44.7941 41.376 45.0331 41.376C45.2193 41.376 45.4281 41.4771 45.6961 41.6717C46.5376 42.286 47.3867 42.9218 48.2081 43.5361L48.7251 43.9217C49.4648 44.474 49.5012 44.7192 48.9603 45.4637C45.6432 50.0306 42.3249 54.5962 39.0065 59.163H39.0077ZM60.5558 85.6287L60.4715 85.7602C59.9583 86.5552 59.474 87.3073 58.484 87.4893C57.8752 87.6006 57.2349 87.435 56.728 87.0317C56.2437 86.6462 55.9443 86.0913 55.9015 85.5036C55.9292 85.4062 55.9531 85.3089 55.977 85.2141C56.0336 84.9853 56.0864 84.7692 56.1858 84.5948C56.5619 83.9375 56.8814 83.4685 57.2211 83.0742C57.8651 82.3259 59.1243 82.2728 60.03 82.9566C60.9382 83.6417 61.1495 84.7161 60.557 85.6287H60.5558Z" fill="white"/>
</g>
<defs>
<clipPath id="clip0_352_5276">
<rect width="63" height="51" fill="white" transform="translate(28 39)"/>
</clipPath>
</defs>
</svg>
