<svg width="120" height="120" viewBox="0 0 120 120" fill="none" xmlns="http://www.w3.org/2000/svg">
<g clip-path="url(#clip0_352_5260)">
<path d="M58.1187 66.4031C56.7526 66.3965 55.3634 66.3965 54.0193 66.3976C52.7072 66.3976 51.3489 66.3976 50.0147 66.3921C49.8582 66.3921 49.7071 66.3347 49.6763 66.2984C49.3741 65.9344 49.0897 65.5418 48.7876 65.1261C48.7016 65.007 48.6123 64.8845 48.5208 64.7599C49.2937 63.4906 50.0666 62.2213 50.8395 60.9519C52.8153 57.7063 54.8595 54.3494 56.8772 51.0542C58.5046 48.3953 59.1088 45.5313 58.6733 42.5393C58.1904 39.232 56.4196 36.3261 53.6863 34.3576C50.9133 32.3615 47.5328 31.5961 44.1667 32.2027C40.1643 32.9228 36.7728 35.5872 35.0947 39.3269C33.4143 43.0731 33.6811 47.3851 35.808 50.8634C37.9768 54.4089 40.1764 58.0151 42.3044 61.5044L44.1832 64.5857C44.235 64.6706 44.2824 64.7588 44.3354 64.8581C43.031 65.8969 42.5404 67.2821 42.9516 68.7631C43.3309 70.1262 44.5857 71.1893 46.0036 71.3492C47.4987 71.518 48.8273 70.7736 49.6509 69.309C49.6796 69.2572 49.8295 69.1701 49.9067 69.169C52.9189 69.1502 55.6048 69.148 58.1165 69.1635C59.0956 69.169 59.8861 69.5627 60.4672 70.3313C61.2169 71.325 61.336 72.3793 60.8178 73.4666C60.2698 74.6191 59.3492 75.2058 58.0812 75.2124C55.6544 75.2245 53.1869 75.2245 50.7998 75.2234C48.9044 75.2234 46.9452 75.2234 45.0179 75.2289C44.4401 75.2311 43.9054 75.294 43.4279 75.4164C40.634 76.1321 38.7299 78.866 39.0948 81.6385C39.4862 84.6194 41.9196 86.7897 44.8822 86.7985C47.0124 86.8052 49.1779 86.803 51.2717 86.8019C52.1945 86.8019 53.113 86.8019 54.0403 86.8008C54.2233 86.8008 54.4074 86.8019 54.5904 86.803C54.7724 86.8041 54.9565 86.8052 55.1428 86.8052C55.3997 86.8052 55.6599 86.803 55.918 86.7941C56.6842 86.7677 57.262 86.1777 57.262 85.42C57.262 84.6833 56.6864 84.0922 55.9235 84.0459C55.8099 84.0393 55.6996 84.0404 55.5927 84.0415C55.5508 84.0415 55.5078 84.0415 55.4659 84.0415C54.4218 84.0415 53.3765 84.0415 52.3324 84.0426C49.8913 84.0448 47.3664 84.0459 44.8833 84.036C44.0322 84.0327 43.2471 83.7018 42.6727 83.1041C42.1015 82.5108 41.8038 81.7234 41.8325 80.8853C41.8887 79.2586 43.2471 77.9827 44.9252 77.9782C46.8812 77.9738 48.8692 77.9749 50.7921 77.976C53.2056 77.9782 55.7007 77.9793 58.1562 77.9694C61.3085 77.9573 63.8764 75.3657 63.8797 72.1929C63.883 69.0124 61.2996 66.4119 58.1198 66.3965L58.1187 66.4031ZM46.3476 62.8212C46.1656 62.5245 45.9936 62.2455 45.8238 61.9654L42.9825 57.3049C41.3705 54.6604 39.7575 52.0147 38.1444 49.3702C36.4497 46.5922 36.2998 43.1591 37.7441 40.187C39.1841 37.2227 41.9648 35.2244 45.1832 34.8417C45.5802 34.7943 45.9771 34.7711 46.3707 34.7711C48.8262 34.7711 51.1813 35.6765 52.9719 37.3374C55.0425 39.2585 56.1583 42.0089 56.0348 44.885C55.9665 46.4632 55.5387 47.9123 54.7613 49.1937C52.6896 52.6102 50.5738 56.0775 48.5274 59.4311C47.8195 60.5913 47.1117 61.7515 46.4038 62.9116L46.3487 62.8223L46.3476 62.8212ZM45.847 67.1861C46.0124 67.0295 46.2285 66.9457 46.4391 66.9556C46.8735 66.9766 47.2418 67.3736 47.2263 67.8048C47.2109 68.2393 46.8195 68.6109 46.3873 68.6021C45.9539 68.5922 45.578 68.2051 45.5813 67.7728C45.5835 67.5578 45.6805 67.3449 45.847 67.1861Z" fill="white"/>
<path d="M90.7925 60.4529C90.2379 57.2933 88.4528 54.501 85.7658 52.592C83.0778 50.682 79.8527 49.9155 76.685 50.4349C72.5294 51.1154 69.0232 53.7831 67.3043 57.5712C65.5898 61.3495 65.8908 65.7343 68.1092 69.3008C69.9361 72.2375 71.8326 75.1986 73.6662 78.0615C74.5129 79.3838 75.3608 80.7071 76.2043 82.0316C76.2991 82.1794 76.3917 82.3294 76.4678 82.4507L75.1932 84.0454H72.6959C70.4389 84.0454 68.1819 84.0443 65.9249 84.0476C65.4718 84.0476 65.0716 84.202 64.8003 84.481C64.5544 84.7335 64.4232 85.0798 64.4321 85.4559C64.4497 86.2389 65.0616 86.7914 65.9183 86.8013C66.3814 86.8068 66.8511 86.8046 67.3065 86.8046C67.506 86.8046 67.7056 86.8046 67.9052 86.8046H75.2748C75.9893 88.2636 77.0941 89.0014 78.5616 89.0014C78.6542 89.0014 78.7479 88.9981 78.8439 88.9926C80.296 88.9033 81.3842 88.1136 81.9079 86.7682C82.5331 85.1603 82.1152 83.6903 80.6995 82.5025L80.7171 82.4739C80.8131 82.3195 80.9035 82.175 80.995 82.0316C81.8054 80.759 82.6169 79.4863 83.4295 78.2148C85.2818 75.3122 87.1959 72.3114 89.0648 69.3504C90.7716 66.6452 91.3526 63.6521 90.7914 60.454L90.7925 60.4529ZM78.0302 84.8416C78.1878 84.6872 78.3929 84.6001 78.598 84.6001C78.6057 84.6001 78.6134 84.6001 78.6211 84.6001C79.0556 84.6133 79.4293 85.0037 79.4205 85.436C79.4128 85.8683 79.028 86.2466 78.598 86.2466H78.5947C78.1625 86.2444 77.7799 85.8628 77.7755 85.4305C77.7733 85.2165 77.8659 85.0015 78.0302 84.8416ZM86.7857 67.7789C84.8044 70.9208 82.7735 74.1046 80.8087 77.1837C80.0721 78.3383 79.3367 79.4918 78.6002 80.6476L76.9221 78.0152C76.2726 76.9962 75.621 75.9783 74.9705 74.9593C73.5316 72.7084 72.0432 70.3804 70.5922 68.0832C69.4631 66.2967 68.8964 64.3193 68.9515 62.3652C69.0067 60.4176 69.6803 58.5285 70.8987 56.9029C72.7367 54.4525 75.5968 53.0718 78.5958 53.0718C79.3907 53.0718 80.1956 53.1688 80.9928 53.3684C84.6886 54.2937 87.5531 57.4257 88.1199 61.1609C88.4848 63.5661 88.035 65.7927 86.7835 67.7778L86.7857 67.7789Z" fill="white"/>
<path d="M60.911 84.0474C60.5394 84.0298 60.1833 84.1632 59.9087 84.4202C59.6342 84.6772 59.4787 85.0223 59.471 85.394C59.4556 86.1351 60.0432 86.7659 60.7831 86.8012C60.8051 86.8012 60.8261 86.8023 60.8481 86.8023C61.1943 86.8023 61.524 86.671 61.7842 86.4295C62.0599 86.1726 62.2164 85.8263 62.2252 85.4546C62.2418 84.7135 61.653 84.0816 60.9121 84.0486L60.911 84.0474Z" fill="white"/>
<path d="M52.1923 44.4102C52.1967 41.223 49.6178 38.6215 46.4446 38.6094C46.4369 38.6094 46.4302 38.6094 46.4225 38.6094C44.8734 38.6094 43.4169 39.2104 42.3187 40.3033C41.2217 41.3951 40.6174 42.8442 40.6152 44.3859C40.6119 47.573 43.1898 50.1757 46.363 50.1878C46.3707 50.1878 46.3784 50.1878 46.3861 50.1878C47.9331 50.1878 49.3885 49.5868 50.4866 48.495C51.5837 47.4032 52.189 45.9519 52.1912 44.4102H52.1923ZM46.417 47.4297H46.406C45.6011 47.4297 44.8414 47.1121 44.2648 46.5331C43.6848 45.9508 43.3684 45.1843 43.3739 44.3727C43.3849 42.714 44.7444 41.3686 46.4071 41.3686H46.4159C48.0797 41.373 49.4337 42.7328 49.4337 44.398C49.4337 46.0357 48.0521 47.4242 46.4159 47.4297H46.417Z" fill="white"/>
<path d="M78.6157 56.916H78.6069C75.4237 56.916 72.8249 59.4911 72.8106 62.6595C72.804 64.2177 73.4049 65.6834 74.5031 66.7895C75.5935 67.8868 77.0423 68.4922 78.5826 68.4945H78.5914C81.7746 68.4945 84.3744 65.9194 84.3877 62.7488C84.3943 61.1905 83.7934 59.7238 82.6952 58.6199C81.6048 57.5237 80.156 56.9182 78.6157 56.916ZM78.5914 59.6742H78.5969C79.404 59.6742 80.1659 59.9929 80.7414 60.5729C81.3203 61.1552 81.6356 61.9239 81.629 62.7356C81.6158 64.3655 80.2276 65.7363 78.5947 65.7363C78.5903 65.7363 78.5848 65.7363 78.5804 65.7363C76.9177 65.7286 75.5659 64.3655 75.5693 62.6992C75.5726 61.0339 76.9276 59.6775 78.5914 59.6742Z" fill="white"/>
</g>
<defs>
<clipPath id="clip0_352_5260">
<rect width="57" height="57" fill="white" transform="translate(34 32)"/>
</clipPath>
</defs>
</svg>
