<svg width="243" height="343" viewBox="0 0 243 343" fill="none" xmlns="http://www.w3.org/2000/svg">
<path d="M157.19 298.808C155.132 297.928 157.529 299.798 149.303 295.646C141.078 291.494 138.975 290.647 138.951 287.111C138.922 283.574 138.951 268.516 138.951 268.516H153.377C153.708 268.516 153.973 268.239 153.957 267.909L148.985 169.147L145.429 169.718C146.009 190.333 148.674 255.238 148.96 262.181C148.972 262.511 148.711 262.784 148.381 262.78L85.2711 262.47C84.9241 262.47 84.6547 262.16 84.6996 261.818L101.787 170.162C100.473 170.003 99.1543 169.828 97.8358 169.709L76.3353 268.557C76.2823 268.903 76.5517 269.217 76.9028 269.221L89.2879 269.339L90.3737 279.541C89.9165 286.121 90.4554 283.151 86.9529 290.651C83.4464 298.152 75.4087 306.663 75.4087 306.663C70.8245 309.576 70.1958 311.446 71.0327 312.489C71.8654 313.528 73.535 312.851 73.535 312.851C73.535 312.851 71.8654 314.571 73.535 316.025C75.2005 317.479 77.2416 315.377 77.2416 315.377C77.2416 315.377 76.2414 317.064 78.7438 318.107C81.2461 319.15 82.4952 316.233 82.4952 316.233C82.4952 316.233 81.2461 319.354 84.1648 320.185C87.0835 321.016 88.1245 316.856 88.1245 316.856C88.1245 316.856 87.0835 321.431 90.9942 321.867C94.909 322.303 96.5296 312.248 96.5296 312.248C98.1583 306.821 103.134 299.378 103.134 299.378C103.134 299.378 107.037 296.75 106.608 292.945C106.18 289.14 104.661 287.147 104.661 287.147L105.665 269.637L122.398 269.066L126.284 292.949C126.284 292.949 123.149 295.01 124.137 300.421C125.125 305.831 127.733 306.459 133.154 306.663C138.575 306.866 145.037 310.615 148.393 314.151C151.748 317.687 154.61 321.126 157.022 319.565C159.435 318.005 156.292 314.774 156.292 314.774C161.509 317.056 161.28 311.625 159.835 311.238C163.378 311.653 161.819 307.974 161.819 307.974C166.301 306.789 162.754 304.581 162.754 304.581C162.754 304.581 164.725 304.691 164.733 302.707C164.725 300.633 161.745 300.759 157.19 298.808Z" fill="black"/>
<path d="M179.764 148.125C173.572 134.297 171.167 128.446 170.808 119.732C170.808 119.732 174.845 107.636 166.881 100.726C158.917 93.82 152.079 95.5882 152.079 95.5882C152.079 95.5882 151.055 118.424 146.373 141.28L141.127 135.951C141.127 135.951 140.168 134.692 140.343 132.789C140.519 130.887 140.233 128.78 140.233 128.78C140.233 128.78 146.842 125.199 147.74 118.106C148.638 111.013 143.429 109.501 140.335 109.978L141.245 94.8019L132.975 93.9382C132.975 93.9382 133.253 86.7799 131.497 79.6175C131.497 79.6175 134.392 73.494 132.412 61.3245C130.363 50.4016 125.827 48.829 125.827 48.829C125.827 48.829 121.749 31.7827 117.794 27.4152C113.838 23.0477 111.781 20.4606 106.584 21.6339C101.388 22.8073 104.029 27.9407 104.029 27.9407C104.029 27.9407 99.5017 24.4247 96.0687 27.7778C92.6356 31.1308 95.4564 35.702 95.4564 35.702C95.4564 35.702 86.19 35.1846 88.5086 45.0848C88.5086 45.0848 90.0925 51.5179 98.7955 49.6438C98.7955 49.6438 100.849 47.9897 103.621 51.4202C106.392 54.8465 107.225 55.9588 107.225 55.9588C107.225 55.9588 104.584 60.8152 106.809 70.5199C109.033 80.2286 114.222 84.6939 117.949 84.5431C117.949 84.5431 120.035 89.3303 119.884 94.3497L109.311 97.0101C109.311 97.0101 111.275 116.933 112.54 121.386C113.805 125.839 113.83 127.139 115.463 127.884C115.463 127.884 110.123 132.129 109.087 138.754L103.196 141.251C103.196 141.251 102.861 109.123 100.526 98.5583C100.526 98.5583 91.6437 90.7929 82.063 95.8408C72.4822 100.889 75.7438 114.016 75.7438 114.016C75.7438 114.016 72.6251 120.685 68.4246 128.642C63.6771 137.638 57.7785 148.271 57.6723 152.761C57.6723 152.761 57.0518 159.003 60.6686 159.487C60.6686 159.487 59.9828 165.468 69.0124 165.146C78.0421 164.829 98.3098 156.953 98.3098 156.953L98.3016 161.056C98.3016 161.056 100.559 161.516 102.78 161.162L102.996 154.619C102.996 154.619 116.892 147.97 118.243 146.968C118.243 146.968 125.472 145.806 130.105 142.07C130.105 142.07 133.224 145.635 140.654 156.896C148.079 168.157 160.464 176.204 174.698 175.927C174.698 175.927 181.907 173.556 180.348 164.548C180.348 164.548 185.957 161.952 179.764 148.125ZM77.042 145.008C82.5773 136.558 91.2518 128.646 91.2518 128.646C94.1827 133.376 96.0768 142.225 96.0768 142.225C88.8229 145.969 77.042 145.008 77.042 145.008ZM136.416 124.531C134.596 124.022 131.224 118.844 131.489 115.939C131.755 113.034 132.971 112.162 134.71 112.728C136.449 113.295 136.665 115.576 138.184 116.045C139.702 116.509 140.323 113.466 142.984 114.496C145.646 115.527 143.233 119.858 142.103 121.247C140.972 122.637 139.053 125.269 136.416 124.531ZM150.916 145.513C150.916 145.513 151.496 135.984 154.145 129.497C154.145 129.497 161.591 141.956 163.779 154.851C163.779 154.851 154.623 149.909 150.916 145.513Z" fill="black"/>
</svg>
