<svg width="68" height="66" viewBox="0 0 68 66" fill="none" xmlns="http://www.w3.org/2000/svg">
<circle cx="35" cy="33" r="33" fill="white"/>
<mask id="mask0_378_7948" style="mask-type:alpha" maskUnits="userSpaceOnUse" x="0" y="0" width="66" height="66">
<circle cx="33" cy="33" r="33" fill="white"/>
</mask>
<g mask="url(#mask0_378_7948)">
<path d="M31.6215 31.4235C31.6215 31.4235 28.4588 31.1133 27.4057 25.8443C26.3526 20.5754 27.1206 19.8258 27.1206 19.8258C27.1206 19.8258 25.9401 16.4166 24.731 16.4635C23.5219 16.5105 22.2843 17.4496 20.7416 16.2087C19.1988 14.9677 18.959 10.7955 22.5677 10.9129C22.5677 10.9129 21.2866 9.00453 22.9819 7.76863C24.679 6.5344 26.262 7.51877 26.262 7.51877C26.262 7.51877 26.0608 4.84908 28.7942 5.00672C31.5276 5.16435 34.702 11.9341 35.0408 16.3193C35.0408 16.3193 37.3566 18.3501 37.9536 22.6749C38.5489 26.9997 37.4422 28.8175 37.4422 28.8175C37.4422 28.8175 38.3058 31.6432 37.9788 34.8864L41.1616 35.2771C41.2874 35.2922 41.3796 35.4029 41.3696 35.5303C41.2622 36.9641 40.6703 44.7987 40.5361 45.6808C40.3869 46.6518 40.3064 49.3298 35.5623 49.3298C29.517 49.3064 30.1676 48.8569 29.6276 44.4147C29.1614 40.5695 28.6852 37.0714 28.5661 36.2011C28.5494 36.082 28.6248 35.9714 28.7405 35.9412L32.0844 35.049C32.086 35.0507 32.2286 32.3358 31.6215 31.4235Z" fill="black"/>
<path d="M57.23 64.4441C58.6034 61.9321 58.803 59.9684 56.6766 56.0007C54.5486 52.0331 54.5419 50.8794 54.1797 49.3299C53.8175 47.7804 55.2496 43.142 53.0327 39.2062C51.1092 35.7886 47.1013 35.5186 46.0767 35.5086C45.9442 35.5069 45.8369 35.6125 45.8369 35.745C45.8453 39.934 43.833 52.5781 43.3047 57.354C43.1521 58.7375 43.0767 60.6073 43.0499 62.5777C43.4255 62.5391 43.8263 62.4938 44.2002 62.4452C44.2807 61.2345 44.4031 60.1528 44.5826 59.3529C45.4378 55.5413 46.6855 49.521 46.6855 49.521C46.6855 49.521 50.3663 56.586 50.4519 60.0975C50.5391 63.6073 46.1857 71.452 44.1667 73.352C44.1667 73.352 44.0024 69.5353 44.0711 65.7001C43.7575 65.732 43.4054 65.7605 43.0381 65.7773C43.0616 69.6728 43.1991 73.1357 43.1991 73.1357C41.6178 72.101 39.9509 71.7975 38.8357 71.7237C38.0408 71.6717 37.2594 71.4722 36.5517 71.1066C35.1196 70.3671 33.6909 70.3084 33.6909 70.3084C31.6886 70.4274 30.4661 71.1686 29.8104 71.7388C29.3023 72.1798 28.6684 72.4481 27.9977 72.4934L24.8501 72.7114C24.8501 72.7114 24.9758 71.551 25.1787 65.6431C24.5851 65.7068 24.0485 65.7035 23.6007 65.67C23.475 69.4062 23.324 73.6874 23.324 73.6874C23.324 73.6874 18.2329 67.035 18.1591 60.3557C18.1591 54.961 20.8036 49.0934 20.8036 49.0934C20.8036 49.0934 23.7718 58.9002 23.7584 60.3557C23.755 60.6844 23.7315 61.5413 23.6963 62.6733C24.3134 62.7403 24.8534 62.737 25.2743 62.7118C25.3297 60.894 25.39 58.7559 25.4521 56.2456C25.7724 43.4153 24.84 37.764 24.6555 36.7864C24.6371 36.6908 24.5633 36.617 24.4677 36.5969C11.401 33.9943 13.8846 48.0973 13.8846 48.0973C13.8846 48.0973 13.5458 50.3947 12.6252 55.4423C11.7029 60.4899 10.467 60.012 11.6542 63.9612C12.8415 67.9103 18.1608 75.5555 18.1608 75.5555H-7V88H57.0556V75.5555H47.8861C51.6408 72.3542 55.8583 66.9562 57.23 64.4441ZM28.5326 73.6857C30.5885 73.9691 30.5114 72.3794 31.5226 71.9082C32.5321 71.4386 33.4695 70.9657 35.5389 71.6113C37.6082 72.257 36.8921 72.7953 39.0655 72.864C41.2388 72.9328 41.8911 74.4319 41.8911 74.4319C41.8911 74.4319 40.6921 75.4012 38.2085 74.9417C36.8653 74.6936 35.9514 74.9334 34.8412 75.3962C33.8988 75.7886 32.7753 76.2598 31.5209 77.5879C31.5209 77.5879 30.0737 75.9965 28.536 75.7936C26.1027 75.4716 26.1094 75.1966 24.7645 74.4336C24.7645 74.4336 26.4767 73.4023 28.5326 73.6857ZM15.5867 78.7584C14.6811 79.5064 14.4329 79.5114 13.6045 80.5612C12.7761 81.6126 11.9628 83.858 9.08853 85.0101C5.06891 86.6434 3.15553 85.3019 0.673664 85.4041C-0.582362 85.4159 -1.41245 85.8653 -1.41245 85.8653C-1.41245 85.8653 -3.21348 86.9184 -3.96307 85.7513C-3.96307 85.7513 -5.11848 84.3091 -2.72213 83.2644C-0.325791 82.2196 -0.647762 81.5254 1.48362 79.5181C3.61501 77.5108 4.78216 76.2665 8.98121 76.8166C13.1803 77.3666 12.8751 77.2458 14.5822 76.5181C15.1808 76.2565 16.1669 76.2464 16.3983 76.9423C16.6297 77.6382 16.4922 78.0105 15.5867 78.7584ZM44.4786 82.0469C42.3472 83.2174 41.3411 82.01 37.8916 82.3572C34.4421 82.7043 31.2023 84.2118 27.3839 83.2006C23.5655 82.1895 21.9255 83.0011 19.6214 82.3236C17.3156 81.6478 16.1971 79.9675 20.7097 78.5673C20.7097 78.5673 21.2983 79.9692 23.7601 79.7529C26.2218 79.5365 26.4096 81.1095 27.5114 81.1162C27.5114 81.1162 28.0983 81.1548 28.1587 80.7724C28.1587 80.7724 28.6349 81.4633 29.247 81.2269C29.6863 81.0575 29.6863 80.8932 29.6511 80.8127C29.6293 80.7825 29.6176 80.7624 29.6176 80.7624C29.6176 80.7624 29.636 80.7808 29.6511 80.8127C29.74 80.9318 30.0217 81.2085 30.6405 81.0223C31.1654 80.8647 31.152 80.6316 31.0883 80.4974C31.0396 80.4404 31.0162 80.3901 31.0162 80.3901C31.0162 80.3901 31.0581 80.432 31.0883 80.4974C31.1805 80.6064 31.3683 80.7473 31.6802 80.6517C31.6802 80.6517 32.0156 81.019 32.4868 80.7909C32.4868 80.7909 32.8675 81.5757 33.7831 80.9267C33.7831 80.9267 34.1571 81.7686 35.1833 80.9519C35.1833 80.9519 35.5758 80.7288 36.0034 80.4857C36.0034 80.4857 35.5556 80.9972 35.8692 81.3074C36.1828 81.6176 36.4125 81.6579 37.7239 80.9502C39.0369 80.2425 38.715 80.271 39.6038 79.9876C40.4925 79.7059 41.5976 80.1721 42.8268 79.4812C44.056 78.792 44.8324 78.2772 44.8324 78.2772C44.8324 78.2772 46.6083 80.8764 44.4786 82.0469Z" fill="black"/>
</g>
</svg>
