<svg width="242" height="301" viewBox="0 0 242 301" fill="none" xmlns="http://www.w3.org/2000/svg">
<circle cx="121.627" cy="178.052" r="109.85" stroke="#F3962A" stroke-width="6"/>
<rect width="26.7779" height="27.3644" rx="5" transform="matrix(0.956298 0.292394 -0.290212 0.956962 144.613 170.529)" fill="#FF0000"/>
<path d="M236.364 246.74C224.379 219.827 219.726 208.44 219.031 191.479C219.031 191.479 226.844 167.936 211.431 154.487C196.018 141.046 182.785 144.488 182.785 144.488C182.785 144.488 180.802 188.933 171.741 233.418L161.589 223.046C161.589 223.046 159.733 220.596 160.072 216.893C160.412 213.19 159.859 209.09 159.859 209.09C159.859 209.09 172.649 202.12 174.387 188.315C176.125 174.509 166.045 171.567 160.056 172.495L161.818 142.957L145.812 141.276C145.812 141.276 146.35 127.344 142.953 113.404C142.953 113.404 148.554 101.486 144.722 77.8001C140.756 56.5409 131.979 53.48 131.979 53.48C131.979 53.48 124.087 20.3027 116.432 11.8021C108.777 3.30162 104.795 -1.73367 94.738 0.550053C84.6811 2.83377 89.7925 12.8251 89.7925 12.8251C89.7925 12.8251 81.0312 5.98182 74.3872 12.5079C67.7432 19.0339 73.2022 27.9309 73.2022 27.9309C73.2022 27.9309 55.2688 26.9239 59.7561 46.1927C59.7561 46.1927 62.8214 58.7136 79.6645 55.0659C79.6645 55.0659 83.6383 51.8465 89.0025 58.5232C94.3667 65.192 95.9783 67.3568 95.9783 67.3568C95.9783 67.3568 90.8669 76.8089 95.1725 95.6971C99.4781 114.593 109.519 123.284 116.732 122.991C116.732 122.991 120.769 132.308 120.477 142.077L100.015 147.255C100.015 147.255 103.815 186.031 106.264 194.698C108.713 203.365 108.761 205.895 111.921 207.346C111.921 207.346 101.587 215.608 99.5808 228.502L88.1809 233.363C88.1809 233.363 87.5331 170.83 83.0142 150.269C83.0142 150.269 65.8234 135.155 47.2818 144.98C28.7401 154.804 35.0523 180.353 35.0523 180.353C35.0523 180.353 29.0166 193.334 20.8874 208.821C11.6995 226.329 0.283771 247.025 0.0783673 255.764C0.0783673 255.764 -1.12246 267.912 5.87708 268.855C5.87708 268.855 4.54985 280.496 22.025 279.87C39.5001 279.251 78.7244 263.923 78.7244 263.923L78.7086 271.908C78.7086 271.908 83.0774 272.804 87.375 272.115L87.7938 259.38C87.7938 259.38 114.686 246.439 117.301 244.488C117.301 244.488 131.292 242.228 140.259 234.956C140.259 234.956 146.294 241.895 160.673 263.812C175.043 285.73 199.012 301.391 226.56 300.851C226.56 300.851 240.512 296.236 237.494 278.704C237.494 278.704 248.349 273.653 236.364 246.74ZM37.5646 240.674C48.2772 224.228 65.065 208.829 65.065 208.829C70.7373 218.035 74.403 235.258 74.403 235.258C60.3644 242.545 37.5646 240.674 37.5646 240.674ZM152.472 200.82C148.949 199.828 142.423 189.75 142.937 184.096C143.45 178.442 145.805 176.745 149.17 177.848C152.536 178.95 152.954 183.39 155.893 184.302C158.832 185.206 160.033 179.283 165.184 181.289C170.335 183.295 165.666 191.724 163.477 194.428C161.289 197.132 157.576 202.255 152.472 200.82ZM180.534 241.657C180.534 241.657 181.655 223.11 186.783 210.486C186.783 210.486 201.193 234.734 205.427 259.832C205.427 259.832 187.707 250.213 180.534 241.657Z" fill="black"/>
</svg>
