<svg width="56" height="56" viewBox="0 0 56 56" fill="none" xmlns="http://www.w3.org/2000/svg">
<path d="M41.0084 15.9916C40.3775 15.3602 39.6283 14.8593 38.8038 14.5176C37.9792 14.1759 37.0954 14 36.2028 14C35.3102 14 34.4264 14.1759 33.6018 14.5176C32.7772 14.8593 32.028 15.3602 31.3971 15.9916C30.421 16.9966 29.7678 18.2707 29.5215 19.6499L18.0169 34.058C17.9092 34.1934 17.8551 34.3637 17.8649 34.5364C17.8748 34.7091 17.9478 34.8721 18.0701 34.9945L18.6775 35.6019L17.3016 36.9738C17.0297 37.2475 16.8464 37.5967 16.7756 37.976C16.7047 38.3553 16.7496 38.7471 16.9043 39.1005L13.1914 42.8148C13.066 42.9479 12.9974 43.1246 13.0001 43.3074C13.0028 43.4902 13.0766 43.6648 13.2059 43.7941C13.3352 43.9234 13.5098 43.9972 13.6926 43.9999C13.8754 44.0026 14.0521 43.934 14.1851 43.8086L17.8995 40.0957C18.2522 40.254 18.6449 40.3009 19.025 40.2299C19.4051 40.1589 19.7544 39.9735 20.0262 39.6984L21.4022 38.3225L22.0096 38.9299C22.132 39.0522 22.295 39.1252 22.4677 39.1351C22.6404 39.1449 22.8107 39.0908 22.9461 38.9831L37.3501 27.4785C38.7299 27.2339 40.0044 26.5804 41.0084 25.6029C41.6398 24.972 42.1407 24.2228 42.4824 23.3982C42.8241 22.5736 43 21.6898 43 20.7972C43 19.9046 42.8241 19.0208 42.4824 18.1962C42.1407 17.3716 41.6398 16.6225 41.0084 15.9916ZM19.0311 38.6992C18.9335 38.7968 18.8012 38.8516 18.6632 38.8516C18.5252 38.8516 18.3929 38.7968 18.2953 38.6992C18.1978 38.6016 18.1429 38.4693 18.1429 38.3313C18.1429 38.1933 18.1978 38.061 18.2953 37.9635L19.6658 36.5929L20.4016 37.3287L19.0311 38.6992ZM22.5584 37.4843L19.5102 34.4416L30.2245 21.0231L35.9769 26.7755L22.5584 37.4843ZM38.8298 25.4923C38.3417 25.7643 37.8145 25.9591 37.2668 26.0697L34.0958 22.9042L30.9248 19.7332C31.0355 19.1855 31.2303 18.6583 31.5022 18.1702V18.162L38.8312 25.4923H38.8298ZM40.0147 24.6037C40.0024 24.6146 39.9887 24.6242 39.9765 24.6364L32.3608 17.0235C32.3731 17.0113 32.3827 16.9976 32.3936 16.9853C32.8942 16.4847 33.4885 16.0876 34.1425 15.8167C34.7966 15.5458 35.4976 15.4064 36.2055 15.4064C36.9134 15.4064 37.6144 15.5458 38.2685 15.8167C38.9225 16.0876 39.5168 16.4847 40.0174 16.9853C40.518 17.4859 40.9151 18.0802 41.186 18.7342C41.4569 19.3883 41.5964 20.0893 41.5964 20.7972C41.5964 21.5052 41.4569 22.2062 41.186 22.8602C40.9151 23.5143 40.518 24.1085 40.0174 24.6091L40.0147 24.6037Z" fill="black"/>
</svg>
