<svg width="56" height="56" viewBox="0 0 56 56" fill="none" xmlns="http://www.w3.org/2000/svg">
<path fill-rule="evenodd" clip-rule="evenodd" d="M14.8844 35.0309C15.1514 34.7068 15.6306 34.6604 15.9548 34.9274C19.9151 38.1888 23.8051 39.7639 27.6375 39.7639C31.4698 39.7639 35.3599 38.1888 39.3202 34.9274C39.6443 34.6604 40.1236 34.7068 40.3905 35.0309C40.6575 35.3551 40.6112 35.8344 40.287 36.1013C36.1361 39.5198 31.9156 41.2847 27.6375 41.2847C23.3593 41.2847 19.1389 39.5198 14.988 36.1013C14.6638 35.8344 14.6174 35.3551 14.8844 35.0309Z" fill="black"/>
<path fill-rule="evenodd" clip-rule="evenodd" d="M37.6285 14.0007C37.9162 13.9883 38.1862 14.1394 38.326 14.3911L41.9043 20.832C42.0692 21.1288 42.0173 21.4989 41.7773 21.739L39.6303 23.8859C39.3989 24.1174 39.0453 24.1748 38.7525 24.0284L36.5701 22.9372L35.6019 24.8734L38.4015 36.7715C38.4977 37.1803 38.2443 37.5897 37.8355 37.6859C37.4267 37.782 37.0173 37.5286 36.9211 37.1198L34.0585 24.9537C34.0177 24.7806 34.039 24.5986 34.1186 24.4395L35.5499 21.5769C35.6401 21.3965 35.7982 21.2593 35.9895 21.1956C36.1809 21.1318 36.3897 21.1466 36.5701 21.2368L38.9425 22.423L40.2963 21.0692L37.228 15.5463C34.0637 15.767 32.2491 16.7917 31.0501 18.1382C29.7806 19.564 29.1279 21.418 28.4129 23.4489C28.3951 23.4995 28.3773 23.5501 28.3594 23.6009C28.2522 23.9052 27.9647 24.1087 27.6422 24.1087H19.0543C18.1172 24.1087 17.2184 24.4809 16.5558 25.1436C15.8931 25.8063 15.5208 26.705 15.5208 27.6422C15.5208 28.0621 15.1804 28.4026 14.7604 28.4026C14.3404 28.4026 14 28.0621 14 27.6422C14 26.3017 14.5325 25.0161 15.4804 24.0682C16.4283 23.1203 17.7138 22.5878 19.0543 22.5878H27.1035C27.7633 20.7144 28.5034 18.7114 29.9143 17.1268C31.4981 15.3481 33.8519 14.1637 37.6285 14.0007Z" fill="black"/>
<path fill-rule="evenodd" clip-rule="evenodd" d="M20.647 22.6039C21.058 22.6904 21.321 23.0937 21.2345 23.5046L18.3719 37.102C18.2853 37.513 17.8821 37.776 17.4711 37.6895C17.0601 37.603 16.7971 37.1997 16.8837 36.7887L19.7463 23.1913C19.8328 22.7804 20.2361 22.5174 20.647 22.6039Z" fill="black"/>
<path fill-rule="evenodd" clip-rule="evenodd" d="M24.0676 31.6538C24.1831 31.3651 24.4627 31.1758 24.7736 31.1758H30.4988C30.8098 31.1758 31.0894 31.3651 31.2049 31.6538L34.0675 38.8103C34.2235 39.2002 34.0338 39.6428 33.6439 39.7988C33.2539 39.9547 32.8114 39.7651 32.6554 39.3751L29.984 32.6966H25.2884L22.617 39.3751C22.4611 39.7651 22.0185 39.9547 21.6286 39.7988C21.2387 39.6428 21.049 39.2002 21.205 38.8103L24.0676 31.6538Z" fill="black"/>
</svg>
