<svg width="56" height="56" viewBox="0 0 56 56" fill="none" xmlns="http://www.w3.org/2000/svg">
<path fill-rule="evenodd" clip-rule="evenodd" d="M28.0071 14C24.3237 14 21.34 16.9837 21.34 20.6671C21.34 21.1215 21.7084 21.4898 22.1627 21.4898C22.6171 21.4898 22.9855 21.1215 22.9855 20.6671C22.9855 17.8925 25.2325 15.6455 28.0071 15.6455C30.7817 15.6455 33.0286 17.8925 33.0286 20.6671V28.703C33.0286 31.4776 30.7817 33.7246 28.0071 33.7246C25.2325 33.7246 22.9855 31.4776 22.9855 28.703V26.5406C22.9855 26.0862 22.6171 25.7179 22.1627 25.7179C21.7084 25.7179 21.34 26.0862 21.34 26.5406V28.703C21.34 32.3864 24.3237 35.3701 28.0071 35.3701C31.6904 35.3701 34.6741 32.3864 34.6741 28.703V20.6671C34.6741 16.9837 31.6904 14 28.0071 14ZM16.8227 25.177C16.3684 25.177 16 25.5453 16 25.9997V28.4836C16 34.8239 20.9347 40.0266 27.1675 40.4551V44.0443C27.1675 44.4987 27.5359 44.8671 27.9902 44.8671C28.4446 44.8671 28.813 44.4987 28.813 44.0443V40.4564C35.055 40.0374 40 34.8305 40 28.4836V25.9997C40 25.5453 39.6316 25.177 39.1773 25.177C38.7229 25.177 38.3545 25.5453 38.3545 25.9997V28.4836C38.3545 34.1949 33.7114 38.8381 28 38.8381C22.2886 38.8381 17.6455 34.1949 17.6455 28.4836V25.9997C17.6455 25.5453 17.2771 25.177 16.8227 25.177ZM30.3105 20.5232C28.8127 19.974 27.1801 19.974 25.6822 20.5232C25.2556 20.6797 25.0366 21.1523 25.193 21.5789C25.3494 22.0055 25.8221 22.2246 26.2487 22.0681C27.3808 21.653 28.6119 21.653 29.744 22.0681C30.1707 22.2246 30.6433 22.0055 30.7997 21.5789C30.9562 21.1523 30.7371 20.6797 30.3105 20.5232ZM29.4054 23.5972C28.4933 23.3563 27.5449 23.3563 26.6328 23.5972C26.1935 23.7132 25.9314 24.1634 26.0475 24.6028C26.1635 25.0421 26.6137 25.3042 27.0531 25.1881C27.6897 25.0199 28.3485 25.0199 28.9852 25.1881C29.4245 25.3042 29.8747 25.0421 29.9908 24.6028C30.1068 24.1634 29.8447 23.7132 29.4054 23.5972Z" fill="black"/>
</svg>
