<svg width="56" height="56" viewBox="0 0 56 56" fill="none" xmlns="http://www.w3.org/2000/svg">
<path fill-rule="evenodd" clip-rule="evenodd" d="M18.4441 15.4694C19.5441 14.3502 21.2106 14 23.336 14H31.664C33.7894 14 35.4559 14.3502 36.5559 15.4694C37.6559 16.5887 38 18.2844 38 20.4471V37.395C38 39.5577 37.6559 41.2534 36.5559 42.3727C35.4559 43.4919 33.7894 43.8421 31.664 43.8421H23.336C21.2106 43.8421 19.5441 43.4919 18.4441 42.3727C17.3441 41.2534 17 39.5577 17 37.395V20.4471C17 18.2844 17.3441 16.5887 18.4441 15.4694ZM19.5529 16.5976C18.9179 17.2437 18.568 18.3728 18.568 20.4471V37.395C18.568 39.4693 18.9179 40.5984 19.5529 41.2445C20.1879 41.8906 21.2974 42.2466 23.336 42.2466H31.664C33.7026 42.2466 34.8121 41.8906 35.4471 41.2445C36.0821 40.5984 36.432 39.4693 36.432 37.395V20.4471C36.432 18.3728 36.0821 17.2437 35.4471 16.5976C34.8121 15.9515 33.7026 15.5955 31.664 15.5955H23.336C21.2974 15.5955 20.1879 15.9515 19.5529 16.5976Z" fill="#292D32"/>
<path fill-rule="evenodd" clip-rule="evenodd" d="M22.5254 33.3418C22.5254 30.5949 24.7521 28.3682 27.4991 28.3682C30.246 28.3682 32.4728 30.5949 32.4728 33.3418C32.4728 36.0888 30.246 38.3155 27.4991 38.3155C24.7521 38.3155 22.5254 36.0888 22.5254 33.3418ZM27.4991 29.9443C25.6226 29.9443 24.1015 31.4654 24.1015 33.3418C24.1015 35.2183 25.6226 36.7394 27.4991 36.7394C29.3756 36.7394 30.8966 35.2183 30.8966 33.3418C30.8966 31.4654 29.3756 29.9443 27.4991 29.9443Z" fill="#292D32"/>
<path fill-rule="evenodd" clip-rule="evenodd" d="M24.7324 22.5658C24.7324 20.8872 25.9696 19.5264 27.4956 19.5264C29.0216 19.5264 30.2587 20.8872 30.2587 22.5658C30.2587 24.2445 29.0216 25.6053 27.4956 25.6053C25.9696 25.6053 24.7324 24.2445 24.7324 22.5658ZM27.4956 21.1893C26.8045 21.1893 26.2441 21.8056 26.2441 22.5658C26.2441 23.3261 26.8045 23.9424 27.4956 23.9424C28.1867 23.9424 28.747 23.3261 28.747 22.5658C28.747 21.8056 28.1867 21.1893 27.4956 21.1893Z" fill="#292D32"/>
</svg>
