<svg width="56" height="56" viewBox="0 0 56 56" fill="none" xmlns="http://www.w3.org/2000/svg">
<path fill-rule="evenodd" clip-rule="evenodd" d="M40.2494 19.5076C40.6048 19.3894 40.9277 19.1897 41.1922 18.9245L44.3594 15.7579C44.7692 15.348 44.9996 14.7922 45 14.2126C45.0004 13.633 44.7707 13.0769 44.3615 12.6665L42.3359 10.6409C42.1327 10.4377 41.8915 10.2765 41.6261 10.1666C41.3607 10.0566 41.0761 10 40.7888 10C40.5015 10 40.217 10.0566 39.9515 10.1666C39.6861 10.2765 39.4449 10.4377 39.2418 10.6409L36.0779 13.8082C35.8127 14.0727 35.613 14.3955 35.4948 14.7509L34.6635 17.2468L29.4501 22.4602C28.6188 21.8613 27.7069 21.3841 26.7088 21.1517C24.422 20.6199 22.1285 21.0916 20.5643 22.6557C19.9262 23.2964 19.4517 24.0812 19.1806 24.9438C18.7705 26.2126 17.5939 27.1786 16.2991 27.2996C14.6789 27.4548 13.1729 28.0823 12.0189 29.2438C8.89885 32.355 9.46011 37.9608 13.2529 41.7515C17.0457 45.5422 22.6473 46.096 25.7619 42.9868C26.9241 41.8329 27.5503 40.3275 27.7069 38.6998C27.8272 37.4112 28.7932 36.2298 30.0606 35.819C30.9234 35.5475 31.7084 35.0727 32.3494 34.4346C33.9129 32.8705 34.3825 30.5817 33.8534 28.2991C33.6216 27.2982 33.1445 26.3849 32.5436 25.5509L37.7556 20.3389L40.2494 19.5076ZM31.3683 33.4515C32.5225 32.2958 32.9453 30.5323 32.5003 28.6127C32.3213 27.8395 31.943 27.0933 31.4167 26.3628L30.726 25.4042L37.0053 19.1249L39.811 18.1897C39.9609 18.1398 40.0971 18.0556 40.2087 17.9437L43.3772 14.7759C43.3773 14.7758 43.3771 14.7759 43.3772 14.7759C43.5267 14.6262 43.6109 14.4232 43.6111 14.2117C43.6112 14.0004 43.5276 13.7976 43.3786 13.6478C43.3784 13.6476 43.3781 13.6474 43.3779 13.6472L41.3538 11.623C41.2796 11.5489 41.1914 11.4899 41.0945 11.4497C40.9976 11.4096 40.8937 11.3889 40.7888 11.3889C40.6839 11.3889 40.5801 11.4096 40.4831 11.4497C40.3862 11.4899 40.2982 11.5487 40.224 11.6229L37.0587 14.7916C36.9468 14.9032 36.8626 15.0394 36.8127 15.1893L35.8776 17.997L29.5969 24.2777L28.6383 23.5871C27.91 23.0625 27.1649 22.684 26.3938 22.5045C24.4708 22.0573 22.703 22.4821 21.5475 23.6367C21.0671 24.1194 20.7098 24.7104 20.5057 25.3601L20.504 25.3656L20.5022 25.371C19.9286 27.1456 18.2995 28.5069 16.4301 28.6823C15.085 28.8115 13.8974 29.3237 13.0042 30.2228L12.9997 30.2274C10.5984 32.6218 10.7921 37.3284 14.2347 40.7691C17.6758 44.2083 22.3811 44.3992 24.7807 42.0038L24.7833 42.0012C25.6818 41.1091 26.1935 39.923 26.3241 38.5688C26.4988 36.7067 27.8589 35.0726 29.6323 34.4977L29.638 34.4959L29.6437 34.4941C30.2937 34.2896 30.8852 33.932 31.3683 33.4515ZM24.2197 35.453C23.296 35.453 22.393 35.1791 21.625 34.6659C20.8569 34.1528 20.2583 33.4233 19.9048 32.57C19.5513 31.7166 19.4589 30.7775 19.6391 29.8715C19.8193 28.9656 20.2641 28.1334 20.9172 27.4802C21.5704 26.8271 22.4026 26.3823 23.3085 26.2021C24.2145 26.0219 25.1536 26.1144 26.007 26.4678C26.8603 26.8213 27.5898 27.4199 28.1029 28.188C28.6161 28.956 28.89 29.859 28.89 30.7827C28.89 32.0213 28.398 33.2093 27.5221 34.0851C26.6463 34.961 25.4583 35.453 24.2197 35.453ZM22.3966 33.5111C22.9362 33.8717 23.5707 34.0641 24.2197 34.0641C25.09 34.0641 25.9246 33.7184 26.54 33.103C27.1554 32.4876 27.5011 31.653 27.5011 30.7827C27.5011 30.1337 27.3087 29.4993 26.9481 28.9596C26.5875 28.42 26.075 27.9994 25.4754 27.751C24.8758 27.5027 24.216 27.4377 23.5795 27.5643C22.943 27.6909 22.3583 28.0035 21.8994 28.4624C21.4404 28.9213 21.1279 29.506 21.0013 30.1425C20.8747 30.779 20.9397 31.4388 21.188 32.0384C21.4364 32.638 21.857 33.1505 22.3966 33.5111Z" fill="black"/>
</svg>
