<svg width="56" height="56" viewBox="0 0 56 56" fill="none" xmlns="http://www.w3.org/2000/svg">
<path fill-rule="evenodd" clip-rule="evenodd" d="M16 37.1601C16 34.6196 18.0595 32.5601 20.6 32.5601C23.1405 32.5601 25.2 34.6196 25.2 37.1601C25.2 39.7005 23.1405 41.7601 20.6 41.7601C18.0595 41.7601 16 39.7005 16 37.1601ZM20.6 34.1814C18.9549 34.1814 17.6213 35.515 17.6213 37.1601C17.6213 38.8051 18.9549 40.1387 20.6 40.1387C22.2451 40.1387 23.5787 38.8051 23.5787 37.1601C23.5787 35.515 22.2451 34.1814 20.6 34.1814Z" fill="#292D32"/>
<path fill-rule="evenodd" clip-rule="evenodd" d="M37.3443 16.4432C38.4396 17.0749 38.9994 18.3055 38.9994 20.0368V34.7734C38.9994 35.2186 38.6335 35.5796 38.1822 35.5796C37.7309 35.5796 37.365 35.2186 37.365 34.7734V20.0368C37.365 18.6275 36.927 18.0704 36.5195 17.8354C36.0493 17.5642 35.3108 17.5327 34.3816 17.7828L26.7415 19.8364C25.6789 20.1215 24.9937 20.9066 24.9937 22.0902V37.2737C24.9937 37.719 24.6279 38.08 24.1765 38.08C23.7252 38.08 23.3594 37.719 23.3594 37.2737V22.0902C23.3594 20.1335 24.5839 18.7444 26.3123 18.2805M26.3127 18.2804L33.9516 16.2271C33.9516 16.2271 33.9515 16.2271 33.9516 16.2271C35.0424 15.9336 36.3118 15.8478 37.3443 16.4432" fill="#292D32"/>
<path fill-rule="evenodd" clip-rule="evenodd" d="M29.7988 34.3998C29.7988 31.8593 31.8582 29.7998 34.3988 29.7998C36.9393 29.7998 38.9988 31.8593 38.9988 34.3998C38.9988 36.9404 36.9393 38.9998 34.3988 38.9998C31.8582 38.9998 29.7988 36.9404 29.7988 34.3998ZM34.3988 31.4211C32.7537 31.4211 31.4202 32.7547 31.4202 34.3998C31.4202 36.045 32.7537 37.3785 34.3988 37.3785C36.0439 37.3785 37.3775 36.0449 37.3775 34.3998C37.3775 32.7548 36.0439 31.4211 34.3988 31.4211Z" fill="#292D32"/>
<path fill-rule="evenodd" clip-rule="evenodd" d="M38.9704 22.028C39.0891 22.3952 38.8324 22.7741 38.397 22.8742L24.3917 26.0956C23.9563 26.1957 23.5071 25.9792 23.3884 25.612C23.2696 25.2448 23.5263 24.866 23.9617 24.7658L37.967 21.5445C38.4024 21.4443 38.8516 21.6608 38.9704 22.028Z" fill="#292D32"/>
</svg>
