<svg width="252" height="479" viewBox="0 0 252 479" fill="none" xmlns="http://www.w3.org/2000/svg">
<path d="M0.930283 162.084C2.87984 159.781 8.81175 159.871 8.81175 159.871C8.81175 159.871 7.85432 153.017 7.78494 151.463C7.71556 149.909 7.12584 145.789 14.8339 145.616C22.5419 145.435 22.528 148.182 22.528 148.182C23.312 147.6 24.5331 147.717 25.1922 148.432C24.5053 147.773 23.8878 147.045 23.3606 146.254C22.972 145.671 22.6321 144.901 23.0137 144.312C23.4716 143.618 24.5261 143.777 25.2962 144.083C27.5164 144.964 29.5422 146.33 31.1865 148.071C31.1102 146.642 30.9159 145.005 29.7434 144.187C29.0219 143.687 28.0922 143.625 27.218 143.486C26.0802 143.306 24.88 142.883 24.2694 141.911C23.6589 140.933 24.0752 139.331 25.206 139.151C24.6788 138.422 24.2902 137.541 24.3943 136.646C24.4984 135.752 25.2407 134.905 26.1357 134.912C26.6491 134.919 27.114 135.183 27.551 135.439C28.7582 136.147 29.9655 136.854 31.1657 137.562C30.8535 136.404 31.2004 135.086 32.0329 134.225C33.1499 133.622 34.5098 134.836 34.6693 136.091C34.8289 137.347 34.267 138.568 33.9756 139.803C33.6217 141.301 33.6772 142.889 34.1282 144.353C35.1342 141.724 36.4732 139.234 38.1105 136.945C38.2979 136.681 38.506 136.404 38.7974 136.258C39.1998 136.05 39.6855 136.119 40.1087 136.286C41.2465 136.75 41.9958 138.013 41.864 139.234C42.6271 138.7 43.765 138.776 44.4379 139.421C44.9444 138.096 47.0258 137.784 47.8999 138.901C47.8722 137.812 49.5442 137.43 50.3629 138.145C51.1816 138.859 51.3273 140.059 51.4105 141.141C51.9656 140.51 53.0964 140.711 53.5751 141.398C54.0469 142.092 53.9359 143.056 53.4988 143.77C53.0618 144.485 52.3541 144.991 51.6395 145.421C50.356 146.198 48.9753 146.809 47.7681 147.697C46.5609 148.585 45.5202 149.833 45.3052 151.318C47.0188 151.81 48.8851 151.165 50.3282 150.125C51.6603 149.167 53.145 147.801 54.6852 148.37C56.0936 148.89 56.3156 151.193 55.0321 151.97C55.5178 152.095 56.0034 152.219 56.496 152.344C58.397 150.43 57.9183 146.538 61.1722 146.101C61.637 146.039 62.1088 146.08 62.5598 146.177C64.766 146.67 66.8682 147.62 68.6929 148.959C69.4213 149.493 70.1221 150.111 70.4898 150.929C71.3778 152.899 70.0804 155.112 68.8316 156.874C66.7641 159.801 68.3252 157.915 66.2646 160.842C67.9991 161.535 71.7317 157.783 72.6058 154.287C73.0221 152.629 73.3482 150.721 76.72 151.089C77.4346 151.165 78.1284 151.436 78.6626 151.921C79.0095 152.24 79.3217 152.136 79.3217 152.136C79.856 151.734 80.2445 151.144 80.3902 150.492C78.6349 149.001 76.0609 148.543 73.8963 149.341C73.0776 149.646 72.2034 150.118 71.3917 149.653C70.9477 149.396 70.6771 148.911 70.6147 148.404C70.5036 147.489 70.9754 146.663 71.5513 145.983C72.2659 145.144 73.1678 144.457 74.1669 143.992C72.7793 143.257 72.8556 140.926 74.1877 140.101C75.5197 139.275 77.4693 139.997 78.1631 141.398C78.1839 140.281 78.7112 138.936 79.8976 138.936C80.4526 138.936 80.9521 139.275 81.2435 139.74C81.7778 140.58 81.7014 141.571 81.6182 142.522C81.5072 143.819 81.3962 145.116 81.2852 146.42C81.2088 147.336 81.1603 148.356 81.7361 149.063C82.6034 147.773 83.2902 146.316 83.4151 144.769C83.5053 143.659 83.311 142.543 83.2555 141.433C83.2 140.316 83.2972 139.144 83.9146 138.207C84.5252 137.271 85.774 136.688 86.8008 137.125C87.3003 137.34 87.7721 137.784 88.3063 137.68C88.6948 137.604 88.9724 137.25 89.3192 137.07C90.1657 136.626 91.2411 137.291 91.5949 138.172C91.9487 139.053 91.7822 140.052 91.6157 140.989C92.1291 140.795 92.6703 140.6 93.2184 140.677C93.7595 140.753 94.2937 141.211 94.2521 141.759C94.2313 142.064 94.044 142.328 93.8428 142.563C92.4344 144.228 90.3253 145.081 88.4104 146.129C86.4955 147.176 84.5807 148.668 84.1505 150.811C85.8017 151.019 87.5293 150.548 88.8475 149.535C89.3748 149.126 89.8465 148.64 90.4155 148.293C91.7545 147.495 93.4543 147.634 94.9529 148.057C95.6397 148.252 96.4167 148.633 96.5 149.348C96.5624 149.909 96.1462 150.395 95.834 150.867C95.5218 151.338 95.3275 152.046 95.7507 152.421C95.945 152.594 96.2225 152.643 96.4653 152.754C97.4574 153.211 97.5199 154.765 96.7428 155.528C96.2364 156.028 95.5148 156.215 94.8002 156.187C95.2442 156.437 95.5911 156.86 95.6883 157.36C95.8687 158.247 95.2512 159.219 94.3701 159.434C95.8964 159.545 97.5962 159.545 98.9422 159.774C100.288 159.996 101.051 160.488 100.17 162.194C99.7261 163.048 98.394 166.148 94.7933 169.11C91.1856 172.072 91.4839 174.41 90.2836 174.695L92.9062 176.463C95.2234 177.594 97.5962 178.655 99.9898 179.64C103.424 173.224 104.701 165.961 106.081 159.357C106.081 159.357 103.584 149.292 111.201 136.438C120.845 120.525 143.546 125.936 148.063 127.205C148.52 127.337 148.819 127.774 148.77 128.253L142.373 191.343C144.476 191.704 146.418 192.002 148.167 192.258C161.293 188.873 189.655 180.286 196.933 175.048C205.793 168.673 212.877 156.312 212.877 156.312C218.177 146.441 224.588 144.034 229.881 143.701C236.431 143.292 241.669 146.739 245.582 151.359C248.655 154.987 250.223 159.926 250.223 159.926C257.099 189.789 232.719 194.173 232.719 194.173L218.371 233.754C214.472 234.899 209.213 232.943 209.213 232.943C214.93 215.386 215.943 198.432 215.943 198.432C199.341 207.998 157.949 216.232 157.949 216.232C155.091 219.7 150.692 219.291 148.43 218.785C145.849 218.507 143.268 218.098 140.688 217.585L138.127 217.266L135.56 229.925C131.571 229.599 126.937 229.162 126.937 229.162L126.895 213.88C122.552 212.431 118.306 210.766 114.206 208.969C114.206 208.969 105.179 222.17 96.5 226.596C89.2707 230.286 85.3785 226.436 84.2754 225.049C71.2044 222.801 59.0284 215.344 49.2181 207.332C34.7942 196.129 25.8998 183.157 25.8998 183.157C6.23779 178.198 7.8335 176.075 4.28822 172.53C0.749893 168.993 -1.01927 164.387 0.930283 162.084ZM41.6697 145.144C41.6697 145.144 39.1929 147.482 38.1869 147.877C37.1809 148.272 35.3631 150 36.3553 150C37.3474 150 41.6697 149.25 42.5578 147.877C43.4458 146.504 43.085 144.846 41.6697 145.144ZM69.8515 152.31C70.0596 150.728 65.9385 147.919 62.7471 147.919C61.3664 147.919 61.082 149.008 61.2832 149.577C61.5468 150.326 62.8858 150.881 64.1624 151.449C66.4172 152.455 67.2914 152.268 67.4163 151.838C67.5689 151.089 65.7651 150.825 64.5717 150.457C63.3854 150.09 62.2545 149.653 62.31 149.25C62.3655 148.848 62.9968 148.827 65.3488 149.701C67.7007 150.575 68.5957 151.269 68.6998 152.171C68.8039 153.073 68.4709 153.322 66.223 153.01C63.9682 152.698 60.8045 149.847 60.3188 150.936C59.8331 152.025 58.2652 155.23 56.4267 158.296C54.5881 161.355 51.7019 163.776 54.2412 163.554C55.4068 163.45 58.0779 158.109 59.3197 155.556C60.5616 153.003 60.6033 151.949 61.2138 151.997C61.8243 152.046 63.094 153.218 65.9871 154.023C68.8871 154.821 69.6434 153.884 69.8515 152.31ZM79.1066 153.419C78.7944 153.253 78.3296 152.871 77.8509 153.551C77.3791 154.231 77.0183 155.105 77.5109 155.507C77.9966 155.91 79.3009 156.215 79.8768 156.201C80.4526 156.18 80.6816 156.25 80.8689 155.473C81.077 154.571 79.4189 153.593 79.1066 153.419ZM84.6431 152.858C84.0048 152.643 83.8522 152.906 83.3527 153.87C82.8531 154.835 82.201 155.091 82.7282 155.507C83.3318 155.986 84.4072 155.223 85.3161 154.661C86.2249 154.106 85.2814 153.073 84.6431 152.858ZM128.567 176.297C127.082 178.773 124.383 184.177 122.892 187.202C124.654 187.659 126.395 188.089 128.095 188.485L128.567 176.297ZM75.5822 186.577C67.4718 187.978 61.0681 184.926 57.5991 184.378C55.4276 184.031 51.4383 182.318 50.1131 182.041C48.4619 181.701 48.1774 181.645 46.1516 181.749C62.2683 194.679 83.0335 199.292 88.0912 200.257L90.2906 197.038C90.2906 197.038 78.5239 188.922 75.8736 186.799C75.7765 186.716 75.6793 186.647 75.5822 186.577ZM43.5638 156.825C42.87 156.271 41.2812 157.165 40.2058 157.956C39.401 158.553 39.4218 159.205 39.401 159.517C39.3733 160.093 41.2534 160.134 43.2307 159.503C45.208 158.872 44.2575 157.373 43.5638 156.825ZM35.9251 155.535C34.8636 155.341 34.5583 155.785 34.1559 156.909C33.7605 158.039 35.5158 158.955 37.3543 158.893C38.6517 158.858 36.9866 155.729 35.9251 155.535ZM16.6932 152.018C16.6932 152.018 18.7885 152.171 21.1821 150.138C23.5756 148.113 25.435 153.877 24.9008 154.287C24.3666 154.703 23.1108 154.092 23.1593 155.313C23.2079 156.534 23.4854 162.139 24.3665 163.207C25.2546 164.269 27.9673 163.915 27.9673 163.915C28.6195 163.325 27.3776 160.842 27.3152 160.079C27.2527 159.309 27.6135 155.063 32.1578 153.822C36.7022 152.58 35.1064 155.001 38.9015 155.313C42.6965 155.625 44.5559 153.524 46.5609 154.113C48.566 154.703 49.8564 156.569 50.1617 158.289C50.467 160.009 49.5096 162.618 50.6821 162.569C51.8546 162.521 52.1113 156.77 49.8079 154.703C47.5045 152.636 43.987 152.462 41.5379 153.565C39.0888 154.668 37.6873 153.524 37.6873 153.524C37.6873 153.524 36.9311 151.338 32.3174 152.539C27.7037 153.739 26.9405 156.916 26.5797 157.817C26.219 158.719 24.651 156.68 26.1288 154.828C26.1912 154.12 25.7125 151.227 24.1237 149.514C22.528 147.801 19.843 149.472 19.3782 149.771C18.9133 150.062 17.1442 151.304 13.259 150.52C9.37373 149.736 11.7812 148.148 12.246 148.252C12.7108 148.356 11.9754 149.646 15.5623 149.764C19.1423 149.882 19.1909 147.87 19.1909 147.87C19.1909 147.87 18.9897 146.372 14.5008 146.788C10.012 147.204 9.77612 149.306 9.60268 149.764C9.42923 150.222 9.96344 152.754 16.6932 152.018Z" fill="#050710"/>
<path d="M228.491 31.2282C217.522 39.7119 211.472 65.4265 211.472 65.4265C212.534 70.9135 211.472 83.3164 211.472 83.3164C209.134 107.221 199.123 113.956 199.123 113.956C199.525 126.352 198.02 131 198.02 131L208.732 137.937C209.016 138.124 209.183 138.436 209.183 138.783C209.162 140.205 208.864 144.457 206.401 153.121C203.279 164.123 196.41 166.572 187.03 168.507C177.65 170.442 165.245 167.799 163.302 163.748C161.561 160.12 164.357 135.197 164.961 130.063C165.023 129.55 165.467 129.175 165.987 129.203C168.499 129.335 175.52 129.522 178.677 127.76C182.555 125.589 180.342 112.832 180.342 112.832C174.361 111.528 165.779 96.9541 171.975 74.2847C178.177 51.6154 188.806 51.2616 188.806 51.2616C199.081 34.0792 197.409 16.55 197.409 16.55C195.21 16.3766 190.402 4.15396 199.123 1.15727C207.851 -1.83248 210.89 5.00718 210.89 5.00718C210.89 5.00718 212.714 0.0751332 220.866 1.15727C229.011 2.23941 228.443 9.73112 228.443 9.73112C236.012 10.5219 239.453 22.7445 228.491 31.2282Z" fill="#050710"/>
<path d="M68.0776 447.809C66.7525 447.455 65.3302 447.989 65.5453 445.686C65.6771 444.299 66.6623 443.751 67.4254 443.529C66.5998 443.522 65.5175 443.092 65.5453 440.879C65.5869 437.314 69.2293 437.071 69.2293 437.071C67.814 436.079 67.134 435.004 66.9259 433.263C66.7178 431.522 69.5901 430.051 69.5901 430.051C69.5901 430.051 67.1063 425.847 70.1729 424.12C73.2394 422.393 75.4318 424.786 78.6163 429.031C81.8077 433.283 84.465 435.704 89.932 436.745C95.406 437.785 110.267 436.121 113.389 434.518C116.511 432.923 116.775 407.423 116.775 407.423L111.453 406.57C110.926 406.487 110.558 405.994 110.635 405.467C111.606 398.662 117.503 357.298 119.092 342.766C121.833 317.634 126.592 242.723 126.592 242.723C128.333 243.091 133.703 243.951 133.703 243.951L121.555 396.394C121.513 396.914 121.888 397.379 122.408 397.448L203.346 407.819C203.922 407.895 204.442 407.451 204.456 406.868L208.529 245.262C211.963 246.213 215.945 245.942 215.945 245.942L213.961 417.828C213.954 418.418 213.434 418.869 212.844 418.793L207.28 418.043L203.159 458.11C203.159 458.11 209.875 468.737 203.853 475.3C197.83 481.862 187.16 476.687 187.16 476.687C183.261 473.329 164.528 474.204 159.041 475.972C153.553 477.741 151.957 474.377 149.119 475.626C146.282 476.874 144.866 476.618 144.228 475.626C142.82 473.808 145.165 472.49 145.165 472.49C143.569 472.49 141.918 473.08 141.266 470.839C140.613 468.599 144.159 467.475 144.159 467.475C144.159 467.475 140.398 467.801 140.378 465.408C140.364 463.014 143.271 463.049 143.271 463.049C143.271 463.049 139.15 461.294 140.454 458.755C141.411 456.889 143.25 457.694 144.159 458.256C142.91 457.319 140.128 454.718 143.097 451.895C146.816 448.35 150.403 453.837 153.039 455.585C155.676 457.333 163.113 455.856 169.316 454.968C175.518 454.08 182.067 447.351 182.067 447.351V415.588L142.563 410.559L133.71 449.592C134.772 461.28 130.304 463.771 130.304 463.771C119.682 471.068 108.553 461.1 108.553 461.1C99.874 456.321 81.8077 457.201 81.8077 457.201C74.1899 457.201 72.4207 451.888 70.2908 452.776C68.1678 453.664 65.3302 453.13 65.5245 450.827C65.7187 448.524 68.0776 447.809 68.0776 447.809Z" fill="#050710"/>
</svg>
