<svg width="277" height="483" viewBox="0 0 277 483" fill="none" xmlns="http://www.w3.org/2000/svg">
<g clip-path="url(#clip0_589_14203)">
<path d="M22.7833 30.069C32.2768 37.797 40.0123 61.1215 40.0123 61.1215L40.9968 75.2426C43.88 109.457 52.6703 112.267 52.6703 112.267C51.9671 121.119 53.5142 132.008 53.5142 132.008L42.6845 138.05C42.4032 138.261 42.1923 138.542 42.1923 138.893C42.3329 142.757 44.091 150.766 48.3103 157.932C52.0374 164.255 57.5226 170.016 68.0709 170.578C91.2773 171.772 88.4644 165.59 88.4644 165.59C89.3083 150.837 86.7767 133.624 86.2141 129.76C86.1438 129.268 85.7922 128.987 85.2999 128.917L72.009 129.479C69.3367 124.491 70.4619 113.812 70.4619 113.812C75.1735 111.986 85.8625 102.712 81.2915 77.9123C77.0019 53.6745 65.1174 50.6536 65.1174 50.6536C54.2174 30.912 54.7097 15.5263 54.7097 15.5263C54.7097 15.5263 60.2651 6.74446 53.9361 1.68613C47.6071 -3.37219 41.0671 3.79377 41.0671 3.79377C28.0575 -5.33932 23.2755 8.57108 23.2755 8.57108C12.6569 11.03 13.2194 22.341 22.7833 30.069Z" fill="#050710"/>
<path d="M188.318 452.369C189.373 449.98 187.263 449.77 187.263 449.77C187.967 448.575 188.318 446.608 188.318 446.608C187.967 442.533 185.435 442.323 185.435 442.323C189.092 441.128 188.248 437.967 188.248 437.967C188.74 435.438 182.974 434.384 182.974 434.384C182.974 434.384 186.068 428.412 181.849 427.148C177.629 425.883 175.098 430.731 172.144 436.421C169.191 442.112 166.096 440.847 156.884 441.128C150.203 441.339 144.718 440.707 142.116 440.356C141.132 440.215 140.358 439.583 140.007 438.669C136.35 428.834 134.873 410.497 134.873 410.497L139.585 409.514C140.147 409.373 140.499 408.811 140.358 408.249C124.747 352.046 126.786 246.594 126.786 246.594C124.395 247.577 120.457 247.226 120.457 247.226C120.457 247.226 120.457 247.226 122.848 303.71C124.958 355.488 131.638 394.831 132.834 401.154C132.904 401.645 132.623 402.137 132.06 402.278C108.924 407.898 44.5792 411.411 36.0702 411.902C35.5076 411.902 35.0857 411.551 35.0154 410.989C34.5231 406.001 32.6244 380.709 36.7031 321.766C38.5315 292.54 44.087 247.647 44.087 247.647C40.5005 248.631 33.5386 247.647 33.5386 247.647C33.5386 247.647 31.6399 265.351 26.3657 319.096C21.5135 368.415 22.7793 415.415 23.0606 422.862C23.0606 423.424 23.5528 423.846 24.1154 423.846L44.5792 422.511L48.025 465.296L46.4779 468.738C42.6102 482.368 55.6902 483.843 61.8082 482.789C67.9263 481.735 79.5295 481.103 89.5856 482.508C99.6417 483.913 107.518 479.628 107.518 479.628C110.19 478.644 110.12 477.45 109.698 476.677C110.049 476.677 110.471 476.326 111.104 474.921C112.511 471.549 109.768 470.916 109.768 470.916C109.768 470.916 112.792 471.549 112.792 469.09C112.792 466.631 109.909 466.069 109.909 466.069C109.909 466.069 112.511 465.717 111.948 462.556C111.456 459.324 108.432 461.081 108.432 461.081C108.432 461.081 111.807 457.217 108.221 456.514C104.635 455.812 102.173 458.551 99.1494 460.589C96.1256 462.626 89.7965 462.977 82.483 461.291C75.1695 459.535 69.1921 454.406 69.1921 454.406C68.9811 438.107 71.1611 420.333 71.1611 420.333L110.26 416.118L119.473 455.179L118.84 459.746C117.715 479.136 137.967 472.251 146.898 468.949C155.829 465.647 159.416 462.837 170.738 463.188C182.06 463.54 182.692 459.746 182.692 459.746C184.872 461.432 187.263 461.151 188.178 458.551C188.951 456.444 187.615 454.687 186.982 454.055C187.263 453.985 187.685 453.774 188.318 452.369Z" fill="#050710"/>
<path d="M275.029 157.581C270.529 157.792 252.104 157.581 252.104 157.581C252.667 156.176 251.19 156.387 251.19 156.387C241.345 156.457 238.04 150.766 238.04 150.766C234.524 139.947 236.985 125.123 237.337 122.313C237.618 120.065 238.321 118.871 239.517 118.168L241.345 117.325C255.902 110.37 254.987 87.6776 254.636 82.8301C254.566 82.3383 254.144 81.9168 253.651 81.9168H212.302C211.739 81.9168 211.317 82.3383 211.317 82.9003C211.317 116.06 226.648 117.676 226.648 117.676C229.671 119.081 230.304 118.871 230.867 130.322C231.429 141.774 229.742 146.481 228.757 150.555C227.773 154.63 216.521 156.457 216.521 156.457H206.184V93.7195C206.324 79.0363 199.925 75.0318 196.339 73.978C194.932 73.5565 194.018 72.2919 193.948 70.8868L193.807 43.5578C193.807 42.9957 193.385 42.5742 192.822 42.5742H180.797C180.235 42.5742 179.813 42.9957 179.813 43.5578V71.2381C179.813 72.5729 179.039 73.697 177.773 74.259C167.155 78.7553 168.772 92.455 168.772 92.455L169.194 156.457C169.194 156.457 158.997 154.911 152.106 153.506C145.214 152.101 148.238 131.025 148.519 126.88C148.801 122.735 149.855 119.643 149.855 119.643C167.295 115.779 165.748 88.2397 165.326 82.8301C165.256 82.3383 164.834 81.9168 164.342 81.9168H125.313C124.821 81.9168 124.399 82.3383 124.328 82.8301C120.531 116.552 140.081 119.433 140.081 119.433C144.37 134.889 141.768 144.373 141.768 144.373C135.299 119.924 109.561 126.247 104.779 127.652C104.357 127.793 104.005 128.215 104.076 128.636L107.873 189.757C69.4066 187.72 51.1931 174.091 46.4112 169.875C45.5673 169.173 45.0047 168.189 44.7234 167.206C40.8557 153.155 30.8699 145.638 23.908 146.059C16.7351 146.551 0.912567 148.097 0.0686985 169.594C-0.775171 191.092 23.1345 196.502 23.1345 196.502L34.386 235.282C43.106 236.055 43.4576 233.526 43.4576 233.526L37.2693 200.085C63.6402 210.904 106.396 217.297 106.396 217.297C106.396 217.297 107.451 220.388 111.459 221.161C113.147 221.513 115.327 220.88 118.21 220.318L119.406 232.964C119.406 232.964 126.086 234.088 126.016 230.856C126.016 229.803 125.876 223.55 125.946 217.859C133.963 214.417 141.417 209.077 141.417 209.077C149.082 218.562 156.044 232.402 161.74 232.402C164.693 232.402 166.663 231.84 168.069 227.554C192.471 218.702 230.937 186.737 230.937 186.737C230.937 186.737 236.915 187.439 245.635 182.943C254.284 178.447 260.754 164.325 260.754 164.325C276.717 163.272 279.53 157.37 275.029 157.581ZM124.891 187.72L122.992 177.603L128.688 186.526C126.86 188.282 124.891 187.72 124.891 187.72ZM127.704 86.2725C127.704 85.7105 128.196 85.3592 128.688 85.3592H160.404C160.896 85.3592 161.388 85.7808 161.388 86.2725C161.81 91.2606 162.935 114.936 144.933 114.936C127.001 114.866 127.423 91.2606 127.704 86.2725ZM152.95 178.798C148.801 174.02 146.902 166.011 146.902 166.011C160.123 169.594 174.961 171 174.961 171C163.217 176.62 152.95 178.798 152.95 178.798ZM168.702 194.324C179.25 189.687 186.915 183.505 186.915 183.505L205.551 183.786C186.493 194.746 168.702 194.324 168.702 194.324ZM215.537 86.3428C215.537 85.7808 215.959 85.3592 216.521 85.3592H249.502C250.065 85.3592 250.487 85.7808 250.487 86.3428C250.698 91.4714 250.768 115.428 233.258 115.428C215.748 115.428 215.396 91.4714 215.537 86.3428Z" fill="#050710"/>
</g>
<defs>
<clipPath id="clip0_589_14203">
<rect width="277" height="483" fill="white"/>
</clipPath>
</defs>
</svg>
