<svg width="294" height="707" viewBox="0 0 294 707" fill="none" xmlns="http://www.w3.org/2000/svg">
<rect width="33.7924" height="34.4607" rx="5" transform="matrix(0.956502 0.291724 -0.290879 0.95676 176.738 205.714)" fill="#FF0000"/>
<path d="M234.069 652.154C229.252 650.086 234.863 654.48 215.602 644.725C196.342 634.969 191.419 632.978 191.362 624.668C191.295 616.358 191.362 580.974 191.362 580.974H225.142C225.916 580.974 226.537 580.323 226.499 579.547L214.857 347.471L206.531 348.812C207.889 397.254 214.13 549.773 214.799 566.087C214.828 566.862 214.216 567.503 213.442 567.494L65.6673 566.766C64.8549 566.766 64.224 566.039 64.3292 565.234L104.341 349.855C101.263 349.482 98.1759 349.07 95.0885 348.792L44.7437 581.069C44.6195 581.883 45.2503 582.62 46.0724 582.63L75.0729 582.908L77.6155 606.88C76.5449 622.342 77.8067 615.362 69.6055 632.988C61.3947 650.613 42.5739 670.612 42.5739 670.612C31.8397 677.457 30.3677 681.852 32.3272 684.303C34.2771 686.744 38.1866 685.155 38.1866 685.155C38.1866 685.155 34.2771 689.195 38.1866 692.613C42.0865 696.03 46.8657 691.09 46.8657 691.09C46.8657 691.09 44.5239 695.054 50.3833 697.505C56.2426 699.956 59.1675 693.101 59.1675 693.101C59.1675 693.101 56.2426 700.434 63.077 702.387C69.9113 704.34 72.3488 694.566 72.3488 694.566C72.3488 694.566 69.9113 705.317 79.0684 706.341C88.235 707.366 92.0298 683.738 92.0298 683.738C95.8436 670.986 107.495 653.494 107.495 653.494C107.495 653.494 116.633 647.319 115.63 638.378C114.626 629.436 111.07 624.754 111.07 624.754L113.422 583.606L152.602 582.266L161.702 638.387C161.702 638.387 154.361 643.231 156.674 655.945C158.987 668.659 165.095 670.133 177.789 670.612C190.483 671.091 205.614 679.899 213.471 688.209C221.328 696.519 228.028 704.599 233.678 700.932C239.327 697.265 231.967 689.673 231.967 689.673C244.182 695.035 243.647 682.273 240.263 681.363C248.56 682.34 244.909 673.695 244.909 673.695C255.404 670.909 247.098 665.72 247.098 665.72C247.098 665.72 251.714 665.978 251.734 661.316C251.714 656.443 244.737 656.74 234.069 652.154Z" fill="black"/>
<path d="M286.93 298.071C272.43 265.578 266.8 251.83 265.959 231.352C265.959 231.352 275.412 202.927 256.763 186.69C238.115 170.463 222.104 174.618 222.104 174.618C222.104 174.618 219.705 228.279 208.741 281.987L196.459 269.465C196.459 269.465 194.212 266.506 194.623 262.035C195.034 257.564 194.365 252.615 194.365 252.615C194.365 252.615 209.841 244.2 211.943 227.532C214.046 210.864 201.85 207.312 194.604 208.432L196.736 172.77L177.37 170.741C177.37 170.741 178.02 153.92 173.91 137.089C173.91 137.089 180.687 122.7 176.051 94.1032C171.253 68.4361 160.633 64.7406 160.633 64.7406C160.633 64.7406 151.084 24.6843 141.822 14.4213C132.56 4.15829 127.742 -1.92101 115.574 0.836219C103.406 3.59344 109.591 15.6563 109.591 15.6563C109.591 15.6563 98.9903 7.3942 90.9515 15.2734C82.9128 23.1525 89.5178 33.8942 89.5178 33.8942C89.5178 33.8942 67.8199 32.6783 73.2492 55.9424C73.2492 55.9424 76.9579 71.0593 97.3366 66.6554C97.3366 66.6554 102.145 62.7685 108.635 70.8295C115.125 78.881 117.075 81.4946 117.075 81.4946C117.075 81.4946 110.891 92.9065 116.1 115.711C121.309 138.525 133.458 149.018 142.185 148.664C142.185 148.664 147.07 159.913 146.716 171.708L121.959 177.959C121.959 177.959 126.557 224.775 129.52 235.239C132.483 245.703 132.541 248.757 136.364 250.509C136.364 250.509 123.862 260.484 121.434 276.051L107.641 281.92C107.641 281.92 106.857 206.422 101.389 181.597C101.389 181.597 80.5901 163.35 58.1562 175.212C35.7224 187.073 43.3596 217.92 43.3596 217.92C43.3596 217.92 36.0569 233.592 26.2212 252.289C15.1046 273.428 1.29256 298.415 1.04404 308.966C1.04404 308.966 -0.408862 323.633 8.05999 324.772C8.05999 324.772 6.45416 338.826 27.5976 338.07C48.7411 337.323 96.1992 318.817 96.1992 318.817L96.1801 328.458C96.1801 328.458 101.466 329.54 106.666 328.707L107.172 313.331C107.172 313.331 139.71 297.707 142.873 295.352C142.873 295.352 159.802 292.623 170.651 283.844C170.651 283.844 177.953 292.221 195.35 318.683C212.737 345.145 241.737 364.053 275.068 363.402C275.068 363.402 291.948 357.83 288.297 336.662C288.297 336.662 301.43 330.564 286.93 298.071ZM46.3992 290.747C59.3606 270.891 79.6725 252.299 79.6725 252.299C86.5355 263.414 90.9707 284.208 90.9707 284.208C73.9852 293.006 46.3992 290.747 46.3992 290.747ZM185.428 242.63C181.165 241.433 173.27 229.265 173.891 222.439C174.512 215.613 177.361 213.564 181.433 214.895C185.504 216.225 186.011 221.587 189.567 222.687C193.123 223.779 194.576 216.627 200.808 219.049C207.04 221.472 201.391 231.648 198.743 234.913C196.095 238.178 191.603 244.362 185.428 242.63ZM219.38 291.934C219.38 291.934 220.737 269.541 226.941 254.3C226.941 254.3 244.375 283.576 249.499 313.877C249.499 313.877 228.059 302.264 219.38 291.934Z" fill="black"/>
</svg>
