<svg width="255" height="360" viewBox="0 0 255 360" fill="none" xmlns="http://www.w3.org/2000/svg">
<path d="M123.409 81.2388C123.409 81.2388 114.469 78.1173 106.882 57.545C106.882 57.545 95.0464 39.7907 82.5166 35.0357C69.9867 30.2806 75.2257 16.0968 83.6132 16.9991C83.6132 16.9991 84.2986 9.63566 91.7993 12.5306C91.7993 12.5306 94.4038 7.19829 99.9127 9.63994C99.9127 9.63994 104.398 12.2398 101.776 17.6918C101.776 17.6918 105.884 30.3619 119.215 41.3087C119.215 41.3087 131.222 40.6117 137.498 57.6434C143.773 74.675 136.701 79.7123 136.701 79.7123C136.701 79.7123 138.11 83.2871 138.839 91.2834C139.567 99.2797 146.031 112.672 133.017 116.957C133.017 116.957 120.701 122.61 118.131 113.754C115.917 106.121 115.107 99.3909 114.927 97.6804C114.901 97.4281 115.034 97.1887 115.261 97.0775C116.85 96.2992 123.002 93.2461 124.523 91.8564C124.523 91.8521 126.082 89.8423 123.409 81.2388Z" fill="#050710"/>
<path d="M105.684 101.345C106.074 104.274 107.411 113.699 109.36 120.387C109.36 120.387 109.244 149.199 107.398 162.314C107.398 162.314 105.012 162.801 103.029 161.612C103.029 161.612 101.469 142.494 98.4878 133.262C98.4878 133.262 92.345 146.009 92.1779 158.243C92.0109 170.472 93.0261 166.538 92.8805 174.107C92.7348 181.676 90.9956 202.201 90.5544 210.21C90.5544 210.21 92.4007 212.147 92.4221 216.128C92.4435 220.109 91.5654 220.4 93.3174 227.533L102.155 170.545C102.155 170.545 104.134 171.405 107.038 171.396L94.0671 266.531C94.0157 266.903 94.3112 267.228 94.6839 267.219L159.878 265.551C160.233 265.543 160.507 265.235 160.464 264.88C159.65 257.718 152.445 193.679 152.527 171.486L156.738 171.494L166.5 272.521C166.534 272.859 166.282 273.163 165.939 273.184C164.195 273.304 158.849 273.633 150.74 273.834C150.74 273.834 150.124 287.65 150.124 294.419C150.124 294.419 153.653 300.513 161.664 303.686C169.674 306.858 167.657 306.824 174.532 306.08C174.532 306.08 178.542 304.746 178.85 308.06C179.158 311.374 176.374 311.451 176.374 311.451C176.374 311.451 178.105 315.53 173.74 315.894C173.74 315.894 175.937 320.405 170.36 320.187C170.36 320.187 173.234 324.51 167.19 324.117C167.19 324.117 166.749 328.158 162.812 325.81C162.812 325.81 156.519 318.353 146.41 315.599C136.3 312.845 135.94 312.105 134.724 308.612C133.503 305.118 136.566 301.59 136.566 301.59L133.04 274.621L114.689 275.421L114.586 295.039C114.586 295.039 117.456 299.341 117.011 302.984C116.565 306.627 112.5 309.048 112.5 309.048C112.5 309.048 106.181 318.16 104.635 323.894C103.089 329.629 103.106 332.181 99.3831 332.4C95.6649 332.618 96.0932 327.533 96.0932 327.533C96.0932 327.533 94.3412 330.223 91.7153 329.351C89.0894 328.478 89.5992 325.434 89.5992 325.434C89.5992 325.434 88.4254 327.824 85.3626 326.952C82.2997 326.079 84.086 322.706 84.086 322.706C84.086 322.706 82.5182 323.903 80.7705 322.812C79.0184 321.722 80.5991 318.78 80.5991 318.78C80.5991 318.78 78.8514 319.605 78.1446 317.771C77.0522 314.932 81.7643 314.987 90.3488 306.341C98.9333 297.695 99.6616 290.913 99.6316 289.399C99.6016 287.885 98.1237 275.72 98.1237 275.72C98.1237 275.72 89.702 275.271 86.2622 275.031C85.9066 275.006 85.6496 274.681 85.7096 274.33L91.7196 237C91.7196 237 90.0018 235.905 86.0523 232.395C82.1027 228.884 82.0384 227.776 81.2759 221.948C81.2759 221.948 81.2245 214.717 82.3169 209.475C82.3169 209.475 77.9432 192.007 77.0651 182.398C76.1912 172.79 75.5358 160.783 79.0356 161.219C79.0356 161.219 78.8599 138.829 77.9132 134.536C77.9132 134.536 70.9308 121.686 78.5858 110.77C84.9299 101.606 97.8667 104.92 97.8667 104.92L104.781 100.905C105.149 100.682 105.624 100.917 105.684 101.345Z" fill="#050710"/>
<path d="M232.107 50.2415C218.511 39.9276 175.083 40.3509 175.083 40.3509C175.083 40.3509 175.751 40.3124 170.345 37.4774C164.943 34.6423 156.886 37.8579 156.886 37.8579C164.095 29.1304 163.384 18.6968 163.384 18.6968H136.328C136.328 18.6968 136.328 24.4182 139.4 30.7853C142.471 37.1524 147.149 39.6796 147.149 39.6796L147.873 40.8427C145.418 42.7498 146.665 45.4095 146.665 45.4095C145.161 47.3038 147.05 49.7284 147.05 49.7284C146.181 52.2171 148.155 52.0546 148.357 53.6325C148.558 55.2103 146.609 56.8438 144.857 57.7161C143.105 58.5884 139.168 63.1168 152.084 62.3172C164.999 61.5133 160.57 56.5872 160.57 56.5872C166.001 55.8945 170.341 52.4779 170.341 52.4779C194.728 51.8237 213.126 60.1877 213.126 60.1877C199.585 79.0324 171.3 86.289 171.3 86.289C158.513 81.2389 150.91 85.3183 149.325 86.3275C149.132 86.4515 149.025 86.6738 149.051 86.9047C150.756 103.239 150.327 95.4441 150.469 118.518C150.614 141.763 152.563 162.271 152.563 162.271C154.585 162.891 157.545 162.335 157.545 162.335C163.671 122.405 168.889 116.072 168.889 116.072C168.889 116.072 186.422 110.338 205.403 96.0128C224.384 81.6836 236.729 65.3618 237.492 57.9299C238.259 50.4981 232.107 50.2415 232.107 50.2415ZM143.448 32.778C140.359 29.9985 139.211 20.5227 139.211 20.5227H160.942C160.831 26.0132 159.601 27.2618 159.601 27.2618C154.594 33.0473 143.448 32.778 143.448 32.778Z" fill="#050710"/>
</svg>
