<svg width="269" height="382" viewBox="0 0 269 382" fill="none" xmlns="http://www.w3.org/2000/svg">
<rect width="15.9791" height="16.329" rx="5" transform="matrix(0.956298 0.292394 -0.290212 0.956962 146.906 121.194)" fill="#FF0000"/>
<path d="M174.005 332.783C171.728 331.803 174.38 333.885 165.275 329.262C156.169 324.638 153.842 323.694 153.815 319.756C153.783 315.817 153.815 299.047 153.815 299.047H169.785C170.151 299.047 170.444 298.739 170.426 298.371L164.922 188.38L160.986 189.015C161.628 211.974 164.579 284.26 164.895 291.991C164.909 292.359 164.62 292.663 164.254 292.658L94.3917 292.314C94.0076 292.314 93.7094 291.969 93.7591 291.588L112.675 189.509C111.22 189.332 109.76 189.137 108.301 189.006L84.4999 299.092C84.4411 299.478 84.7394 299.827 85.128 299.832L98.8383 299.964L100.04 311.325C99.5342 318.653 100.131 315.345 96.2535 323.699C92.3718 332.052 83.4741 341.531 83.4741 341.531C78.3994 344.775 77.7035 346.858 78.6298 348.019C79.5517 349.176 81.3999 348.423 81.3999 348.423C81.3999 348.423 79.5517 350.338 81.3999 351.958C83.2436 353.578 85.5031 351.236 85.5031 351.236C85.5031 351.236 84.3959 353.115 87.166 354.276C89.9361 355.438 91.3189 352.189 91.3189 352.189C91.3189 352.189 89.9361 355.665 93.1671 356.59C96.3981 357.516 97.5504 352.883 97.5504 352.883C97.5504 352.883 96.3981 357.979 100.727 358.464C105.061 358.95 106.855 347.752 106.855 347.752C108.658 341.708 114.166 333.418 114.166 333.418C114.166 333.418 118.486 330.491 118.012 326.253C117.537 322.015 115.856 319.797 115.856 319.797L116.968 300.295L135.491 299.66L139.793 326.258C139.793 326.258 136.322 328.554 137.416 334.58C138.51 340.605 141.397 341.304 147.398 341.531C153.399 341.758 160.553 345.932 164.267 349.871C167.982 353.809 171.149 357.639 173.82 355.901C176.491 354.163 173.011 350.565 173.011 350.565C178.786 353.106 178.533 347.057 176.934 346.626C180.856 347.089 179.13 342.992 179.13 342.992C184.092 341.671 180.165 339.212 180.165 339.212C180.165 339.212 182.347 339.335 182.356 337.125C182.347 334.815 179.048 334.956 174.005 332.783Z" fill="black"/>
<path d="M198.997 164.967C192.142 149.567 189.48 143.051 189.082 133.345C189.082 133.345 193.552 119.874 184.735 112.178C175.919 104.487 168.35 106.457 168.35 106.457C168.35 106.457 167.216 131.889 162.032 157.344L156.226 151.409C156.226 151.409 155.164 150.007 155.358 147.888C155.552 145.769 155.236 143.423 155.236 143.423C155.236 143.423 162.552 139.435 163.546 131.535C164.54 123.635 158.774 121.952 155.349 122.483L156.357 105.581L147.202 104.619C147.202 104.619 147.509 96.6467 145.566 88.67C145.566 88.67 148.77 81.8502 146.578 68.297C144.309 56.1322 139.289 54.3808 139.289 54.3808C139.289 54.3808 134.775 35.3962 130.396 30.5321C126.017 25.668 123.739 22.7868 117.987 24.0936C112.234 25.4003 115.158 31.1175 115.158 31.1175C115.158 31.1175 110.147 27.2017 106.346 30.936C102.546 34.6703 105.668 39.7612 105.668 39.7612C105.668 39.7612 95.4106 39.185 97.9773 50.2109C97.9773 50.2109 99.7307 57.3755 109.365 55.2882C109.365 55.2882 111.638 53.4461 114.706 57.2666C117.775 61.0825 118.696 62.3212 118.696 62.3212C118.696 62.3212 115.773 67.7298 118.235 78.5379C120.698 89.3506 126.442 94.3236 130.568 94.1557C130.568 94.1557 132.877 99.4872 132.709 105.077L121.006 108.04C121.006 108.04 123.179 130.228 124.58 135.187C125.981 140.147 126.008 141.594 127.816 142.425C127.816 142.425 121.905 147.153 120.757 154.53L114.236 157.312C114.236 157.312 113.866 121.53 111.281 109.764C111.281 109.764 101.448 101.116 90.842 106.738C80.2362 112.36 83.8468 126.979 83.8468 126.979C83.8468 126.979 80.3944 134.407 75.7444 143.269C70.489 153.287 63.9592 165.13 63.8417 170.13C63.8417 170.13 63.1548 177.081 67.1586 177.621C67.1586 177.621 66.3994 184.282 76.3952 183.924C86.3909 183.57 108.827 174.799 108.827 174.799L108.818 179.368C108.818 179.368 111.317 179.881 113.775 179.486L114.015 172.199C114.015 172.199 129.397 164.794 130.893 163.678C130.893 163.678 138.896 162.385 144.025 158.224C144.025 158.224 147.477 162.194 155.702 174.736C163.921 187.277 177.632 196.238 193.389 195.93C193.389 195.93 201.369 193.289 199.643 183.257C199.643 183.257 205.852 180.366 198.997 164.967ZM85.2838 161.495C91.4114 152.085 101.014 143.273 101.014 143.273C104.259 148.541 106.355 158.396 106.355 158.396C98.3253 162.566 85.2838 161.495 85.2838 161.495ZM151.011 138.69C148.995 138.123 145.263 132.356 145.557 129.121C145.85 125.886 147.197 124.915 149.122 125.545C151.047 126.176 151.287 128.717 152.968 129.239C154.649 129.756 155.335 126.367 158.282 127.515C161.228 128.663 158.557 133.486 157.306 135.033C156.054 136.58 153.93 139.512 151.011 138.69ZM167.062 162.058C167.062 162.058 167.704 151.445 170.636 144.221C170.636 144.221 178.879 158.097 181.301 172.458C181.301 172.458 171.165 166.954 167.062 162.058Z" fill="black"/>
</svg>
