<svg width="180" height="224" viewBox="0 0 180 224" fill="none" xmlns="http://www.w3.org/2000/svg">
<circle cx="90.4667" cy="132.435" r="80.9378" stroke="#F3962A" stroke-width="6"/>
<rect width="19.9175" height="20.3537" rx="5" transform="matrix(0.956298 0.292394 -0.290212 0.956962 107.564 126.839)" fill="#FF0000"/>
<path d="M175.808 183.526C166.894 163.508 163.433 155.038 162.916 142.422C162.916 142.422 168.727 124.911 157.263 114.908C145.798 104.911 135.956 107.47 135.956 107.47C135.956 107.47 134.481 140.529 127.741 173.617L120.19 165.902C120.19 165.902 118.809 164.08 119.062 161.325C119.315 158.571 118.903 155.522 118.903 155.522C118.903 155.522 128.417 150.337 129.71 140.069C131.002 129.8 123.504 127.612 119.05 128.302L120.361 106.332L108.456 105.082C108.456 105.082 108.855 94.7188 106.328 84.35C106.328 84.35 110.495 75.4853 107.645 57.8678C104.695 42.0552 98.1664 39.7785 98.1664 39.7785C98.1664 39.7785 92.2962 15.1011 86.6022 8.77845C80.9082 2.45575 77.9466 -1.28951 70.4663 0.40913C62.9859 2.10777 66.7878 9.5393 66.7878 9.5393C66.7878 9.5393 60.2712 4.44929 55.3293 9.30337C50.3875 14.1575 54.4479 20.7751 54.4479 20.7751C54.4479 20.7751 41.1091 20.026 44.4467 34.3582C44.4467 34.3582 46.7267 43.6712 59.2546 40.9581C59.2546 40.9581 62.2103 38.5635 66.2002 43.5297C70.1901 48.4899 71.3888 50.1001 71.3888 50.1001C71.3888 50.1001 67.587 57.1306 70.7895 71.1797C73.992 85.2347 81.4605 91.699 86.8255 91.4807C86.8255 91.4807 89.8282 98.4109 89.6108 105.677L74.3915 109.529C74.3915 109.529 77.218 138.37 79.0396 144.817C80.8612 151.263 80.8964 153.145 83.2469 154.224C83.2469 154.224 75.5609 160.37 74.0684 169.96L65.5891 173.576C65.5891 173.576 65.1072 127.064 61.7461 111.77C61.7461 111.77 48.9596 100.528 35.1683 107.836C21.3769 115.144 26.072 134.147 26.072 134.147C26.072 134.147 21.5826 143.802 15.5361 155.321C8.7021 168.344 0.21107 183.738 0.0582897 190.238C0.0582897 190.238 -0.834886 199.273 4.37138 199.975C4.37138 199.975 3.38419 208.633 16.3822 208.168C29.3803 207.707 58.5553 196.307 58.5553 196.307L58.5436 202.246C58.5436 202.246 61.7931 202.912 64.9897 202.399L65.3011 192.927C65.3011 192.927 85.3036 183.301 87.2486 181.85C87.2486 181.85 97.6552 180.17 104.325 174.761C104.325 174.761 108.814 179.922 119.509 196.224C130.197 212.526 148.026 224.175 168.516 223.774C168.516 223.774 178.893 220.341 176.648 207.301C176.648 207.301 184.722 203.543 175.808 183.526ZM27.9406 179.014C35.9087 166.781 48.3955 155.327 48.3955 155.327C52.6145 162.175 55.3411 174.985 55.3411 174.985C44.8992 180.405 27.9406 179.014 27.9406 179.014ZM113.409 149.37C110.788 148.633 105.935 141.136 106.317 136.931C106.699 132.726 108.45 131.464 110.953 132.283C113.456 133.103 113.768 136.406 115.954 137.084C118.139 137.757 119.033 133.351 122.864 134.843C126.695 136.335 123.222 142.605 121.595 144.616C119.967 146.627 117.205 150.438 113.409 149.37ZM134.281 179.745C134.281 179.745 135.116 165.949 138.929 156.56C138.929 156.56 149.647 174.596 152.797 193.263C152.797 193.263 139.617 186.109 134.281 179.745Z" fill="black"/>
</svg>
